Prima-Cursive.ufo
<glyph name="exclam" format="2">
	<advance width="803"/>
	<unicode hex="0021"/>
	<outline>
		<contour>
			<point x="352" y="396" type="curve" smooth="yes"/>
			<point x="370" y="396"/>
			<point x="382" y="403"/>
			<point x="392" y="440" type="curve" smooth="yes"/>
			<point x="467" y="722"/>
			<point x="614" y="1229"/>
			<point x="705" y="1502" type="curve" smooth="yes"/>
			<point x="715" y="1533"/>
			<point x="723" y="1559"/>
			<point x="723" y="1568" type="curve" smooth="yes"/>
			<point x="723" y="1586"/>
			<point x="704" y="1600"/>
			<point x="683" y="1600" type="curve" smooth="yes"/>
			<point x="665" y="1600"/>
			<point x="654" y="1587"/>
			<point x="649" y="1571" type="curve" smooth="yes"/>
			<point x="537" y="1236"/>
			<point x="400" y="745"/>
			<point x="343" y="526" type="curve" smooth="yes"/>
			<point x="322" y="445"/>
			<point x="322" y="436"/>
			<point x="322" y="426" type="curve" smooth="yes"/>
			<point x="322" y="408"/>
			<point x="334" y="396"/>
		</contour>
		<contour>
			<point x="263" y="-12" type="curve" smooth="yes"/>
			<point x="314" y="-12"/>
			<point x="363" y="36"/>
			<point x="363" y="92" type="curve" smooth="yes"/>
			<point x="363" y="131"/>
			<point x="334" y="160"/>
			<point x="294" y="160" type="curve" smooth="yes"/>
			<point x="244" y="160"/>
			<point x="200" y="116"/>
			<point x="200" y="60" type="curve" smooth="yes"/>
			<point x="200" y="15"/>
			<point x="229" y="-12"/>
		</contour>
	</outline>
</glyph>
<glyph name="numbersign" format="2">
	<unicode hex="0023"/>
	<advance width="1200"/>
	<outline>
		<contour>
			<point x="192" y="-12" type="curve" smooth="yes"/>
			<point x="211" y="-12"/>
			<point x="222" y="-4"/>
			<point x="243" y="73" type="curve" smooth="yes"/>
			<point x="338" y="421" type="line"/>
			<point x="685" y="424" type="line"/>
			<point x="597" y="95" type="line" smooth="yes"/>
			<point x="581" y="36"/>
			<point x="581" y="27"/>
			<point x="581" y="19" type="curve" smooth="yes"/>
			<point x="581" y="-1"/>
			<point x="595" y="-12"/>
			<point x="614" y="-12" type="curve" smooth="yes"/>
			<point x="629" y="-12"/>
			<point x="644" y="1"/>
			<point x="659" y="56" type="curve" smooth="yes"/>
			<point x="758" y="425" type="line"/>
			<point x="958" y="430" type="line" smooth="yes"/>
			<point x="994" y="431"/>
			<point x="1011" y="442"/>
			<point x="1011" y="464" type="curve" smooth="yes"/>
			<point x="1011" y="481"/>
			<point x="998" y="494"/>
			<point x="953" y="494" type="curve" smooth="yes"/>
			<point x="777" y="494" type="line"/>
			<point x="890" y="914" type="line"/>
			<point x="1056" y="918" type="line" smooth="yes"/>
			<point x="1098" y="919"/>
			<point x="1120" y="931"/>
			<point x="1120" y="953" type="curve" smooth="yes"/>
			<point x="1120" y="970"/>
			<point x="1105" y="983"/>
			<point x="1062" y="983" type="curve" smooth="yes"/>
			<point x="909" y="983" type="line"/>
			<point x="978" y="1242" type="line" smooth="yes"/>
			<point x="1001" y="1328"/>
			<point x="1001" y="1338"/>
			<point x="1001" y="1346" type="curve" smooth="yes"/>
			<point x="1001" y="1362"/>
			<point x="985" y="1375"/>
			<point x="966" y="1375" type="curve" smooth="yes"/>
			<point x="945" y="1375"/>
			<point x="937" y="1369"/>
			<point x="923" y="1317" type="curve" smooth="yes"/>
			<point x="834" y="984" type="line"/>
			<point x="491" y="984" type="line"/>
			<point x="565" y="1262" type="line" smooth="yes"/>
			<point x="582" y="1326"/>
			<point x="582" y="1337"/>
			<point x="582" y="1344" type="curve" smooth="yes"/>
			<point x="582" y="1361"/>
			<point x="567" y="1375"/>
			<point x="549" y="1375" type="curve" smooth="yes"/>
			<point x="533" y="1375"/>
			<point x="519" y="1364"/>
			<point x="511" y="1333" type="curve" smooth="yes"/>
			<point x="417" y="985" type="line"/>
			<point x="226" y="985" type="line" smooth="yes"/>
			<point x="197" y="985"/>
			<point x="181" y="968"/>
			<point x="181" y="947" type="curve" smooth="yes"/>
			<point x="181" y="926"/>
			<point x="197" y="910"/>
			<point x="226" y="910" type="curve" smooth="yes"/>
			<point x="397" y="910" type="line"/>
			<point x="285" y="496" type="line"/>
			<point x="127" y="496" type="line" smooth="yes"/>
			<point x="98" y="496"/>
			<point x="82" y="479"/>
			<point x="82" y="458" type="curve" smooth="yes"/>
			<point x="82" y="437"/>
			<point x="98" y="421"/>
			<point x="127" y="421" type="curve" smooth="yes"/>
			<point x="265" y="421" type="line"/>
			<point x="183" y="116" type="line" smooth="yes"/>
			<point x="163" y="40"/>
			<point x="162" y="32"/>
			<point x="162" y="25" type="curve" smooth="yes"/>
			<point x="162" y="1"/>
			<point x="177" y="-12"/>
		</contour>
		<contour>
			<point x="358" y="496" type="line"/>
			<point x="471" y="911" type="line"/>
			<point x="815" y="913" type="line"/>
			<point x="704" y="494" type="line"/>
		</contour>
	</outline>
</glyph>
<glyph name="dollar" format="2">
	<advance width="1200"/>
	<unicode hex="0024"/>
	<anchor x="554" y="0" name="bottom"/>
	<anchor x="796" y="1600" name="top"/>
	<outline>
		<contour>
			<point x="358" y="-206" type="curve" smooth="yes"/>
			<point x="378" y="-206"/>
			<point x="390" y="-192"/>
			<point x="394" y="-179" type="curve" smooth="yes"/>
			<point x="893" y="1690" type="line" smooth="yes"/>
			<point x="894" y="1695"/>
			<point x="895" y="1702"/>
			<point x="895" y="1706" type="curve" smooth="yes"/>
			<point x="895" y="1726"/>
			<point x="877" y="1740"/>
			<point x="857" y="1740" type="curve" smooth="yes"/>
			<point x="840" y="1740"/>
			<point x="826" y="1728"/>
			<point x="822" y="1713" type="curve" smooth="yes"/>
			<point x="322" y="-156" type="line" smooth="yes"/>
			<point x="321" y="-161"/>
			<point x="320" y="-167"/>
			<point x="320" y="-171" type="curve" smooth="yes"/>
			<point x="320" y="-191"/>
			<point x="338" y="-206"/>
		</contour>
		<contour>
			<point x="110" y="85" type="curve" smooth="yes"/>
			<point x="110" y="75"/>
			<point x="118" y="63"/>
			<point x="136" y="54" type="curve" smooth="yes"/>
			<point x="208" y="18"/>
			<point x="333" y="-7"/>
			<point x="459" y="-7" type="curve" smooth="yes"/>
			<point x="707" y="-7"/>
			<point x="934" y="148"/>
			<point x="934" y="413" type="curve" smooth="yes"/>
			<point x="934" y="573"/>
			<point x="870" y="704"/>
			<point x="658" y="860" type="curve"/>
			<point x="615" y="882" type="line"/>
			<point x="461" y="989"/>
			<point x="408" y="1100"/>
			<point x="408" y="1218" type="curve" smooth="yes"/>
			<point x="408" y="1424"/>
			<point x="567" y="1550"/>
			<point x="779" y="1550" type="curve" smooth="yes"/>
			<point x="872" y="1550"/>
			<point x="958" y="1524"/>
			<point x="1012" y="1499" type="curve" smooth="yes"/>
			<point x="1038" y="1487"/>
			<point x="1049" y="1486"/>
			<point x="1057" y="1486" type="curve" smooth="yes"/>
			<point x="1073" y="1486"/>
			<point x="1085" y="1501"/>
			<point x="1085" y="1516" type="curve" smooth="yes"/>
			<point x="1085" y="1533"/>
			<point x="1069" y="1551"/>
			<point x="1005" y="1581" type="curve" smooth="yes"/>
			<point x="945" y="1609"/>
			<point x="867" y="1625"/>
			<point x="790" y="1625" type="curve" smooth="yes"/>
			<point x="515" y="1625"/>
			<point x="328" y="1459"/>
			<point x="328" y="1211" type="curve" smooth="yes"/>
			<point x="328" y="1070"/>
			<point x="394" y="939"/>
			<point x="589" y="793" type="curve"/>
			<point x="632" y="773" type="line"/>
			<point x="803" y="655"/>
			<point x="857" y="542"/>
			<point x="857" y="409" type="curve" smooth="yes"/>
			<point x="857" y="188"/>
			<point x="667" y="68"/>
			<point x="469" y="68" type="curve" smooth="yes"/>
			<point x="351" y="68"/>
			<point x="283" y="82"/>
			<point x="193" y="113" type="curve" smooth="yes"/>
			<point x="178" y="118"/>
			<point x="162" y="123"/>
			<point x="143" y="123" type="curve" smooth="yes"/>
			<point x="121" y="123"/>
			<point x="110" y="102"/>
		</contour>
	</outline>
</glyph>
<glyph name="percent" format="2">
	<advance width="1630"/>
	<unicode hex="0025"/>
	<outline>
		<contour>
			<point x="397" y="904" type="curve" smooth="yes"/>
			<point x="592" y="904"/>
			<point x="771" y="1148"/>
			<point x="771" y="1362" type="curve" smooth="yes"/>
			<point x="771" y="1501"/>
			<point x="696" y="1570"/>
			<point x="592" y="1570" type="curve" smooth="yes"/>
			<point x="397" y="1570"/>
			<point x="219" y="1325"/>
			<point x="219" y="1111" type="curve" smooth="yes"/>
			<point x="219" y="973"/>
			<point x="293" y="904"/>
		</contour>
		<contour>
			<point x="409" y="976" type="curve" smooth="yes"/>
			<point x="345" y="976"/>
			<point x="294" y="1014"/>
			<point x="294" y="1121" type="curve" smooth="yes"/>
			<point x="294" y="1298"/>
			<point x="436" y="1498"/>
			<point x="582" y="1498" type="curve" smooth="yes"/>
			<point x="645" y="1498"/>
			<point x="696" y="1460"/>
			<point x="696" y="1354" type="curve" smooth="yes"/>
			<point x="696" y="1178"/>
			<point x="555" y="976"/>
		</contour>
		<contour>
			<point x="238" y="-12" type="curve" smooth="yes"/>
			<point x="252" y="-12"/>
			<point x="262" y="-4"/>
			<point x="290" y="34" type="curve" smooth="yes"/>
			<point x="1424" y="1541" type="line" smooth="yes"/>
			<point x="1448" y="1573"/>
			<point x="1450" y="1579"/>
			<point x="1450" y="1587" type="curve" smooth="yes"/>
			<point x="1450" y="1608"/>
			<point x="1433" y="1625"/>
			<point x="1412" y="1625" type="curve" smooth="yes"/>
			<point x="1398" y="1625"/>
			<point x="1388" y="1617"/>
			<point x="1365" y="1587" type="curve" smooth="yes"/>
			<point x="244" y="95" type="line" smooth="yes"/>
			<point x="202" y="40"/>
			<point x="202" y="32"/>
			<point x="202" y="24" type="curve" smooth="yes"/>
			<point x="202" y="3"/>
			<point x="217" y="-12"/>
		</contour>
		<contour>
			<point x="1058" y="30" type="curve" smooth="yes"/>
			<point x="1253" y="30"/>
			<point x="1432" y="274"/>
			<point x="1432" y="488" type="curve" smooth="yes"/>
			<point x="1432" y="627"/>
			<point x="1357" y="696"/>
			<point x="1253" y="696" type="curve" smooth="yes"/>
			<point x="1058" y="696"/>
			<point x="880" y="451"/>
			<point x="880" y="237" type="curve" smooth="yes"/>
			<point x="880" y="99"/>
			<point x="954" y="30"/>
		</contour>
		<contour>
			<point x="1070" y="102" type="curve" smooth="yes"/>
			<point x="1006" y="102"/>
			<point x="955" y="140"/>
			<point x="955" y="247" type="curve" smooth="yes"/>
			<point x="955" y="424"/>
			<point x="1097" y="624"/>
			<point x="1243" y="624" type="curve" smooth="yes"/>
			<point x="1306" y="624"/>
			<point x="1357" y="586"/>
			<point x="1357" y="480" type="curve" smooth="yes"/>
			<point x="1357" y="304"/>
			<point x="1216" y="102"/>
		</contour>
	</outline>
</glyph>
<glyph name="ampersand" format="2">
	<advance width="1615"/>
	<unicode hex="0026"/>
	<outline>
		<contour>
			<point x="645" y="790"/>
			<point x="563" y="927"/>
			<point x="563" y="1132" type="curve" smooth="yes"/>
			<point x="563" y="1398"/>
			<point x="717" y="1550"/>
			<point x="893" y="1550" type="curve" smooth="yes"/>
			<point x="1008" y="1550"/>
			<point x="1087" y="1486"/>
			<point x="1087" y="1352" type="curve" smooth="yes"/>
			<point x="1087" y="1237"/>
			<point x="1029" y="1123"/>
			<point x="701" y="919" type="curve" smooth="yes"/>
			<point x="328" y="687"/>
			<point x="220" y="474"/>
			<point x="220" y="293" type="curve" smooth="yes"/>
			<point x="220" y="80"/>
			<point x="371" y="-12"/>
			<point x="546" y="-12" type="curve" smooth="yes"/>
			<point x="845" y="-12"/>
			<point x="1090" y="255"/>
			<point x="1208" y="497" type="curve" smooth="yes"/>
			<point x="1236" y="555"/>
			<point x="1245" y="586"/>
			<point x="1245" y="604" type="curve" smooth="yes"/>
			<point x="1245" y="619"/>
			<point x="1238" y="630"/>
			<point x="1222" y="630" type="curve" smooth="yes"/>
			<point x="1205" y="630"/>
			<point x="1193" y="618"/>
			<point x="1173" y="575" type="curve" smooth="yes"/>
			<point x="1045" y="298"/>
			<point x="827" y="63"/>
			<point x="553" y="63" type="curve" smooth="yes"/>
			<point x="385" y="63"/>
			<point x="300" y="151"/>
			<point x="300" y="306" type="curve" smooth="yes"/>
			<point x="300" y="461"/>
			<point x="384" y="636"/>
			<point x="746" y="865" type="curve" smooth="yes"/>
			<point x="1085" y="1080"/>
			<point x="1167" y="1215"/>
			<point x="1167" y="1362" type="curve" smooth="yes"/>
			<point x="1167" y="1508"/>
			<point x="1082" y="1625"/>
			<point x="899" y="1625" type="curve" smooth="yes"/>
			<point x="643" y="1625"/>
			<point x="483" y="1395"/>
			<point x="483" y="1143" type="curve" smooth="yes"/>
			<point x="483" y="911"/>
			<point x="586" y="735"/>
			<point x="925" y="445" type="curve" smooth="yes"/>
			<point x="1193" y="216"/>
			<point x="1313" y="107"/>
			<point x="1394" y="-5" type="curve" smooth="yes"/>
			<point x="1441" y="-71"/>
			<point x="1448" y="-80"/>
			<point x="1463" y="-80" type="curve" smooth="yes"/>
			<point x="1481" y="-80"/>
			<point x="1495" y="-68"/>
			<point x="1495" y="-51" type="curve" smooth="yes"/>
			<point x="1495" y="-42"/>
			<point x="1490" y="-21"/>
			<point x="1447" y="38" type="curve" smooth="yes"/>
			<point x="1375" y="136"/>
			<point x="1225" y="286"/>
			<point x="975" y="503" type="curve" smooth="yes"/>
		</contour>
	</outline>
</glyph>
<glyph name="quotesingle" format="2">
	<advance width="530"/>
	<unicode hex="0027"/>
	<outline>
		<contour>
			<point x="345" y="1112" type="curve" smooth="yes"/>
			<point x="364" y="1112"/>
			<point x="377" y="1133"/>
			<point x="392" y="1182" type="curve" smooth="yes"/>
			<point x="419" y="1273"/>
			<point x="460" y="1401"/>
			<point x="487" y="1483" type="curve" smooth="yes"/>
			<point x="504" y="1535"/>
			<point x="510" y="1555"/>
			<point x="510" y="1575" type="curve" smooth="yes"/>
			<point x="510" y="1590"/>
			<point x="493" y="1600"/>
			<point x="472" y="1600" type="curve" smooth="yes"/>
			<point x="449" y="1600"/>
			<point x="429" y="1575"/>
			<point x="372" y="1365" type="curve" smooth="yes"/>
			<point x="342" y="1255"/>
			<point x="325" y="1164"/>
			<point x="325" y="1140" type="curve" smooth="yes"/>
			<point x="325" y="1124"/>
			<point x="330" y="1112"/>
		</contour>
	</outline>
</glyph>
<glyph name="parenleft" format="2">
	<advance width="770"/>
	<unicode hex="0028"/>
	<outline>
		<contour>
			<point x="377" y="-305" type="curve" smooth="yes"/>
			<point x="392" y="-305"/>
			<point x="404" y="-293"/>
			<point x="404" y="-281" type="curve" smooth="yes"/>
			<point x="404" y="-272"/>
			<point x="401" y="-266"/>
			<point x="391" y="-251" type="curve" smooth="yes"/>
			<point x="381" y="-236"/>
			<point x="372" y="-221"/>
			<point x="364" y="-205" type="curve" smooth="yes"/>
			<point x="263" y="-13"/>
			<point x="225" y="150"/>
			<point x="225" y="400" type="curve" smooth="yes"/>
			<point x="225" y="765"/>
			<point x="425" y="1211"/>
			<point x="698" y="1490" type="curve" smooth="yes"/>
			<point x="761" y="1555"/>
			<point x="790" y="1585"/>
			<point x="790" y="1599" type="curve" smooth="yes"/>
			<point x="790" y="1616"/>
			<point x="772" y="1625"/>
			<point x="754" y="1625" type="curve" smooth="yes"/>
			<point x="724" y="1625"/>
			<point x="696" y="1614"/>
			<point x="611" y="1525" type="curve" smooth="yes"/>
			<point x="331" y="1231"/>
			<point x="150" y="791"/>
			<point x="150" y="386" type="curve" smooth="yes"/>
			<point x="150" y="102"/>
			<point x="227" y="-89"/>
			<point x="305" y="-223" type="curve" smooth="yes"/>
			<point x="339" y="-282"/>
			<point x="362" y="-305"/>
		</contour>
	</outline>
</glyph>
<glyph name="parenright" format="2">
	<advance width="770"/>
	<unicode hex="0029"/>
	<outline>
		<contour>
			<point x="393" y="1625" type="curve" smooth="yes"/>
			<point x="378" y="1625"/>
			<point x="366" y="1613"/>
			<point x="366" y="1601" type="curve" smooth="yes"/>
			<point x="366" y="1592"/>
			<point x="369" y="1586"/>
			<point x="379" y="1571" type="curve" smooth="yes"/>
			<point x="389" y="1556"/>
			<point x="398" y="1541"/>
			<point x="406" y="1525" type="curve" smooth="yes"/>
			<point x="507" y="1333"/>
			<point x="545" y="1170"/>
			<point x="545" y="920" type="curve" smooth="yes"/>
			<point x="545" y="555"/>
			<point x="345" y="109"/>
			<point x="72" y="-170" type="curve" smooth="yes"/>
			<point x="9" y="-235"/>
			<point x="-20" y="-265"/>
			<point x="-20" y="-279" type="curve" smooth="yes"/>
			<point x="-20" y="-296"/>
			<point x="-2" y="-305"/>
			<point x="16" y="-305" type="curve" smooth="yes"/>
			<point x="46" y="-305"/>
			<point x="74" y="-294"/>
			<point x="159" y="-205" type="curve" smooth="yes"/>
			<point x="439" y="89"/>
			<point x="620" y="529"/>
			<point x="620" y="934" type="curve" smooth="yes"/>
			<point x="620" y="1218"/>
			<point x="543" y="1409"/>
			<point x="465" y="1543" type="curve" smooth="yes"/>
			<point x="431" y="1602"/>
			<point x="408" y="1625"/>
		</contour>
	</outline>
</glyph>
<glyph name="asterisk" format="2">
	<advance width="904"/>
	<unicode hex="002A"/>
	<outline>
		<contour>
			<point x="357" y="1575" type="curve" smooth="yes"/>
			<point x="348" y="1594"/>
			<point x="335" y="1604"/>
			<point x="321" y="1604" type="curve" smooth="yes"/>
			<point x="307" y="1604"/>
			<point x="287" y="1593"/>
			<point x="287" y="1569" type="curve" smooth="yes"/>
			<point x="287" y="1562"/>
			<point x="288" y="1554"/>
			<point x="291" y="1547" type="curve" smooth="yes"/>
			<point x="388" y="1344"/>
			<point x="476" y="1134"/>
			<point x="521" y="1001" type="curve" smooth="yes"/>
			<point x="535" y="962"/>
			<point x="549" y="948"/>
			<point x="562" y="948" type="curve" smooth="yes"/>
			<point x="571" y="948"/>
			<point x="586" y="957"/>
			<point x="586" y="982" type="curve" smooth="yes"/>
			<point x="586" y="991"/>
			<point x="583" y="1003"/>
			<point x="578" y="1018" type="curve" smooth="yes"/>
			<point x="527" y="1181"/>
			<point x="443" y="1389"/>
		</contour>
		<contour>
			<point x="613" y="1463" type="curve" smooth="yes"/>
			<point x="648" y="1512"/>
			<point x="651" y="1522"/>
			<point x="651" y="1531" type="curve" smooth="yes"/>
			<point x="651" y="1551"/>
			<point x="633" y="1564"/>
			<point x="616" y="1564" type="curve" smooth="yes"/>
			<point x="605" y="1564"/>
			<point x="593" y="1558"/>
			<point x="561" y="1511" type="curve" smooth="yes"/>
			<point x="463" y="1363"/>
			<point x="342" y="1208"/>
			<point x="243" y="1094" type="curve" smooth="yes"/>
			<point x="224" y="1070"/>
			<point x="216" y="1054"/>
			<point x="216" y="1041" type="curve" smooth="yes"/>
			<point x="216" y="1027"/>
			<point x="230" y="1019"/>
			<point x="242" y="1019" type="curve" smooth="yes"/>
			<point x="255" y="1019"/>
			<point x="271" y="1028"/>
			<point x="289" y="1049" type="curve" smooth="yes"/>
			<point x="394" y="1168"/>
			<point x="527" y="1345"/>
		</contour>
		<contour>
			<point x="195" y="1366" type="curve" smooth="yes"/>
			<point x="161" y="1371"/>
			<point x="143" y="1373"/>
			<point x="136" y="1373" type="curve" smooth="yes"/>
			<point x="114" y="1373"/>
			<point x="100" y="1359"/>
			<point x="100" y="1338" type="curve" smooth="yes"/>
			<point x="100" y="1321"/>
			<point x="112" y="1305"/>
			<point x="137" y="1303" type="curve" smooth="yes"/>
			<point x="346" y="1276"/>
			<point x="594" y="1235"/>
			<point x="716" y="1210" type="curve" smooth="yes"/>
			<point x="747" y="1203"/>
			<point x="758" y="1200"/>
			<point x="774" y="1200" type="curve" smooth="yes"/>
			<point x="796" y="1200"/>
			<point x="804" y="1210"/>
			<point x="804" y="1223" type="curve" smooth="yes"/>
			<point x="804" y="1241"/>
			<point x="789" y="1255"/>
			<point x="719" y="1270" type="curve" smooth="yes"/>
			<point x="585" y="1301"/>
			<point x="352" y="1346"/>
		</contour>
	</outline>
</glyph>
<glyph name="plus" format="2">
	<unicode hex="002B"/>
	<advance width="1200"/>
	<outline>
		<contour>
			<point x="236" y="783" type="curve" smooth="yes"/>
			<point x="480" y="783"/>
			<point x="773" y="783"/>
			<point x="965" y="792" type="curve" smooth="yes"/>
			<point x="1026" y="795"/>
			<point x="1042" y="812"/>
			<point x="1042" y="834" type="curve" smooth="yes"/>
			<point x="1042" y="851"/>
			<point x="1030" y="861"/>
			<point x="994" y="861" type="curve" smooth="yes"/>
			<point x="804" y="859"/>
			<point x="484" y="858"/>
			<point x="236" y="858" type="curve" smooth="yes"/>
			<point x="196" y="858"/>
			<point x="185" y="841"/>
			<point x="185" y="820" type="curve" smooth="yes"/>
			<point x="185" y="799"/>
			<point x="196" y="783"/>
		</contour>
		<contour>
			<point x="499" y="361" type="curve" smooth="yes"/>
			<point x="519" y="361"/>
			<point x="532" y="374"/>
			<point x="536" y="389" type="curve" smooth="yes"/>
			<point x="744" y="1237" type="line" smooth="yes"/>
			<point x="745" y="1240"/>
			<point x="745" y="1245"/>
			<point x="745" y="1249" type="curve" smooth="yes"/>
			<point x="745" y="1252"/>
			<point x="745" y="1255"/>
			<point x="744" y="1258" type="curve" smooth="yes"/>
			<point x="739" y="1274"/>
			<point x="724" y="1286"/>
			<point x="708" y="1286" type="curve" smooth="yes"/>
			<point x="690" y="1286"/>
			<point x="675" y="1272"/>
			<point x="671" y="1257" type="curve" smooth="yes"/>
			<point x="464" y="410" type="line" smooth="yes"/>
			<point x="463" y="406"/>
			<point x="463" y="402"/>
			<point x="463" y="397" type="curve" smooth="yes"/>
			<point x="463" y="394"/>
			<point x="463" y="392"/>
			<point x="464" y="389" type="curve" smooth="yes"/>
			<point x="468" y="373"/>
			<point x="483" y="361"/>
		</contour>
	</outline>
</glyph>
<glyph name="comma" format="2">
	<advance width="633"/>
	<unicode hex="002C"/>
	<outline>
		<contour>
			<point x="34" y="-372" type="curve" smooth="yes"/>
			<point x="48" y="-372"/>
			<point x="62" y="-365"/>
			<point x="93" y="-326" type="curve" smooth="yes"/>
			<point x="243" y="-137"/>
			<point x="296" y="34"/>
			<point x="296" y="203" type="curve" smooth="yes"/>
			<point x="296" y="246"/>
			<point x="279" y="256"/>
			<point x="256" y="256" type="curve" smooth="yes"/>
			<point x="233" y="256"/>
			<point x="219" y="246"/>
			<point x="216" y="208" type="curve" smooth="yes"/>
			<point x="205" y="42"/>
			<point x="166" y="-130"/>
			<point x="29" y="-307" type="curve" smooth="yes"/>
			<point x="14" y="-326"/>
			<point x="10" y="-338"/>
			<point x="10" y="-345" type="curve" smooth="yes"/>
			<point x="10" y="-362"/>
			<point x="19" y="-372"/>
		</contour>
	</outline>
</glyph>
<glyph name="hyphen" format="2">
	<advance width="931"/>
	<unicode hex="002D"/>
	<outline>
		<contour>
			<point x="195" y="649" type="curve" smooth="yes"/>
			<point x="372" y="649"/>
			<point x="575" y="657"/>
			<point x="700" y="669" type="curve" smooth="yes"/>
			<point x="763" y="675"/>
			<point x="781" y="688"/>
			<point x="781" y="710" type="curve" smooth="yes"/>
			<point x="781" y="725"/>
			<point x="768" y="738"/>
			<point x="743" y="738" type="curve" smooth="yes"/>
			<point x="724" y="738"/>
			<point x="697" y="737"/>
			<point x="642" y="733" type="curve" smooth="yes"/>
			<point x="566" y="728"/>
			<point x="373" y="724"/>
			<point x="195" y="724" type="curve" smooth="yes"/>
			<point x="166" y="724"/>
			<point x="150" y="707"/>
			<point x="150" y="686" type="curve" smooth="yes"/>
			<point x="150" y="665"/>
			<point x="166" y="649"/>
		</contour>
	</outline>
</glyph>
<glyph name="period" format="2">
	<unicode hex="002E"/>
	<advance width="563"/>
	<outline>
		<contour>
			<point x="223" y="-12" type="curve" smooth="yes"/>
			<point x="274" y="-12"/>
			<point x="323" y="36"/>
			<point x="323" y="92" type="curve" smooth="yes"/>
			<point x="323" y="131"/>
			<point x="294" y="160"/>
			<point x="254" y="160" type="curve" smooth="yes"/>
			<point x="204" y="160"/>
			<point x="160" y="116"/>
			<point x="160" y="60" type="curve" smooth="yes"/>
			<point x="160" y="15"/>
			<point x="189" y="-12"/>
		</contour>
	</outline>
	<anchor name="_top" x="157" y="-214"/>
	<anchor name="top" x="239" y="129"/>
</glyph>
<glyph name="slash" format="2">
	<advance width="1016"/>
	<unicode hex="002F"/>
	<outline>
		<contour>
			<point x="88" y="-112" type="curve" smooth="yes"/>
			<point x="102" y="-112"/>
			<point x="114" y="-104"/>
			<point x="120" y="-93" type="curve" smooth="yes"/>
			<point x="1080" y="1599" type="line" smooth="yes"/>
			<point x="1083" y="1605"/>
			<point x="1086" y="1612"/>
			<point x="1086" y="1619" type="curve" smooth="yes"/>
			<point x="1086" y="1640"/>
			<point x="1069" y="1657"/>
			<point x="1048" y="1657" type="curve" smooth="yes"/>
			<point x="1034" y="1657"/>
			<point x="1022" y="1649"/>
			<point x="1016" y="1638" type="curve" smooth="yes"/>
			<point x="56" y="-54" type="line" smooth="yes"/>
			<point x="53" y="-60"/>
			<point x="50" y="-67"/>
			<point x="50" y="-74" type="curve" smooth="yes"/>
			<point x="50" y="-95"/>
			<point x="67" y="-112"/>
		</contour>
	</outline>
</glyph>
<glyph name="zero" format="2">
	<unicode hex="0030"/>
	<advance width="1189"/>
	<outline>
		<contour>
			<point x="409" y="-12" type="curve" smooth="yes"/>
			<point x="749" y="-12"/>
			<point x="1094" y="564"/>
			<point x="1094" y="1168" type="curve" smooth="yes"/>
			<point x="1094" y="1468"/>
			<point x="990" y="1614"/>
			<point x="830" y="1614" type="curve" smooth="yes"/>
			<point x="490" y="1614"/>
			<point x="145" y="1038"/>
			<point x="145" y="434" type="curve" smooth="yes"/>
			<point x="145" y="134"/>
			<point x="249" y="-12"/>
		</contour>
		<contour>
			<point x="419" y="66" type="curve" smooth="yes"/>
			<point x="307" y="66"/>
			<point x="227" y="179"/>
			<point x="227" y="434" type="curve" smooth="yes"/>
			<point x="227" y="990"/>
			<point x="550" y="1536"/>
			<point x="820" y="1536" type="curve" smooth="yes"/>
			<point x="932" y="1536"/>
			<point x="1012" y="1423"/>
			<point x="1012" y="1168" type="curve" smooth="yes"/>
			<point x="1012" y="612"/>
			<point x="689" y="66"/>
		</contour>
	</outline>
</glyph>
<glyph name="one" format="2">
	<advance width="890"/>
	<unicode hex="0031"/>
	<outline>
		<contour>
			<point x="386" y="-12" type="curve" smooth="yes"/>
			<point x="406" y="-12"/>
			<point x="416" y="-2"/>
			<point x="424" y="32" type="curve" smooth="yes"/>
			<point x="545" y="546"/>
			<point x="676" y="1039"/>
			<point x="804" y="1466" type="curve" smooth="yes"/>
			<point x="823" y="1530"/>
			<point x="830" y="1556"/>
			<point x="830" y="1574" type="curve" smooth="yes"/>
			<point x="830" y="1593"/>
			<point x="820" y="1607"/>
			<point x="797" y="1607" type="curve" smooth="yes"/>
			<point x="785" y="1607"/>
			<point x="774" y="1601"/>
			<point x="754" y="1588" type="curve" smooth="yes"/>
			<point x="628" y="1507"/>
			<point x="436" y="1402"/>
			<point x="215" y="1297" type="curve" smooth="yes"/>
			<point x="181" y="1281"/>
			<point x="176" y="1270"/>
			<point x="176" y="1259" type="curve" smooth="yes"/>
			<point x="176" y="1239"/>
			<point x="191" y="1221"/>
			<point x="210" y="1221" type="curve" smooth="yes"/>
			<point x="221" y="1221"/>
			<point x="232" y="1223"/>
			<point x="272" y="1242" type="curve" smooth="yes"/>
			<point x="472" y="1337"/>
			<point x="650" y="1434"/>
			<point x="777" y="1516" type="curve"/>
			<point x="746" y="1534" type="line"/>
			<point x="608" y="1068"/>
			<point x="476" y="592"/>
			<point x="353" y="86" type="curve" smooth="yes"/>
			<point x="344" y="48"/>
			<point x="341" y="35"/>
			<point x="341" y="21" type="curve" smooth="yes"/>
			<point x="341" y="0"/>
			<point x="363" y="-12"/>
		</contour>
	</outline>
</glyph>
<glyph name="two" format="2">
	<unicode hex="0032"/>
	<advance width="1169"/>
	<outline>
		<contour>
			<point x="698" y="-7" type="curve" smooth="yes"/>
			<point x="826" y="-7"/>
			<point x="910" y="58"/>
			<point x="962" y="113" type="curve" smooth="yes"/>
			<point x="984" y="136"/>
			<point x="991" y="150"/>
			<point x="991" y="161" type="curve" smooth="yes"/>
			<point x="991" y="178"/>
			<point x="975" y="188"/>
			<point x="963" y="188" type="curve" smooth="yes"/>
			<point x="950" y="188"/>
			<point x="936" y="177"/>
			<point x="916" y="158" type="curve" smooth="yes"/>
			<point x="860" y="105"/>
			<point x="785" y="68"/>
			<point x="713" y="68" type="curve" smooth="yes"/>
			<point x="613" y="68"/>
			<point x="535" y="108"/>
			<point x="458" y="148" type="curve" smooth="yes"/>
			<point x="381" y="188"/>
			<point x="304" y="228"/>
			<point x="203" y="228" type="curve" smooth="yes"/>
			<point x="86" y="228"/>
			<point x="20" y="157"/>
			<point x="20" y="83" type="curve" smooth="yes"/>
			<point x="20" y="31"/>
			<point x="58" y="-7"/>
			<point x="125" y="-7" type="curve" smooth="yes"/>
			<point x="362" y="-7"/>
			<point x="1054" y="759"/>
			<point x="1054" y="1251" type="curve" smooth="yes"/>
			<point x="1054" y="1483"/>
			<point x="918" y="1614"/>
			<point x="724" y="1614" type="curve" smooth="yes"/>
			<point x="530" y="1614"/>
			<point x="392" y="1502"/>
			<point x="301" y="1382" type="curve" smooth="yes"/>
			<point x="286" y="1362"/>
			<point x="277" y="1347"/>
			<point x="277" y="1334" type="curve" smooth="yes"/>
			<point x="277" y="1318"/>
			<point x="294" y="1298"/>
			<point x="314" y="1298" type="curve" smooth="yes"/>
			<point x="328" y="1298"/>
			<point x="338" y="1309"/>
			<point x="354" y="1329" type="curve" smooth="yes"/>
			<point x="434" y="1430"/>
			<point x="570" y="1534"/>
			<point x="712" y="1534" type="curve" smooth="yes"/>
			<point x="862" y="1534"/>
			<point x="972" y="1447"/>
			<point x="972" y="1233" type="curve" smooth="yes"/>
			<point x="972" y="803"/>
			<point x="318" y="63"/>
			<point x="130" y="63" type="curve" smooth="yes"/>
			<point x="105" y="63"/>
			<point x="90" y="74"/>
			<point x="90" y="95" type="curve" smooth="yes"/>
			<point x="90" y="130"/>
			<point x="133" y="163"/>
			<point x="205" y="163" type="curve" smooth="yes"/>
			<point x="284" y="163"/>
			<point x="355" y="125"/>
			<point x="429" y="84" type="curve" smooth="yes"/>
			<point x="510" y="39"/>
			<point x="594" y="-7"/>
		</contour>
	</outline>
</glyph>
<glyph name="three" format="2">
	<unicode hex="0033"/>
	<advance width="1156"/>
	<outline>
		<contour>
			<point x="431" y="-12" type="curve" smooth="yes"/>
			<point x="711" y="-12"/>
			<point x="920" y="193"/>
			<point x="920" y="475" type="curve" smooth="yes"/>
			<point x="920" y="669"/>
			<point x="810" y="812"/>
			<point x="639" y="864" type="curve"/>
			<point x="633" y="840" type="line"/>
			<point x="873" y="914"/>
			<point x="1036" y="1099"/>
			<point x="1036" y="1298" type="curve" smooth="yes"/>
			<point x="1036" y="1487"/>
			<point x="895" y="1607"/>
			<point x="718" y="1607" type="curve" smooth="yes"/>
			<point x="571" y="1607"/>
			<point x="449" y="1549"/>
			<point x="355" y="1458" type="curve" smooth="yes"/>
			<point x="335" y="1438"/>
			<point x="331" y="1429"/>
			<point x="331" y="1418" type="curve" smooth="yes"/>
			<point x="331" y="1402"/>
			<point x="349" y="1385"/>
			<point x="365" y="1385" type="curve" smooth="yes"/>
			<point x="378" y="1385"/>
			<point x="391" y="1395"/>
			<point x="410" y="1412" type="curve" smooth="yes"/>
			<point x="487" y="1480"/>
			<point x="594" y="1529"/>
			<point x="703" y="1529" type="curve" smooth="yes"/>
			<point x="856" y="1529"/>
			<point x="956" y="1443"/>
			<point x="956" y="1282" type="curve" smooth="yes"/>
			<point x="956" y="1118"/>
			<point x="815" y="959"/>
			<point x="581" y="885" type="curve"/>
			<point x="551" y="890"/>
			<point x="515" y="896"/>
			<point x="484" y="896" type="curve" smooth="yes"/>
			<point x="449" y="896"/>
			<point x="424" y="874"/>
			<point x="424" y="843" type="curve" smooth="yes"/>
			<point x="424" y="809"/>
			<point x="440" y="797"/>
			<point x="465" y="797" type="curve" smooth="yes"/>
			<point x="493" y="797"/>
			<point x="530" y="803"/>
			<point x="573" y="813" type="curve"/>
			<point x="756" y="762"/>
			<point x="840" y="638"/>
			<point x="840" y="475" type="curve" smooth="yes"/>
			<point x="840" y="238"/>
			<point x="665" y="66"/>
			<point x="421" y="66" type="curve" smooth="yes"/>
			<point x="289" y="66"/>
			<point x="176" y="107"/>
			<point x="96" y="184" type="curve" smooth="yes"/>
			<point x="79" y="201"/>
			<point x="71" y="203"/>
			<point x="65" y="203" type="curve" smooth="yes"/>
			<point x="51" y="203"/>
			<point x="30" y="185"/>
			<point x="30" y="168" type="curve" smooth="yes"/>
			<point x="30" y="156"/>
			<point x="40" y="137"/>
			<point x="60" y="117" type="curve" smooth="yes"/>
			<point x="115" y="62"/>
			<point x="232" y="-12"/>
		</contour>
	</outline>
</glyph>
<glyph name="four" format="2">
	<unicode hex="0034"/>
	<advance width="1152"/>
	<outline>
		<contour>
			<point x="603" y="31" type="curve" smooth="yes"/>
			<point x="641" y="191"/>
			<point x="682" y="354"/>
			<point x="725" y="511" type="curve"/>
			<point x="1010" y="517" type="line" smooth="yes"/>
			<point x="1048" y="518"/>
			<point x="1062" y="535"/>
			<point x="1062" y="556" type="curve" smooth="yes"/>
			<point x="1062" y="579"/>
			<point x="1051" y="594"/>
			<point x="1008" y="594" type="curve" smooth="yes"/>
			<point x="969" y="594"/>
			<point x="835" y="590"/>
			<point x="746" y="587" type="curve"/>
			<point x="774" y="685"/>
			<point x="802" y="780"/>
			<point x="831" y="870" type="curve" smooth="yes"/>
			<point x="849" y="925"/>
			<point x="849" y="935"/>
			<point x="849" y="945" type="curve" smooth="yes"/>
			<point x="849" y="960"/>
			<point x="830" y="973"/>
			<point x="810" y="973" type="curve" smooth="yes"/>
			<point x="791" y="973"/>
			<point x="780" y="960"/>
			<point x="765" y="914" type="curve" smooth="yes"/>
			<point x="732" y="809"/>
			<point x="699" y="698"/>
			<point x="668" y="585" type="curve"/>
			<point x="172" y="578" type="line"/>
			<point x="360" y="891"/>
			<point x="544" y="1227"/>
			<point x="702" y="1534" type="curve" smooth="yes"/>
			<point x="720" y="1570"/>
			<point x="722" y="1578"/>
			<point x="722" y="1587" type="curve" smooth="yes"/>
			<point x="722" y="1605"/>
			<point x="704" y="1621"/>
			<point x="682" y="1621" type="curve" smooth="yes"/>
			<point x="668" y="1621"/>
			<point x="656" y="1611"/>
			<point x="639" y="1578" type="curve" smooth="yes"/>
			<point x="467" y="1244"/>
			<point x="283" y="903"/>
			<point x="128" y="645" type="curve" smooth="yes"/>
			<point x="98" y="596"/>
			<point x="92" y="577"/>
			<point x="92" y="559" type="curve" smooth="yes"/>
			<point x="92" y="524"/>
			<point x="119" y="507"/>
			<point x="165" y="507" type="curve" smooth="yes"/>
			<point x="304" y="507"/>
			<point x="486" y="508"/>
			<point x="647" y="510" type="curve"/>
			<point x="607" y="364"/>
			<point x="570" y="217"/>
			<point x="537" y="78" type="curve" smooth="yes"/>
			<point x="527" y="34"/>
			<point x="526" y="26"/>
			<point x="526" y="16" type="curve" smooth="yes"/>
			<point x="526" y="0"/>
			<point x="543" y="-12"/>
			<point x="564" y="-12" type="curve" smooth="yes"/>
			<point x="581" y="-12"/>
			<point x="596" y="0"/>
		</contour>
	</outline>
</glyph>
<glyph name="five" format="2">
	<advance width="1134"/>
	<unicode hex="0035"/>
	<outline>
		<contour>
			<point x="411" y="-12" type="curve" smooth="yes"/>
			<point x="722" y="-12"/>
			<point x="944" y="252"/>
			<point x="944" y="572" type="curve" smooth="yes"/>
			<point x="944" y="848"/>
			<point x="754" y="1000"/>
			<point x="517" y="1000" type="curve" smooth="yes"/>
			<point x="455" y="1000"/>
			<point x="389" y="990"/>
			<point x="346" y="978" type="curve"/>
			<point x="492" y="1529" type="line"/>
			<point x="560" y="1526"/>
			<point x="621" y="1524"/>
			<point x="699" y="1524" type="curve" smooth="yes"/>
			<point x="823" y="1524"/>
			<point x="983" y="1528"/>
			<point x="1036" y="1533" type="curve" smooth="yes"/>
			<point x="1092" y="1538"/>
			<point x="1104" y="1553"/>
			<point x="1104" y="1575" type="curve" smooth="yes"/>
			<point x="1104" y="1599"/>
			<point x="1089" y="1607"/>
			<point x="1058" y="1607" type="curve" smooth="yes"/>
			<point x="1049" y="1607"/>
			<point x="1030" y="1606"/>
			<point x="995" y="1604" type="curve" smooth="yes"/>
			<point x="940" y="1601"/>
			<point x="784" y="1598"/>
			<point x="697" y="1598" type="curve" smooth="yes"/>
			<point x="641" y="1598"/>
			<point x="589" y="1599"/>
			<point x="558" y="1600" type="curve" smooth="yes"/>
			<point x="532" y="1601"/>
			<point x="501" y="1602"/>
			<point x="486" y="1602" type="curve" smooth="yes"/>
			<point x="442" y="1602"/>
			<point x="430" y="1591"/>
			<point x="420" y="1552" type="curve" smooth="yes"/>
			<point x="274" y="994" type="line" smooth="yes"/>
			<point x="267" y="967"/>
			<point x="265" y="958"/>
			<point x="265" y="941" type="curve" smooth="yes"/>
			<point x="265" y="918"/>
			<point x="284" y="902"/>
			<point x="310" y="902" type="curve" smooth="yes"/>
			<point x="319" y="902"/>
			<point x="331" y="904"/>
			<point x="347" y="908" type="curve" smooth="yes"/>
			<point x="379" y="916"/>
			<point x="427" y="926"/>
			<point x="501" y="926" type="curve" smooth="yes"/>
			<point x="714" y="926"/>
			<point x="864" y="794"/>
			<point x="864" y="562" type="curve" smooth="yes"/>
			<point x="864" y="284"/>
			<point x="666" y="66"/>
			<point x="401" y="66" type="curve" smooth="yes"/>
			<point x="269" y="66"/>
			<point x="156" y="107"/>
			<point x="76" y="184" type="curve" smooth="yes"/>
			<point x="59" y="200"/>
			<point x="51" y="203"/>
			<point x="45" y="203" type="curve" smooth="yes"/>
			<point x="31" y="203"/>
			<point x="10" y="185"/>
			<point x="10" y="168" type="curve" smooth="yes"/>
			<point x="10" y="156"/>
			<point x="20" y="137"/>
			<point x="40" y="117" type="curve" smooth="yes"/>
			<point x="95" y="62"/>
			<point x="212" y="-12"/>
		</contour>
	</outline>
</glyph>
<glyph name="six" format="2">
	<unicode hex="0036"/>
	<advance width="1138"/>
	<outline>
		<contour>
			<point x="1002" y="1462" type="curve" smooth="yes"/>
			<point x="1020" y="1441"/>
			<point x="1028" y="1438"/>
			<point x="1038" y="1438" type="curve" smooth="yes"/>
			<point x="1056" y="1438"/>
			<point x="1073" y="1456"/>
			<point x="1073" y="1469" type="curve" smooth="yes"/>
			<point x="1073" y="1480"/>
			<point x="1069" y="1495"/>
			<point x="1044" y="1527" type="curve" smooth="yes"/>
			<point x="1001" y="1581"/>
			<point x="927" y="1620"/>
			<point x="842" y="1620" type="curve" smooth="yes"/>
			<point x="503" y="1620"/>
			<point x="150" y="1128"/>
			<point x="150" y="486" type="curve" smooth="yes"/>
			<point x="150" y="131"/>
			<point x="295" y="-12"/>
			<point x="475" y="-12" type="curve" smooth="yes"/>
			<point x="720" y="-12"/>
			<point x="981" y="292"/>
			<point x="981" y="645" type="curve" smooth="yes"/>
			<point x="981" y="846"/>
			<point x="881" y="978"/>
			<point x="703" y="978" type="curve" smooth="yes"/>
			<point x="520" y="978"/>
			<point x="344" y="850"/>
			<point x="184" y="635" type="curve"/>
			<point x="226" y="593" type="line"/>
			<point x="376" y="790"/>
			<point x="545" y="903"/>
			<point x="688" y="903" type="curve" smooth="yes"/>
			<point x="827" y="903"/>
			<point x="901" y="798"/>
			<point x="901" y="628" type="curve" smooth="yes"/>
			<point x="901" y="327"/>
			<point x="672" y="66"/>
			<point x="488" y="66" type="curve" smooth="yes"/>
			<point x="335" y="66"/>
			<point x="230" y="167"/>
			<point x="230" y="495" type="curve" smooth="yes"/>
			<point x="230" y="1082"/>
			<point x="556" y="1542"/>
			<point x="836" y="1542" type="curve" smooth="yes"/>
			<point x="902" y="1542"/>
			<point x="949" y="1523"/>
		</contour>
	</outline>
</glyph>
<glyph name="seven" format="2">
	<unicode hex="0037"/>
	<advance width="1128"/>
	<outline>
		<contour>
			<point x="188" y="-12" type="curve" smooth="yes"/>
			<point x="203" y="-12"/>
			<point x="216" y="-5"/>
			<point x="226" y="17" type="curve" smooth="yes"/>
			<point x="370" y="320"/>
			<point x="515" y="575"/>
			<point x="660" y="798" type="curve"/>
			<point x="747" y="800"/>
			<point x="820" y="802"/>
			<point x="880" y="808" type="curve" smooth="yes"/>
			<point x="943" y="814"/>
			<point x="956" y="828"/>
			<point x="956" y="851" type="curve" smooth="yes"/>
			<point x="956" y="861"/>
			<point x="946" y="873"/>
			<point x="925" y="873" type="curve" smooth="yes"/>
			<point x="915" y="873"/>
			<point x="903" y="873"/>
			<point x="834" y="870" type="curve" smooth="yes"/>
			<point x="785" y="868"/>
			<point x="731" y="867"/>
			<point x="705" y="867" type="curve"/>
			<point x="862" y="1101"/>
			<point x="1020" y="1302"/>
			<point x="1180" y="1492" type="curve" smooth="yes"/>
			<point x="1216" y="1535"/>
			<point x="1219" y="1548"/>
			<point x="1219" y="1560" type="curve" smooth="yes"/>
			<point x="1219" y="1585"/>
			<point x="1202" y="1603"/>
			<point x="1172" y="1603" type="curve" smooth="yes"/>
			<point x="1158" y="1603"/>
			<point x="1131" y="1602"/>
			<point x="1090" y="1599" type="curve" smooth="yes"/>
			<point x="1027" y="1595"/>
			<point x="910" y="1592"/>
			<point x="747" y="1592" type="curve" smooth="yes"/>
			<point x="616" y="1592"/>
			<point x="504" y="1594"/>
			<point x="438" y="1597" type="curve" smooth="yes"/>
			<point x="393" y="1599"/>
			<point x="357" y="1600"/>
			<point x="329" y="1600" type="curve" smooth="yes"/>
			<point x="296" y="1600"/>
			<point x="284" y="1587"/>
			<point x="284" y="1566" type="curve" smooth="yes"/>
			<point x="284" y="1544"/>
			<point x="303" y="1530"/>
			<point x="327" y="1528" type="curve" smooth="yes"/>
			<point x="397" y="1521"/>
			<point x="561" y="1518"/>
			<point x="717" y="1518" type="curve" smooth="yes"/>
			<point x="883" y="1518"/>
			<point x="1003" y="1523"/>
			<point x="1126" y="1531" type="curve"/>
			<point x="941" y="1316"/>
			<point x="776" y="1106"/>
			<point x="616" y="866" type="curve"/>
			<point x="581" y="866"/>
			<point x="485" y="867"/>
			<point x="439" y="869" type="curve" smooth="yes"/>
			<point x="389" y="871"/>
			<point x="329" y="873"/>
			<point x="307" y="873" type="curve" smooth="yes"/>
			<point x="278" y="873"/>
			<point x="270" y="856"/>
			<point x="270" y="839" type="curve" smooth="yes"/>
			<point x="270" y="823"/>
			<point x="283" y="810"/>
			<point x="308" y="806" type="curve" smooth="yes"/>
			<point x="340" y="801"/>
			<point x="420" y="798"/>
			<point x="571" y="798" type="curve"/>
			<point x="438" y="591"/>
			<point x="307" y="362"/>
			<point x="172" y="89" type="curve" smooth="yes"/>
			<point x="151" y="46"/>
			<point x="149" y="37"/>
			<point x="149" y="22" type="curve" smooth="yes"/>
			<point x="149" y="2"/>
			<point x="166" y="-12"/>
		</contour>
	</outline>
</glyph>
<glyph name="eight" format="2">
	<unicode hex="0038"/>
	<advance width="1191"/>
	<outline>
		<contour>
			<point x="178" y="341" type="curve" smooth="yes"/>
			<point x="178" y="509"/>
			<point x="301" y="684"/>
			<point x="616" y="832" type="curve"/>
			<point x="817" y="683"/>
			<point x="900" y="554"/>
			<point x="900" y="416" type="curve" smooth="yes"/>
			<point x="900" y="209"/>
			<point x="711" y="63"/>
			<point x="495" y="63" type="curve" smooth="yes"/>
			<point x="315" y="63"/>
			<point x="178" y="162"/>
		</contour>
		<contour>
			<point x="100" y="326" type="curve" smooth="yes"/>
			<point x="100" y="118"/>
			<point x="267" y="-12"/>
			<point x="487" y="-12" type="curve" smooth="yes"/>
			<point x="746" y="-12"/>
			<point x="975" y="154"/>
			<point x="975" y="423" type="curve" smooth="yes"/>
			<point x="975" y="580"/>
			<point x="893" y="713"/>
			<point x="694" y="867" type="curve"/>
			<point x="969" y="992"/>
			<point x="1111" y="1137"/>
			<point x="1111" y="1336" type="curve" smooth="yes"/>
			<point x="1111" y="1501"/>
			<point x="984" y="1625"/>
			<point x="790" y="1625" type="curve" smooth="yes"/>
			<point x="524" y="1625"/>
			<point x="356" y="1423"/>
			<point x="356" y="1222" type="curve" smooth="yes"/>
			<point x="356" y="1102"/>
			<point x="420" y="990"/>
			<point x="559" y="876" type="curve"/>
			<point x="220" y="717"/>
			<point x="100" y="527"/>
		</contour>
		<contour>
			<point x="429" y="1227" type="curve" smooth="yes"/>
			<point x="429" y="1419"/>
			<point x="601" y="1550"/>
			<point x="777" y="1550" type="curve" smooth="yes"/>
			<point x="924" y="1550"/>
			<point x="1036" y="1456"/>
			<point x="1036" y="1317" type="curve" smooth="yes"/>
			<point x="1036" y="1158"/>
			<point x="894" y="1024"/>
			<point x="637" y="911" type="curve"/>
			<point x="473" y="1038"/>
			<point x="429" y="1131"/>
		</contour>
	</outline>
</glyph>
<glyph name="nine" format="2">
	<advance width="1188"/>
	<unicode hex="0039"/>
	<outline>
		<contour>
			<point x="140" y="160" type="curve" smooth="yes"/>
			<point x="123" y="176"/>
			<point x="115" y="179"/>
			<point x="109" y="179" type="curve" smooth="yes"/>
			<point x="95" y="179"/>
			<point x="74" y="161"/>
			<point x="74" y="144" type="curve" smooth="yes"/>
			<point x="74" y="132"/>
			<point x="84" y="113"/>
			<point x="104" y="93" type="curve" smooth="yes"/>
			<point x="160" y="37"/>
			<point x="273" y="-12"/>
			<point x="381" y="-12" type="curve" smooth="yes"/>
			<point x="735" y="-12"/>
			<point x="1048" y="478"/>
			<point x="1048" y="1071" type="curve" smooth="yes"/>
			<point x="1048" y="1461"/>
			<point x="902" y="1615"/>
			<point x="701" y="1615" type="curve" smooth="yes"/>
			<point x="445" y="1615"/>
			<point x="218" y="1364"/>
			<point x="218" y="1050" type="curve" smooth="yes"/>
			<point x="218" y="800"/>
			<point x="361" y="655"/>
			<point x="571" y="655" type="curve" smooth="yes"/>
			<point x="737" y="655"/>
			<point x="887" y="745"/>
			<point x="1010" y="913" type="curve"/>
			<point x="971" y="959" type="line"/>
			<point x="854" y="807"/>
			<point x="722" y="730"/>
			<point x="575" y="730" type="curve" smooth="yes"/>
			<point x="402" y="730"/>
			<point x="298" y="843"/>
			<point x="298" y="1049" type="curve" smooth="yes"/>
			<point x="298" y="1327"/>
			<point x="488" y="1537"/>
			<point x="693" y="1537" type="curve" smooth="yes"/>
			<point x="851" y="1537"/>
			<point x="967" y="1413"/>
			<point x="967" y="1073" type="curve" smooth="yes"/>
			<point x="967" y="523"/>
			<point x="680" y="66"/>
			<point x="382" y="66" type="curve" smooth="yes"/>
			<point x="303" y="66"/>
			<point x="206" y="98"/>
		</contour>
	</outline>
</glyph>
<glyph name="less" format="2">
	<unicode hex="003C"/>
	<advance width="1200"/>
	<outline>
		<contour>
			<point x="882" y="329" type="curve" smooth="yes"/>
			<point x="904" y="329"/>
			<point x="917" y="348"/>
			<point x="917" y="362" type="curve" smooth="yes"/>
			<point x="917" y="377"/>
			<point x="904" y="387"/>
			<point x="871" y="409" type="curve" smooth="yes"/>
			<point x="353" y="760" type="line" smooth="yes"/>
			<point x="323" y="780"/>
			<point x="316" y="786"/>
			<point x="316" y="793" type="curve" smooth="yes"/>
			<point x="316" y="799"/>
			<point x="324" y="806"/>
			<point x="368" y="827" type="curve" smooth="yes"/>
			<point x="1068" y="1166" type="line" smooth="yes"/>
			<point x="1100" y="1182"/>
			<point x="1110" y="1190"/>
			<point x="1110" y="1205" type="curve" smooth="yes"/>
			<point x="1110" y="1226"/>
			<point x="1089" y="1238"/>
			<point x="1072" y="1238" type="curve" smooth="yes"/>
			<point x="1058" y="1238"/>
			<point x="1047" y="1234"/>
			<point x="1019" y="1220" type="curve" smooth="yes"/>
			<point x="321" y="870" type="line" smooth="yes"/>
			<point x="261" y="840"/>
			<point x="241" y="821"/>
			<point x="241" y="794" type="curve" smooth="yes"/>
			<point x="241" y="773"/>
			<point x="253" y="754"/>
			<point x="302" y="720" type="curve" smooth="yes"/>
			<point x="821" y="361" type="line" smooth="yes"/>
			<point x="857" y="336"/>
			<point x="867" y="329"/>
		</contour>
	</outline>
</glyph>
<glyph name="equal" format="2">
	<advance width="1200"/>
	<unicode hex="003D"/>
	<outline>
		<contour>
			<point x="324" y="969" type="curve" smooth="yes"/>
			<point x="548" y="969"/>
			<point x="841" y="969"/>
			<point x="1023" y="978" type="curve" smooth="yes"/>
			<point x="1084" y="981"/>
			<point x="1100" y="998"/>
			<point x="1100" y="1020" type="curve" smooth="yes"/>
			<point x="1100" y="1037"/>
			<point x="1088" y="1047"/>
			<point x="1052" y="1047" type="curve" smooth="yes"/>
			<point x="872" y="1045"/>
			<point x="552" y="1044"/>
			<point x="324" y="1044" type="curve" smooth="yes"/>
			<point x="284" y="1044"/>
			<point x="273" y="1027"/>
			<point x="273" y="1006" type="curve" smooth="yes"/>
			<point x="273" y="985"/>
			<point x="284" y="969"/>
		</contour>
		<contour>
			<point x="202" y="589" type="curve" smooth="yes"/>
			<point x="426" y="589"/>
			<point x="719" y="589"/>
			<point x="901" y="598" type="curve" smooth="yes"/>
			<point x="962" y="601"/>
			<point x="978" y="618"/>
			<point x="978" y="640" type="curve" smooth="yes"/>
			<point x="978" y="657"/>
			<point x="966" y="667"/>
			<point x="930" y="667" type="curve" smooth="yes"/>
			<point x="750" y="665"/>
			<point x="430" y="664"/>
			<point x="202" y="664" type="curve" smooth="yes"/>
			<point x="162" y="664"/>
			<point x="151" y="647"/>
			<point x="151" y="626" type="curve" smooth="yes"/>
			<point x="151" y="605"/>
			<point x="162" y="589"/>
		</contour>
	</outline>
</glyph>
<glyph name="question" format="2">
	<advance width="1001"/>
	<unicode hex="003F"/>
	<outline>
		<contour>
			<point x="452" y="396" type="curve" smooth="yes"/>
			<point x="536" y="396"/>
			<point x="607" y="421"/>
			<point x="666" y="460" type="curve" smooth="yes"/>
			<point x="694" y="479"/>
			<point x="702" y="494"/>
			<point x="702" y="503" type="curve" smooth="yes"/>
			<point x="702" y="518"/>
			<point x="692" y="529"/>
			<point x="679" y="529" type="curve" smooth="yes"/>
			<point x="670" y="529"/>
			<point x="657" y="523"/>
			<point x="640" y="514" type="curve" smooth="yes"/>
			<point x="585" y="485"/>
			<point x="533" y="471"/>
			<point x="463" y="471" type="curve" smooth="yes"/>
			<point x="384" y="471"/>
			<point x="338" y="513"/>
			<point x="338" y="587" type="curve" smooth="yes"/>
			<point x="338" y="686"/>
			<point x="393" y="769"/>
			<point x="632" y="931" type="curve" smooth="yes"/>
			<point x="910" y="1119"/>
			<point x="981" y="1231"/>
			<point x="981" y="1376" type="curve" smooth="yes"/>
			<point x="981" y="1512"/>
			<point x="864" y="1621"/>
			<point x="697" y="1621" type="curve" smooth="yes"/>
			<point x="570" y="1621"/>
			<point x="461" y="1574"/>
			<point x="377" y="1512" type="curve" smooth="yes"/>
			<point x="361" y="1500"/>
			<point x="338" y="1482"/>
			<point x="338" y="1462" type="curve" smooth="yes"/>
			<point x="338" y="1443"/>
			<point x="357" y="1433"/>
			<point x="367" y="1433" type="curve" smooth="yes"/>
			<point x="381" y="1433"/>
			<point x="396" y="1443"/>
			<point x="418" y="1458" type="curve" smooth="yes"/>
			<point x="501" y="1514"/>
			<point x="598" y="1546"/>
			<point x="682" y="1546" type="curve" smooth="yes"/>
			<point x="810" y="1546"/>
			<point x="901" y="1474"/>
			<point x="901" y="1361" type="curve" smooth="yes"/>
			<point x="901" y="1253"/>
			<point x="847" y="1170"/>
			<point x="597" y="998" type="curve" smooth="yes"/>
			<point x="323" y="810"/>
			<point x="260" y="706"/>
			<point x="260" y="578" type="curve" smooth="yes"/>
			<point x="260" y="471"/>
			<point x="341" y="396"/>
		</contour>
		<contour>
			<point x="329" y="-12" type="curve" smooth="yes"/>
			<point x="380" y="-12"/>
			<point x="429" y="36"/>
			<point x="429" y="92" type="curve" smooth="yes"/>
			<point x="429" y="131"/>
			<point x="400" y="160"/>
			<point x="360" y="160" type="curve" smooth="yes"/>
			<point x="310" y="160"/>
			<point x="266" y="116"/>
			<point x="266" y="60" type="curve" smooth="yes"/>
			<point x="266" y="15"/>
			<point x="295" y="-12"/>
		</contour>
	</outline>
</glyph>
<glyph name="at" format="2">
	<advance width="2438"/>
	<unicode hex="0040"/>
	<anchor x="958" y="0" name="bottom"/>
	<anchor x="1419" y="0" name="ogonek"/>
	<anchor x="1208" y="910" name="top"/>
	<outline>
		<contour>
			<point x="1457" y="891" type="curve" smooth="yes"/>
			<point x="1450" y="864" type="line"/>
			<point x="1345" y="911"/>
			<point x="1256" y="935"/>
			<point x="1198" y="935" type="curve" smooth="yes"/>
			<point x="970" y="935"/>
			<point x="748" y="604"/>
			<point x="748" y="248" type="curve" smooth="yes"/>
			<point x="748" y="73"/>
			<point x="810" y="-12"/>
			<point x="896" y="-12" type="curve" smooth="yes"/>
			<point x="1047" y="-12"/>
			<point x="1206" y="180"/>
			<point x="1327" y="398" type="curve"/>
			<point x="1280" y="243"/>
			<point x="1269" y="188"/>
			<point x="1269" y="130" type="curve" smooth="yes"/>
			<point x="1269" y="39"/>
			<point x="1326" y="-12"/>
			<point x="1444" y="-12" type="curve" smooth="yes"/>
			<point x="1818" y="-12"/>
			<point x="2148" y="386"/>
			<point x="2148" y="786" type="curve" smooth="yes"/>
			<point x="2148" y="1206"/>
			<point x="1841" y="1450"/>
			<point x="1363" y="1450" type="curve" smooth="yes"/>
			<point x="681" y="1450"/>
			<point x="150" y="840"/>
			<point x="150" y="193" type="curve" smooth="yes"/>
			<point x="150" y="-237"/>
			<point x="449" y="-510"/>
			<point x="951" y="-510" type="curve" smooth="yes"/>
			<point x="1099" y="-510"/>
			<point x="1285" y="-477"/>
			<point x="1401" y="-437" type="curve" smooth="yes"/>
			<point x="1459" y="-417"/>
			<point x="1482" y="-403"/>
			<point x="1482" y="-385" type="curve" smooth="yes"/>
			<point x="1482" y="-366"/>
			<point x="1468" y="-358"/>
			<point x="1449" y="-358" type="curve" smooth="yes"/>
			<point x="1439" y="-358"/>
			<point x="1416" y="-363"/>
			<point x="1354" y="-381" type="curve" smooth="yes"/>
			<point x="1256" y="-410"/>
			<point x="1104" y="-437"/>
			<point x="967" y="-437" type="curve" smooth="yes"/>
			<point x="497" y="-437"/>
			<point x="230" y="-183"/>
			<point x="230" y="213" type="curve" smooth="yes"/>
			<point x="230" y="780"/>
			<point x="731" y="1375"/>
			<point x="1343" y="1375" type="curve" smooth="yes"/>
			<point x="1797" y="1375"/>
			<point x="2068" y="1158"/>
			<point x="2068" y="759" type="curve" smooth="yes"/>
			<point x="2068" y="414"/>
			<point x="1772" y="63"/>
			<point x="1457" y="63" type="curve" smooth="yes"/>
			<point x="1371" y="63"/>
			<point x="1348" y="93"/>
			<point x="1348" y="139" type="curve" smooth="yes"/>
			<point x="1348" y="177"/>
			<point x="1356" y="233"/>
			<point x="1404" y="402" type="curve" smooth="yes"/>
			<point x="1526" y="831" type="line" smooth="yes"/>
			<point x="1533" y="857"/>
			<point x="1541" y="889"/>
			<point x="1541" y="901" type="curve" smooth="yes"/>
			<point x="1541" y="929"/>
			<point x="1521" y="935"/>
			<point x="1500" y="935" type="curve" smooth="yes"/>
			<point x="1480" y="935"/>
			<point x="1464" y="919"/>
		</contour>
		<contour>
			<point x="828" y="261" type="curve" smooth="yes"/>
			<point x="828" y="561"/>
			<point x="1016" y="860"/>
			<point x="1203" y="860" type="curve" smooth="yes"/>
			<point x="1270" y="860"/>
			<point x="1341" y="843"/>
			<point x="1433" y="800" type="curve"/>
			<point x="1427" y="778" type="line" smooth="yes"/>
			<point x="1318" y="380"/>
			<point x="1043" y="63"/>
			<point x="913" y="63" type="curve" smooth="yes"/>
			<point x="862" y="63"/>
			<point x="828" y="113"/>
		</contour>
	</outline>
</glyph>
<glyph name="A" format="2">
	<unicode hex="0041"/>
	<advance width="1472"/>
	<outline>
		<contour>
			<point x="1165" y="1454" type="curve" smooth="yes"/>
			<point x="802" y="958"/>
			<point x="358" y="468"/>
			<point x="-64" y="76" type="curve" smooth="yes"/>
			<point x="-86" y="56"/>
			<point x="-100" y="42"/>
			<point x="-100" y="22" type="curve" smooth="yes"/>
			<point x="-100" y="-1"/>
			<point x="-84" y="-12"/>
			<point x="-67" y="-12" type="curve" smooth="yes"/>
			<point x="-48" y="-12"/>
			<point x="-32" y="-5"/>
			<point x="-1" y="24" type="curve" smooth="yes"/>
			<point x="412" y="422"/>
			<point x="844" y="887"/>
			<point x="1253" y="1462" type="curve"/>
			<point x="964" y="64" type="line" smooth="yes"/>
			<point x="958" y="37"/>
			<point x="957" y="27"/>
			<point x="957" y="18" type="curve" smooth="yes"/>
			<point x="957" y="-1"/>
			<point x="976" y="-12"/>
			<point x="998" y="-12" type="curve" smooth="yes"/>
			<point x="1018" y="-12"/>
			<point x="1030" y="-3"/>
			<point x="1037" y="32" type="curve" smooth="yes"/>
			<point x="1324" y="1463" type="line" smooth="yes"/>
			<point x="1340" y="1542"/>
			<point x="1342" y="1559"/>
			<point x="1342" y="1570" type="curve" smooth="yes"/>
			<point x="1342" y="1589"/>
			<point x="1324" y="1605"/>
			<point x="1299" y="1605" type="curve" smooth="yes"/>
			<point x="1273" y="1605"/>
			<point x="1266" y="1592"/>
		</contour>
	</outline>
	<anchor name="bottom" x="196" y="0"/>
	<anchor name="ogonek" x="922" y="0"/>
	<anchor name="top" x="1299" y="1600"/>
</glyph>
<glyph name="B" format="2">
	<unicode hex="0042"/>
	<advance width="1200"/>
	<outline>
		<contour>
			<point x="0" y="86" type="curve" smooth="yes"/>
			<point x="0" y="40"/>
			<point x="174" y="-12"/>
			<point x="343" y="-12" type="curve" smooth="yes"/>
			<point x="694" y="-12"/>
			<point x="979" y="162"/>
			<point x="979" y="442" type="curve" smooth="yes"/>
			<point x="979" y="624"/>
			<point x="856" y="779"/>
			<point x="646" y="827" type="curve"/>
			<point x="904" y="866"/>
			<point x="1100" y="1029"/>
			<point x="1100" y="1248" type="curve" smooth="yes"/>
			<point x="1100" y="1447"/>
			<point x="936" y="1616"/>
			<point x="671" y="1616" type="curve" smooth="yes"/>
			<point x="601" y="1616"/>
			<point x="521" y="1605"/>
			<point x="477" y="1592" type="curve" smooth="yes"/>
			<point x="443" y="1582"/>
			<point x="431" y="1569"/>
			<point x="431" y="1553" type="curve" smooth="yes"/>
			<point x="431" y="1530"/>
			<point x="445" y="1516"/>
			<point x="464" y="1516" type="curve" smooth="yes"/>
			<point x="479" y="1516"/>
			<point x="522" y="1524"/>
			<point x="552" y="1530" type="curve"/>
			<point x="155" y="83" type="line"/>
			<point x="127" y="89"/>
			<point x="105" y="96"/>
			<point x="88" y="104" type="curve" smooth="yes"/>
			<point x="55" y="119"/>
			<point x="42" y="121"/>
			<point x="36" y="121" type="curve" smooth="yes"/>
			<point x="15" y="121"/>
			<point x="0" y="105"/>
		</contour>
		<contour>
			<point x="232" y="70" type="curve"/>
			<point x="429" y="793" type="line"/>
			<point x="734" y="791"/>
			<point x="899" y="645"/>
			<point x="899" y="446" type="curve" smooth="yes"/>
			<point x="899" y="200"/>
			<point x="648" y="63"/>
			<point x="334" y="63" type="curve" smooth="yes"/>
			<point x="303" y="63"/>
			<point x="267" y="66"/>
		</contour>
		<contour>
			<point x="450" y="868" type="line"/>
			<point x="633" y="1540" type="line"/>
			<point x="645" y="1541"/>
			<point x="656" y="1541"/>
			<point x="667" y="1541" type="curve" smooth="yes"/>
			<point x="875" y="1541"/>
			<point x="1020" y="1408"/>
			<point x="1020" y="1238" type="curve" smooth="yes"/>
			<point x="1020" y="1030"/>
			<point x="798" y="868"/>
			<point x="454" y="868" type="curve" smooth="yes"/>
		</contour>
	</outline>
</glyph>
<glyph name="C" format="2">
	<unicode hex="0043"/>
	<advance width="688"/>
	<outline>
		<contour>
			<point x="618" y="-12" type="curve" smooth="yes"/>
			<point x="660" y="-12"/>
			<point x="691" y="1"/>
			<point x="691" y="32" type="curve" smooth="yes"/>
			<point x="691" y="54"/>
			<point x="659" y="63"/>
			<point x="630" y="63" type="curve" smooth="yes"/>
			<point x="408" y="63"/>
			<point x="260" y="194"/>
			<point x="260" y="565" type="curve" smooth="yes"/>
			<point x="260" y="1047"/>
			<point x="555" y="1540"/>
			<point x="914" y="1540" type="curve" smooth="yes"/>
			<point x="1007" y="1540"/>
			<point x="1080" y="1508"/>
			<point x="1140" y="1450" type="curve" smooth="yes"/>
			<point x="1162" y="1429"/>
			<point x="1172" y="1424"/>
			<point x="1182" y="1424" type="curve" smooth="yes"/>
			<point x="1197" y="1424"/>
			<point x="1212" y="1440"/>
			<point x="1212" y="1452" type="curve" smooth="yes"/>
			<point x="1212" y="1467"/>
			<point x="1204" y="1486"/>
			<point x="1171" y="1516" type="curve" smooth="yes"/>
			<point x="1111" y="1571"/>
			<point x="1016" y="1615"/>
			<point x="908" y="1615" type="curve" smooth="yes"/>
			<point x="508" y="1615"/>
			<point x="180" y="1094"/>
			<point x="180" y="568" type="curve" smooth="yes"/>
			<point x="180" y="144"/>
			<point x="368" y="-12"/>
		</contour>
	</outline>
	<anchor name="bottom" x="638" y="0"/>
	<anchor name="top" x="903" y="1600"/>
</glyph>
<glyph name="D" format="2">
	<unicode hex="0044"/>
	<advance width="1345"/>
	<outline>
		<contour>
			<point x="1135" y="942" type="curve" smooth="yes"/>
			<point x="1135" y="451"/>
			<point x="699" y="69"/>
			<point x="236" y="62" type="curve"/>
			<point x="637" y="1534" type="line"/>
			<point x="911" y="1518"/>
			<point x="1135" y="1298"/>
		</contour>
		<contour>
			<point x="0" y="54" type="curve" smooth="yes"/>
			<point x="0" y="12"/>
			<point x="76" y="-12"/>
			<point x="190" y="-12" type="curve" smooth="yes"/>
			<point x="714" y="-12"/>
			<point x="1215" y="396"/>
			<point x="1215" y="950" type="curve" smooth="yes"/>
			<point x="1215" y="1346"/>
			<point x="959" y="1610"/>
			<point x="615" y="1610" type="curve" smooth="yes"/>
			<point x="510" y="1610"/>
			<point x="446" y="1588"/>
			<point x="446" y="1552" type="curve" smooth="yes"/>
			<point x="446" y="1538"/>
			<point x="459" y="1522"/>
			<point x="476" y="1522" type="curve" smooth="yes"/>
			<point x="484" y="1522"/>
			<point x="495" y="1524"/>
			<point x="506" y="1526" type="curve" smooth="yes"/>
			<point x="523" y="1529"/>
			<point x="536" y="1531"/>
			<point x="559" y="1533" type="curve"/>
			<point x="156" y="65" type="line"/>
			<point x="117" y="67"/>
			<point x="92" y="72"/>
			<point x="69" y="77" type="curve" smooth="yes"/>
			<point x="53" y="81"/>
			<point x="45" y="83"/>
			<point x="36" y="83" type="curve" smooth="yes"/>
			<point x="12" y="83"/>
			<point x="0" y="70"/>
		</contour>
	</outline>
	<anchor name="bottom" x="326" y="0"/>
	<anchor name="center" x="405" y="829"/>
	<anchor name="top" x="857" y="1600"/>
</glyph>
<glyph name="E" format="2">
	<unicode hex="0045"/>
	<advance width="654"/>
	<outline>
		<contour>
			<point x="582" y="-12" type="curve" smooth="yes"/>
			<point x="618" y="-12"/>
			<point x="646" y="0"/>
			<point x="646" y="31" type="curve" smooth="yes"/>
			<point x="646" y="55"/>
			<point x="623" y="63"/>
			<point x="596" y="63" type="curve" smooth="yes"/>
			<point x="343" y="63"/>
			<point x="165" y="189"/>
			<point x="165" y="404" type="curve" smooth="yes"/>
			<point x="165" y="596"/>
			<point x="312" y="779"/>
			<point x="534" y="831" type="curve"/>
			<point x="562" y="823"/>
			<point x="597" y="815"/>
			<point x="630" y="815" type="curve" smooth="yes"/>
			<point x="660" y="815"/>
			<point x="690" y="831"/>
			<point x="690" y="872" type="curve" smooth="yes"/>
			<point x="690" y="891"/>
			<point x="679" y="904"/>
			<point x="650" y="904" type="curve" smooth="yes"/>
			<point x="636" y="904"/>
			<point x="624" y="903"/>
			<point x="602" y="901" type="curve" smooth="yes"/>
			<point x="587" y="900"/>
			<point x="572" y="899"/>
			<point x="562" y="899" type="curve" smooth="yes"/>
			<point x="549" y="899"/>
			<point x="514" y="914"/>
			<point x="484" y="938" type="curve" smooth="yes"/>
			<point x="416" y="992"/>
			<point x="353" y="1071"/>
			<point x="353" y="1215" type="curve" smooth="yes"/>
			<point x="353" y="1375"/>
			<point x="481" y="1550"/>
			<point x="686" y="1550" type="curve" smooth="yes"/>
			<point x="776" y="1550"/>
			<point x="859" y="1521"/>
			<point x="932" y="1471" type="curve" smooth="yes"/>
			<point x="962" y="1450"/>
			<point x="972" y="1445"/>
			<point x="985" y="1445" type="curve" smooth="yes"/>
			<point x="1000" y="1445"/>
			<point x="1014" y="1461"/>
			<point x="1014" y="1477" type="curve" smooth="yes"/>
			<point x="1014" y="1487"/>
			<point x="1009" y="1497"/>
			<point x="976" y="1523" type="curve" smooth="yes"/>
			<point x="901" y="1583"/>
			<point x="793" y="1625"/>
			<point x="684" y="1625" type="curve" smooth="yes"/>
			<point x="425" y="1625"/>
			<point x="273" y="1404"/>
			<point x="273" y="1220" type="curve" smooth="yes"/>
			<point x="273" y="1071"/>
			<point x="347" y="941"/>
			<point x="453" y="874" type="curve"/>
			<point x="253" y="814"/>
			<point x="90" y="613"/>
			<point x="90" y="399" type="curve" smooth="yes"/>
			<point x="90" y="131"/>
			<point x="299" y="-12"/>
		</contour>
	</outline>
	<anchor name="bottom" x="581" y="0"/>
	<anchor name="ogonek" x="687" y="0"/>
	<anchor name="top" x="734" y="1625"/>
	<anchor name="topleft" x="417" y="1600"/>
</glyph>
<glyph name="F" format="2">
	<advance width="1108"/>
	<unicode hex="0046"/>
	<outline>
		<contour>
			<point x="790" y="1530" type="curve" smooth="yes"/>
			<point x="940" y="1530"/>
			<point x="1150" y="1534"/>
			<point x="1205" y="1534" type="curve" smooth="yes"/>
			<point x="1238" y="1534"/>
			<point x="1258" y="1551"/>
			<point x="1258" y="1574" type="curve" smooth="yes"/>
			<point x="1258" y="1592"/>
			<point x="1241" y="1609"/>
			<point x="1217" y="1609" type="curve" smooth="yes"/>
			<point x="1117" y="1609"/>
			<point x="492" y="1602"/>
			<point x="458" y="1600" type="curve" smooth="yes"/>
			<point x="427" y="1598"/>
			<point x="410" y="1582"/>
			<point x="410" y="1562" type="curve" smooth="yes"/>
			<point x="410" y="1541"/>
			<point x="427" y="1526"/>
			<point x="456" y="1526" type="curve" smooth="yes"/>
			<point x="500" y="1526" type="line"/>
			<point x="375" y="1117"/>
			<point x="203" y="504"/>
			<point x="124" y="141" type="curve" smooth="yes"/>
			<point x="102" y="40"/>
			<point x="100" y="25"/>
			<point x="100" y="15" type="curve" smooth="yes"/>
			<point x="100" y="-3"/>
			<point x="117" y="-12"/>
			<point x="138" y="-12" type="curve" smooth="yes"/>
			<point x="156" y="-12"/>
			<point x="171" y="1"/>
			<point x="178" y="34" type="curve" smooth="yes"/>
			<point x="227" y="259"/>
			<point x="297" y="533"/>
			<point x="370" y="803" type="curve"/>
			<point x="467" y="806"/>
			<point x="814" y="811"/>
			<point x="869" y="811" type="curve" smooth="yes"/>
			<point x="902" y="811"/>
			<point x="922" y="828"/>
			<point x="922" y="851" type="curve" smooth="yes"/>
			<point x="922" y="869"/>
			<point x="905" y="886"/>
			<point x="881" y="886" type="curve" smooth="yes"/>
			<point x="842" y="886"/>
			<point x="752" y="885"/>
			<point x="658" y="883" type="curve" smooth="yes"/>
			<point x="391" y="878" type="line"/>
			<point x="456" y="1113"/>
			<point x="522" y="1341"/>
			<point x="578" y="1527" type="curve"/>
			<point x="655" y="1529"/>
			<point x="742" y="1530"/>
		</contour>
	</outline>
</glyph>
<glyph name="G" format="2">
	<advance width="1145"/>
	<unicode hex="0047"/>
	<anchor x="404" y="-5" name="bottom"/>
	<anchor x="930" y="1600" name="top"/>
	<outline>
		<contour>
			<point x="997" y="346" type="curve"/>
			<point x="966" y="224"/>
			<point x="936" y="91"/>
			<point x="882" y="-141" type="curve" smooth="yes"/>
			<point x="803" y="-486"/>
			<point x="653" y="-615"/>
			<point x="557" y="-615" type="curve" smooth="yes"/>
			<point x="509" y="-615"/>
			<point x="485" y="-591"/>
			<point x="485" y="-551" type="curve" smooth="yes"/>
			<point x="485" y="-441"/>
			<point x="626" y="-291"/>
			<point x="918" y="-79" type="curve"/>
			<point x="931" y="3" type="line"/>
			<point x="564" y="-242"/>
			<point x="410" y="-422"/>
			<point x="410" y="-557" type="curve" smooth="yes"/>
			<point x="410" y="-641"/>
			<point x="466" y="-690"/>
			<point x="540" y="-690" type="curve" smooth="yes"/>
			<point x="694" y="-690"/>
			<point x="866" y="-558"/>
			<point x="966" y="-106" type="curve" smooth="yes"/>
			<point x="1012" y="103"/>
			<point x="1086" y="417"/>
			<point x="1113" y="521" type="curve"/>
			<point x="1161" y="631"/>
			<point x="1198" y="737"/>
			<point x="1198" y="764" type="curve" smooth="yes"/>
			<point x="1198" y="785"/>
			<point x="1186" y="805"/>
			<point x="1155" y="805" type="curve" smooth="yes"/>
			<point x="1123" y="805"/>
			<point x="1110" y="789"/>
			<point x="1094" y="730" type="curve" smooth="yes"/>
			<point x="981" y="311"/>
			<point x="709" y="63"/>
			<point x="516" y="63" type="curve" smooth="yes"/>
			<point x="360" y="63"/>
			<point x="260" y="220"/>
			<point x="260" y="505" type="curve" smooth="yes"/>
			<point x="260" y="1032"/>
			<point x="564" y="1540"/>
			<point x="934" y="1540" type="curve" smooth="yes"/>
			<point x="1027" y="1540"/>
			<point x="1100" y="1508"/>
			<point x="1160" y="1450" type="curve" smooth="yes"/>
			<point x="1182" y="1429"/>
			<point x="1192" y="1424"/>
			<point x="1202" y="1424" type="curve" smooth="yes"/>
			<point x="1217" y="1424"/>
			<point x="1232" y="1440"/>
			<point x="1232" y="1452" type="curve" smooth="yes"/>
			<point x="1232" y="1467"/>
			<point x="1224" y="1486"/>
			<point x="1191" y="1516" type="curve" smooth="yes"/>
			<point x="1123" y="1578"/>
			<point x="1036" y="1615"/>
			<point x="928" y="1615" type="curve" smooth="yes"/>
			<point x="517" y="1615"/>
			<point x="180" y="1079"/>
			<point x="180" y="508" type="curve" smooth="yes"/>
			<point x="180" y="166"/>
			<point x="315" y="-12"/>
			<point x="505" y="-12" type="curve" smooth="yes"/>
			<point x="665" y="-12"/>
			<point x="851" y="116"/>
		</contour>
	</outline>
</glyph>
<glyph name="H" format="2">
	<advance width="1294"/>
	<unicode hex="0048"/>
	<anchor x="479" y="0" name="bottom"/>
	<anchor x="697" y="830" name="center"/>
	<anchor x="895" y="1600" name="top"/>
	<anchor x="454" y="1600" name="topleft"/>
	<outline>
		<contour>
			<point x="840" y="27" type="curve" smooth="yes"/>
			<point x="1246" y="1530" type="line" smooth="yes"/>
			<point x="1251" y="1548"/>
			<point x="1254" y="1563"/>
			<point x="1254" y="1571" type="curve" smooth="yes"/>
			<point x="1254" y="1588"/>
			<point x="1233" y="1600"/>
			<point x="1212" y="1600" type="curve" smooth="yes"/>
			<point x="1192" y="1600"/>
			<point x="1183" y="1586"/>
			<point x="1179" y="1570" type="curve" smooth="yes"/>
			<point x="773" y="74" type="line" smooth="yes"/>
			<point x="764" y="39"/>
			<point x="762" y="31"/>
			<point x="762" y="20" type="curve" smooth="yes"/>
			<point x="762" y="1"/>
			<point x="782" y="-12"/>
			<point x="804" y="-12" type="curve" smooth="yes"/>
			<point x="819" y="-12"/>
			<point x="832" y="-4"/>
		</contour>
		<contour>
			<point x="188" y="27" type="curve" smooth="yes"/>
			<point x="594" y="1530" type="line" smooth="yes"/>
			<point x="599" y="1548"/>
			<point x="602" y="1563"/>
			<point x="602" y="1571" type="curve" smooth="yes"/>
			<point x="602" y="1588"/>
			<point x="581" y="1600"/>
			<point x="560" y="1600" type="curve" smooth="yes"/>
			<point x="540" y="1600"/>
			<point x="531" y="1586"/>
			<point x="527" y="1570" type="curve" smooth="yes"/>
			<point x="121" y="74" type="line" smooth="yes"/>
			<point x="112" y="39"/>
			<point x="110" y="31"/>
			<point x="110" y="20" type="curve" smooth="yes"/>
			<point x="110" y="1"/>
			<point x="130" y="-12"/>
			<point x="152" y="-12" type="curve" smooth="yes"/>
			<point x="167" y="-12"/>
			<point x="180" y="-4"/>
		</contour>
	</outline>
</glyph>
<glyph name="I" format="2">
	<advance width="657"/>
	<unicode hex="0049"/>
	<anchor x="151" y="0" name="bottom"/>
	<anchor x="76" y="0" name="ogonek"/>
	<anchor x="565" y="1600" name="top"/>
	<anchor x="482" y="1600" name="topleft"/>
	<outline>
		<contour>
			<point x="565" y="1600" type="curve" smooth="yes"/>
			<point x="545" y="1600"/>
			<point x="535" y="1586"/>
			<point x="530" y="1569" type="curve" smooth="yes"/>
			<point x="408" y="1123"/>
			<point x="227" y="453"/>
			<point x="153" y="167" type="curve" smooth="yes"/>
			<point x="122" y="48"/>
			<point x="120" y="25"/>
			<point x="120" y="15" type="curve" smooth="yes"/>
			<point x="120" y="-3"/>
			<point x="137" y="-12"/>
			<point x="158" y="-12" type="curve" smooth="yes"/>
			<point x="176" y="-12"/>
			<point x="190" y="1"/>
			<point x="198" y="34" type="curve" smooth="yes"/>
			<point x="294" y="418"/>
			<point x="479" y="1108"/>
			<point x="599" y="1530" type="curve" smooth="yes"/>
			<point x="604" y="1548"/>
			<point x="607" y="1563"/>
			<point x="607" y="1571" type="curve" smooth="yes"/>
			<point x="607" y="1588"/>
			<point x="586" y="1600"/>
		</contour>
	</outline>
</glyph>
<glyph name="J" format="2">
	<advance width="530"/>
	<unicode hex="004A"/>
	<anchor x="261" y="0" name="bottom"/>
	<anchor x="459" y="717" name="center"/>
	<anchor x="716" y="1600" name="top"/>
	<outline>
		<contour>
			<point x="-212" y="-557" type="curve" smooth="yes"/>
			<point x="-212" y="-641"/>
			<point x="-156" y="-690"/>
			<point x="-82" y="-690" type="curve" smooth="yes"/>
			<point x="72" y="-690"/>
			<point x="246" y="-558"/>
			<point x="346" y="-106" type="curve" smooth="yes"/>
			<point x="486" y="527"/>
			<point x="666" y="1213"/>
			<point x="725" y="1397" type="curve" smooth="yes"/>
			<point x="760" y="1505"/>
			<point x="773" y="1548"/>
			<point x="773" y="1571" type="curve" smooth="yes"/>
			<point x="773" y="1588"/>
			<point x="765" y="1605"/>
			<point x="735" y="1605" type="curve" smooth="yes"/>
			<point x="726" y="1605"/>
			<point x="718" y="1604"/>
			<point x="689" y="1600" type="curve" smooth="yes"/>
			<point x="642" y="1594"/>
			<point x="575" y="1589"/>
			<point x="494" y="1589" type="curve" smooth="yes"/>
			<point x="440" y="1589"/>
			<point x="388" y="1591"/>
			<point x="320" y="1597" type="curve" smooth="yes"/>
			<point x="284" y="1600"/>
			<point x="272" y="1601"/>
			<point x="261" y="1601" type="curve" smooth="yes"/>
			<point x="240" y="1601"/>
			<point x="225" y="1586"/>
			<point x="225" y="1563" type="curve" smooth="yes"/>
			<point x="225" y="1542"/>
			<point x="243" y="1531"/>
			<point x="283" y="1525" type="curve" smooth="yes"/>
			<point x="337" y="1517"/>
			<point x="410" y="1514"/>
			<point x="477" y="1514" type="curve" smooth="yes"/>
			<point x="551" y="1514"/>
			<point x="622" y="1519"/>
			<point x="688" y="1530" type="curve"/>
			<point x="574" y="1189"/>
			<point x="425" y="577"/>
			<point x="290" y="-10" type="curve"/>
			<point x="-63" y="-248"/>
			<point x="-212" y="-424"/>
		</contour>
		<contour>
			<point x="-137" y="-551" type="curve" smooth="yes"/>
			<point x="-137" y="-447"/>
			<point x="-4" y="-300"/>
			<point x="270" y="-98" type="curve"/>
			<point x="260" y="-141" type="line" smooth="yes"/>
			<point x="180" y="-486"/>
			<point x="31" y="-615"/>
			<point x="-65" y="-615" type="curve" smooth="yes"/>
			<point x="-113" y="-615"/>
			<point x="-137" y="-591"/>
		</contour>
	</outline>
</glyph>
<glyph name="K" format="2">
	<advance width="1037"/>
	<unicode hex="004B"/>
	<anchor x="490" y="0" name="bottom"/>
	<anchor x="76" y="0" name="ogonek"/>
	<anchor x="880" y="1600" name="top"/>
	<anchor x="482" y="1600" name="topleft"/>
	<outline>
		<contour>
			<point x="431" y="828" type="curve"/>
			<point x="721" y="1045"/>
			<point x="988" y="1268"/>
			<point x="1253" y="1525" type="curve" smooth="yes"/>
			<point x="1271" y="1542"/>
			<point x="1278" y="1556"/>
			<point x="1278" y="1567" type="curve" smooth="yes"/>
			<point x="1278" y="1587"/>
			<point x="1262" y="1600"/>
			<point x="1243" y="1600" type="curve" smooth="yes"/>
			<point x="1233" y="1600"/>
			<point x="1224" y="1596"/>
			<point x="1183" y="1555" type="curve" smooth="yes"/>
			<point x="954" y="1331"/>
			<point x="695" y="1116"/>
			<point x="427" y="905" type="curve"/>
			<point x="488" y="1132"/>
			<point x="549" y="1354"/>
			<point x="599" y="1530" type="curve" smooth="yes"/>
			<point x="604" y="1548"/>
			<point x="607" y="1563"/>
			<point x="607" y="1571" type="curve" smooth="yes"/>
			<point x="607" y="1588"/>
			<point x="586" y="1600"/>
			<point x="565" y="1600" type="curve" smooth="yes"/>
			<point x="545" y="1600"/>
			<point x="536" y="1586"/>
			<point x="532" y="1570" type="curve" smooth="yes"/>
			<point x="409" y="1123"/>
			<point x="227" y="453"/>
			<point x="153" y="167" type="curve" smooth="yes"/>
			<point x="122" y="48"/>
			<point x="120" y="25"/>
			<point x="120" y="15" type="curve" smooth="yes"/>
			<point x="120" y="-3"/>
			<point x="137" y="-12"/>
			<point x="158" y="-12" type="curve" smooth="yes"/>
			<point x="176" y="-12"/>
			<point x="190" y="1"/>
			<point x="198" y="34" type="curve" smooth="yes"/>
			<point x="245" y="222"/>
			<point x="313" y="484"/>
			<point x="385" y="752" type="curve"/>
			<point x="431" y="658"/>
			<point x="501" y="517"/>
			<point x="606" y="338" type="curve" smooth="yes"/>
			<point x="756" y="82"/>
			<point x="825" y="-12"/>
			<point x="953" y="-12" type="curve" smooth="yes"/>
			<point x="990" y="-12"/>
			<point x="1011" y="12"/>
			<point x="1011" y="30" type="curve" smooth="yes"/>
			<point x="1011" y="56"/>
			<point x="987" y="63"/>
			<point x="969" y="63" type="curve" smooth="yes"/>
			<point x="864" y="63"/>
			<point x="799" y="154"/>
			<point x="672" y="373" type="curve" smooth="yes"/>
			<point x="553" y="579"/>
			<point x="477" y="728"/>
		</contour>
	</outline>
</glyph>
<glyph name="L" format="2">
	<unicode hex="004C"/>
	<advance width="895"/>
	<outline>
		<contour>
			<point x="0" y="88" type="curve" smooth="yes"/>
			<point x="0" y="23"/>
			<point x="50" y="-28"/>
			<point x="130" y="-28" type="curve" smooth="yes"/>
			<point x="207" y="-28"/>
			<point x="272" y="-3"/>
			<point x="337" y="115" type="curve"/>
			<point x="362" y="106"/>
			<point x="388" y="96"/>
			<point x="415" y="85" type="curve" smooth="yes"/>
			<point x="529" y="39"/>
			<point x="659" y="-12"/>
			<point x="838" y="-12" type="curve" smooth="yes"/>
			<point x="875" y="-12"/>
			<point x="891" y="0"/>
			<point x="891" y="30" type="curve" smooth="yes"/>
			<point x="891" y="50"/>
			<point x="866" y="63"/>
			<point x="839" y="63" type="curve" smooth="yes"/>
			<point x="679" y="63"/>
			<point x="557" y="109"/>
			<point x="450" y="153" type="curve" smooth="yes"/>
			<point x="421" y="165"/>
			<point x="395" y="175"/>
			<point x="370" y="184" type="curve"/>
			<point x="423" y="307"/>
			<point x="478" y="500"/>
			<point x="542" y="798" type="curve" smooth="yes"/>
			<point x="668" y="1383"/>
			<point x="799" y="1550"/>
			<point x="981" y="1550" type="curve" smooth="yes"/>
			<point x="1050" y="1550"/>
			<point x="1113" y="1529"/>
			<point x="1192" y="1480" type="curve" smooth="yes"/>
			<point x="1202" y="1474"/>
			<point x="1211" y="1470"/>
			<point x="1218" y="1470" type="curve" smooth="yes"/>
			<point x="1232" y="1470"/>
			<point x="1248" y="1484"/>
			<point x="1248" y="1502" type="curve" smooth="yes"/>
			<point x="1248" y="1515"/>
			<point x="1235" y="1530"/>
			<point x="1214" y="1547" type="curve" smooth="yes"/>
			<point x="1178" y="1576"/>
			<point x="1093" y="1625"/>
			<point x="984" y="1625" type="curve" smooth="yes"/>
			<point x="751" y="1625"/>
			<point x="610" y="1454"/>
			<point x="469" y="820" type="curve" smooth="yes"/>
			<point x="401" y="514"/>
			<point x="352" y="321"/>
			<point x="304" y="205" type="curve"/>
			<point x="263" y="216"/>
			<point x="222" y="223"/>
			<point x="179" y="223" type="curve" smooth="yes"/>
			<point x="72" y="223"/>
			<point x="0" y="160"/>
		</contour>
		<contour>
			<point x="77" y="92" type="curve" smooth="yes"/>
			<point x="77" y="124"/>
			<point x="109" y="151"/>
			<point x="169" y="151" type="curve" smooth="yes"/>
			<point x="203" y="151"/>
			<point x="237" y="146"/>
			<point x="271" y="137" type="curve"/>
			<point x="232" y="71"/>
			<point x="192" y="47"/>
			<point x="141" y="47" type="curve" smooth="yes"/>
			<point x="99" y="47"/>
			<point x="77" y="64"/>
		</contour>
	</outline>
	<anchor name="bottom" x="453" y="0"/>
	<anchor name="center" x="507" y="839"/>
	<anchor name="top" x="984" y="1625"/>
	<anchor name="topright" x="1250" y="1600"/>
</glyph>
<glyph name="M" format="2">
	<unicode hex="004D"/>
	<advance width="1643"/>
	<outline>
		<contour>
			<point x="14" y="-12" type="curve" smooth="yes"/>
			<point x="30" y="-12"/>
			<point x="49" y="-5"/>
			<point x="75" y="26" type="curve" smooth="yes"/>
			<point x="353" y="347"/>
			<point x="786" y="884"/>
			<point x="1111" y="1475" type="curve"/>
			<point x="1091" y="1493" type="line"/>
			<point x="1015" y="1081"/>
			<point x="867" y="407"/>
			<point x="847" y="319" type="curve" smooth="yes"/>
			<point x="837" y="274"/>
			<point x="835" y="262"/>
			<point x="835" y="255" type="curve" smooth="yes"/>
			<point x="835" y="232"/>
			<point x="853" y="219"/>
			<point x="874" y="219" type="curve" smooth="yes"/>
			<point x="892" y="219"/>
			<point x="902" y="229"/>
			<point x="923" y="257" type="curve" smooth="yes"/>
			<point x="1106" y="493"/>
			<point x="1399" y="879"/>
			<point x="1805" y="1481" type="curve"/>
			<point x="1788" y="1490" type="line"/>
			<point x="1517" y="647" type="line" smooth="yes"/>
			<point x="1446" y="425"/>
			<point x="1405" y="258"/>
			<point x="1405" y="166" type="curve" smooth="yes"/>
			<point x="1405" y="41"/>
			<point x="1479" y="-12"/>
			<point x="1564" y="-12" type="curve" smooth="yes"/>
			<point x="1597" y="-12"/>
			<point x="1620" y="6"/>
			<point x="1620" y="34" type="curve" smooth="yes"/>
			<point x="1620" y="50"/>
			<point x="1612" y="63"/>
			<point x="1583" y="63" type="curve" smooth="yes"/>
			<point x="1524" y="63"/>
			<point x="1485" y="94"/>
			<point x="1485" y="177" type="curve" smooth="yes"/>
			<point x="1485" y="270"/>
			<point x="1519" y="410"/>
			<point x="1585" y="624" type="curve" smooth="yes"/>
			<point x="1849" y="1474" type="line" smooth="yes"/>
			<point x="1871" y="1545"/>
			<point x="1875" y="1564"/>
			<point x="1875" y="1578" type="curve" smooth="yes"/>
			<point x="1875" y="1596"/>
			<point x="1859" y="1610"/>
			<point x="1838" y="1610" type="curve" smooth="yes"/>
			<point x="1817" y="1610"/>
			<point x="1808" y="1604"/>
			<point x="1761" y="1531" type="curve" smooth="yes"/>
			<point x="1600" y="1281"/>
			<point x="1104" y="587"/>
			<point x="891" y="324" type="curve"/>
			<point x="907" y="311" type="line"/>
			<point x="996" y="631"/>
			<point x="1110" y="1226"/>
			<point x="1145" y="1422" type="curve" smooth="yes"/>
			<point x="1161" y="1511"/>
			<point x="1166" y="1553"/>
			<point x="1166" y="1573" type="curve" smooth="yes"/>
			<point x="1166" y="1593"/>
			<point x="1151" y="1605"/>
			<point x="1127" y="1605" type="curve" smooth="yes"/>
			<point x="1114" y="1605"/>
			<point x="1104" y="1594"/>
			<point x="1075" y="1543" type="curve" smooth="yes"/>
			<point x="745" y="954"/>
			<point x="304" y="385"/>
			<point x="16" y="76" type="curve" smooth="yes"/>
			<point x="-6" y="52"/>
			<point x="-20" y="38"/>
			<point x="-20" y="22" type="curve" smooth="yes"/>
			<point x="-20" y="-1"/>
			<point x="-8" y="-12"/>
		</contour>
	</outline>
	<anchor name="bottom" x="910" y="0"/>
	<anchor name="top" x="1455" y="1600"/>
</glyph>
<glyph name="N" format="2">
	<advance width="1479"/>
	<unicode hex="004E"/>
	<anchor x="569" y="0" name="bottom"/>
	<anchor x="993" y="1600" name="top"/>
	<outline>
		<contour>
			<point x="120" y="22" type="curve" smooth="yes"/>
			<point x="120" y="1"/>
			<point x="138" y="-12"/>
			<point x="159" y="-12" type="curve" smooth="yes"/>
			<point x="175" y="-12"/>
			<point x="188" y="-4"/>
			<point x="197" y="25" type="curve" smooth="yes"/>
			<point x="269" y="266"/>
			<point x="480" y="1034"/>
			<point x="568" y="1371" type="curve"/>
			<point x="892" y="41" type="line" smooth="yes"/>
			<point x="903" y="-6"/>
			<point x="912" y="-12"/>
			<point x="934" y="-12" type="curve" smooth="yes"/>
			<point x="956" y="-12"/>
			<point x="967" y="-5"/>
			<point x="981" y="45" type="curve" smooth="yes"/>
			<point x="1061" y="327"/>
			<point x="1366" y="1373"/>
			<point x="1412" y="1505" type="curve" smooth="yes"/>
			<point x="1426" y="1546"/>
			<point x="1429" y="1563"/>
			<point x="1429" y="1571" type="curve" smooth="yes"/>
			<point x="1429" y="1589"/>
			<point x="1410" y="1600"/>
			<point x="1390" y="1600" type="curve" smooth="yes"/>
			<point x="1372" y="1600"/>
			<point x="1362" y="1587"/>
			<point x="1354" y="1565" type="curve" smooth="yes"/>
			<point x="1291" y="1392"/>
			<point x="1002" y="380"/>
			<point x="944" y="151" type="curve"/>
			<point x="612" y="1542" type="line" smooth="yes"/>
			<point x="601" y="1587"/>
			<point x="592" y="1600"/>
			<point x="561" y="1600" type="curve" smooth="yes"/>
			<point x="538" y="1600"/>
			<point x="524" y="1587"/>
			<point x="524" y="1562" type="curve" smooth="yes"/>
			<point x="524" y="1547"/>
			<point x="529" y="1528"/>
			<point x="536" y="1504" type="curve"/>
			<point x="423" y="1089"/>
			<point x="195" y="292"/>
			<point x="133" y="82" type="curve" smooth="yes"/>
			<point x="123" y="48"/>
			<point x="120" y="37"/>
		</contour>
	</outline>
</glyph>
<glyph name="O" format="2">
	<unicode hex="004F"/>
	<advance width="1402"/>
	<outline>
		<contour>
			<point x="515" y="-12" type="curve" smooth="yes"/>
			<point x="895" y="-12"/>
			<point x="1272" y="616"/>
			<point x="1272" y="1122" type="curve" smooth="yes"/>
			<point x="1272" y="1434"/>
			<point x="1129" y="1615"/>
			<point x="911" y="1615" type="curve" smooth="yes"/>
			<point x="532" y="1615"/>
			<point x="180" y="1065"/>
			<point x="180" y="508" type="curve" smooth="yes"/>
			<point x="180" y="166"/>
			<point x="313" y="-12"/>
		</contour>
		<contour>
			<point x="526" y="63" type="curve" smooth="yes"/>
			<point x="360" y="63"/>
			<point x="260" y="223"/>
			<point x="260" y="505" type="curve" smooth="yes"/>
			<point x="260" y="1001"/>
			<point x="569" y="1540"/>
			<point x="901" y="1540" type="curve" smooth="yes"/>
			<point x="1068" y="1540"/>
			<point x="1192" y="1403"/>
			<point x="1192" y="1121" type="curve" smooth="yes"/>
			<point x="1192" y="649"/>
			<point x="845" y="63"/>
		</contour>
	</outline>
	<anchor name="bottom" x="521" y="0"/>
	<anchor name="center" x="726" y="717"/>
	<anchor name="ogonek" x="1020" y="10"/>
	<anchor name="top" x="911" y="1600"/>
	<anchor name="topleft" x="331" y="1434"/>
	<anchor name="topright" x="1532" y="1434"/>
</glyph>
<glyph name="P" format="2">
	<advance width="1104"/>
	<unicode hex="0050"/>
	<anchor x="346" y="0" name="bottom"/>
	<anchor x="730" y="1600" name="top"/>
	<outline>
		<contour>
			<point x="381" y="1522" type="curve" smooth="yes"/>
			<point x="388" y="1522"/>
			<point x="397" y="1523"/>
			<point x="414" y="1525" type="curve" smooth="yes"/>
			<point x="434" y="1527"/>
			<point x="448" y="1528"/>
			<point x="469" y="1529" type="curve"/>
			<point x="66" y="61" type="line" smooth="yes"/>
			<point x="61" y="43"/>
			<point x="60" y="35"/>
			<point x="60" y="29" type="curve" smooth="yes"/>
			<point x="60" y="10"/>
			<point x="70" y="0"/>
			<point x="90" y="0" type="curve" smooth="yes"/>
			<point x="116" y="0"/>
			<point x="134" y="16"/>
			<point x="143" y="49" type="curve" smooth="yes"/>
			<point x="322" y="705" type="line"/>
			<point x="377" y="691"/>
			<point x="447" y="682"/>
			<point x="525" y="682" type="curve" smooth="yes"/>
			<point x="909" y="682"/>
			<point x="1124" y="907"/>
			<point x="1124" y="1174" type="curve" smooth="yes"/>
			<point x="1124" y="1416"/>
			<point x="956" y="1610"/>
			<point x="590" y="1610" type="curve" smooth="yes"/>
			<point x="466" y="1610"/>
			<point x="357" y="1588"/>
			<point x="357" y="1551" type="curve" smooth="yes"/>
			<point x="357" y="1538"/>
			<point x="368" y="1522"/>
		</contour>
		<contour>
			<point x="341" y="775" type="curve"/>
			<point x="548" y="1534" type="line"/>
			<point x="564" y="1535"/>
			<point x="579" y="1535"/>
			<point x="594" y="1535" type="curve" smooth="yes"/>
			<point x="873" y="1535"/>
			<point x="1046" y="1398"/>
			<point x="1046" y="1171" type="curve" smooth="yes"/>
			<point x="1046" y="944"/>
			<point x="874" y="757"/>
			<point x="523" y="757" type="curve" smooth="yes"/>
			<point x="453" y="757"/>
			<point x="388" y="764"/>
		</contour>
	</outline>
</glyph>
<glyph name="Q" format="2">
	<unicode hex="0051"/>
	<advance width="1252"/>
	<outline>
		<contour>
			<point x="515" y="-12" type="curve" smooth="yes"/>
			<point x="895" y="-12"/>
			<point x="1272" y="616"/>
			<point x="1272" y="1122" type="curve" smooth="yes"/>
			<point x="1272" y="1434"/>
			<point x="1129" y="1615"/>
			<point x="911" y="1615" type="curve" smooth="yes"/>
			<point x="532" y="1615"/>
			<point x="180" y="1065"/>
			<point x="180" y="508" type="curve" smooth="yes"/>
			<point x="180" y="166"/>
			<point x="313" y="-12"/>
		</contour>
		<contour>
			<point x="526" y="63" type="curve" smooth="yes"/>
			<point x="360" y="63"/>
			<point x="260" y="223"/>
			<point x="260" y="505" type="curve" smooth="yes"/>
			<point x="260" y="1001"/>
			<point x="569" y="1540"/>
			<point x="901" y="1540" type="curve" smooth="yes"/>
			<point x="1068" y="1540"/>
			<point x="1192" y="1403"/>
			<point x="1192" y="1121" type="curve" smooth="yes"/>
			<point x="1192" y="649"/>
			<point x="845" y="63"/>
		</contour>
		<contour>
			<point x="1174" y="-12" type="curve" smooth="yes"/>
			<point x="1219" y="-12"/>
			<point x="1235" y="14"/>
			<point x="1235" y="32" type="curve" smooth="yes"/>
			<point x="1235" y="51"/>
			<point x="1215" y="63"/>
			<point x="1190" y="63" type="curve" smooth="yes"/>
			<point x="1066" y="63"/>
			<point x="932" y="174"/>
			<point x="735" y="612" type="curve" smooth="yes"/>
			<point x="710" y="668"/>
			<point x="701" y="679"/>
			<point x="688" y="679" type="curve" smooth="yes"/>
			<point x="668" y="679"/>
			<point x="651" y="664"/>
			<point x="651" y="644" type="curve" smooth="yes"/>
			<point x="651" y="638"/>
			<point x="652" y="623"/>
			<point x="678" y="566" type="curve" smooth="yes"/>
			<point x="874" y="128"/>
			<point x="1028" y="-12"/>
		</contour>
	</outline>
</glyph>
<glyph name="R" format="2">
	<unicode hex="0052"/>
	<advance width="984"/>
	<outline>
		<contour>
			<point x="387" y="1522" type="curve" smooth="yes"/>
			<point x="394" y="1522"/>
			<point x="403" y="1523"/>
			<point x="420" y="1525" type="curve" smooth="yes"/>
			<point x="438" y="1527"/>
			<point x="452" y="1528"/>
			<point x="469" y="1529" type="curve"/>
			<point x="66" y="61" type="line" smooth="yes"/>
			<point x="61" y="43"/>
			<point x="60" y="35"/>
			<point x="60" y="29" type="curve" smooth="yes"/>
			<point x="60" y="10"/>
			<point x="70" y="0"/>
			<point x="90" y="0" type="curve" smooth="yes"/>
			<point x="116" y="0"/>
			<point x="134" y="16"/>
			<point x="143" y="49" type="curve" smooth="yes"/>
			<point x="330" y="733" type="line"/>
			<point x="367" y="655"/>
			<point x="438" y="509"/>
			<point x="554" y="319" type="curve" smooth="yes"/>
			<point x="726" y="36"/>
			<point x="788" y="-12"/>
			<point x="906" y="-12" type="curve" smooth="yes"/>
			<point x="943" y="-12"/>
			<point x="964" y="12"/>
			<point x="964" y="30" type="curve" smooth="yes"/>
			<point x="964" y="56"/>
			<point x="940" y="63"/>
			<point x="922" y="63" type="curve" smooth="yes"/>
			<point x="824" y="63"/>
			<point x="765" y="106"/>
			<point x="619" y="354" type="curve" smooth="yes"/>
			<point x="514" y="533"/>
			<point x="446" y="657"/>
			<point x="405" y="743" type="curve"/>
			<point x="445" y="736"/>
			<point x="488" y="732"/>
			<point x="535" y="732" type="curve" smooth="yes"/>
			<point x="893" y="732"/>
			<point x="1124" y="943"/>
			<point x="1124" y="1194" type="curve" smooth="yes"/>
			<point x="1124" y="1425"/>
			<point x="946" y="1610"/>
			<point x="590" y="1610" type="curve" smooth="yes"/>
			<point x="466" y="1610"/>
			<point x="357" y="1588"/>
			<point x="357" y="1551" type="curve" smooth="yes"/>
			<point x="357" y="1538"/>
			<point x="370" y="1522"/>
		</contour>
		<contour>
			<point x="354" y="820" type="curve"/>
			<point x="548" y="1534" type="line"/>
			<point x="564" y="1535"/>
			<point x="579" y="1535"/>
			<point x="594" y="1535" type="curve" smooth="yes"/>
			<point x="863" y="1535"/>
			<point x="1046" y="1406"/>
			<point x="1046" y="1191" type="curve" smooth="yes"/>
			<point x="1046" y="980"/>
			<point x="857" y="807"/>
			<point x="533" y="807" type="curve" smooth="yes"/>
			<point x="464" y="807"/>
			<point x="399" y="812"/>
		</contour>
	</outline>
	<anchor name="bottom" x="500" y="0"/>
	<anchor name="top" x="759" y="1600"/>
</glyph>
<glyph name="S" format="2">
	<advance width="1085"/>
	<unicode hex="0053"/>
	<anchor x="439" y="0" name="bottom"/>
	<anchor x="701" y="1600" name="top"/>
	<outline>
		<contour>
			<point x="30" y="75"/>
			<point x="38" y="63"/>
			<point x="56" y="54" type="curve" smooth="yes"/>
			<point x="128" y="18"/>
			<point x="253" y="-7"/>
			<point x="379" y="-7" type="curve" smooth="yes"/>
			<point x="637" y="-7"/>
			<point x="874" y="152"/>
			<point x="874" y="423" type="curve" smooth="yes"/>
			<point x="874" y="614"/>
			<point x="749" y="745"/>
			<point x="625" y="872" type="curve" smooth="yes"/>
			<point x="509" y="991"/>
			<point x="398" y="1108"/>
			<point x="398" y="1268" type="curve" smooth="yes"/>
			<point x="398" y="1432"/>
			<point x="527" y="1550"/>
			<point x="699" y="1550" type="curve" smooth="yes"/>
			<point x="792" y="1550"/>
			<point x="878" y="1524"/>
			<point x="932" y="1499" type="curve" smooth="yes"/>
			<point x="958" y="1487"/>
			<point x="969" y="1486"/>
			<point x="977" y="1486" type="curve" smooth="yes"/>
			<point x="993" y="1486"/>
			<point x="1005" y="1501"/>
			<point x="1005" y="1516" type="curve" smooth="yes"/>
			<point x="1005" y="1533"/>
			<point x="989" y="1551"/>
			<point x="925" y="1581" type="curve" smooth="yes"/>
			<point x="865" y="1609"/>
			<point x="787" y="1625"/>
			<point x="710" y="1625" type="curve" smooth="yes"/>
			<point x="477" y="1625"/>
			<point x="318" y="1467"/>
			<point x="318" y="1261" type="curve" smooth="yes"/>
			<point x="318" y="1073"/>
			<point x="445" y="941"/>
			<point x="568" y="814" type="curve" smooth="yes"/>
			<point x="685" y="693"/>
			<point x="797" y="577"/>
			<point x="797" y="419" type="curve" smooth="yes"/>
			<point x="797" y="190"/>
			<point x="597" y="68"/>
			<point x="389" y="68" type="curve" smooth="yes"/>
			<point x="271" y="68"/>
			<point x="208" y="79"/>
			<point x="134" y="102" type="curve" smooth="yes"/>
			<point x="126" y="105"/>
			<point x="118" y="108"/>
			<point x="111" y="110" type="curve" smooth="yes"/>
			<point x="91" y="118"/>
			<point x="77" y="123"/>
			<point x="63" y="123" type="curve" smooth="yes"/>
			<point x="41" y="123"/>
			<point x="30" y="102"/>
			<point x="30" y="85" type="curve" smooth="yes"/>
		</contour>
	</outline>
</glyph>
<glyph name="T" format="2">
	<advance width="1078"/>
	<unicode hex="0054"/>
	<anchor x="365" y="0" name="bottom"/>
	<anchor x="533" y="717" name="center"/>
	<anchor x="778" y="1600" name="top"/>
	<outline>
		<contour>
			<point x="260" y="1562" type="curve" smooth="yes"/>
			<point x="260" y="1540"/>
			<point x="272" y="1527"/>
			<point x="295" y="1527" type="curve"/>
			<point x="731" y="1530" type="line"/>
			<point x="606" y="1124"/>
			<point x="433" y="505"/>
			<point x="354" y="141" type="curve" smooth="yes"/>
			<point x="332" y="40"/>
			<point x="330" y="25"/>
			<point x="330" y="15" type="curve" smooth="yes"/>
			<point x="330" y="-3"/>
			<point x="347" y="-12"/>
			<point x="368" y="-12" type="curve" smooth="yes"/>
			<point x="386" y="-12"/>
			<point x="401" y="1"/>
			<point x="408" y="34" type="curve" smooth="yes"/>
			<point x="504" y="477"/>
			<point x="682" y="1111"/>
			<point x="809" y="1530" type="curve"/>
			<point x="1255" y="1534" type="line"/>
			<point x="1294" y="1534"/>
			<point x="1308" y="1551"/>
			<point x="1308" y="1574" type="curve" smooth="yes"/>
			<point x="1308" y="1592"/>
			<point x="1297" y="1607"/>
			<point x="1270" y="1607" type="curve" smooth="yes"/>
			<point x="829" y="1607" type="line" smooth="yes"/>
			<point x="703" y="1607"/>
			<point x="339" y="1602"/>
			<point x="308" y="1601" type="curve" smooth="yes"/>
			<point x="277" y="1600"/>
			<point x="260" y="1582"/>
		</contour>
	</outline>
</glyph>
<glyph name="U" format="2">
	<advance width="1055"/>
	<unicode hex="0055"/>
	<anchor x="510" y="0" name="bottom"/>
	<anchor x="975" y="-12" name="ogonek"/>
	<anchor x="931" y="1600" name="top"/>
	<anchor x="1595" y="1434" name="topright"/>
	<outline>
		<contour>
			<point x="972" y="-12" type="curve" smooth="yes"/>
			<point x="1017" y="-12"/>
			<point x="1031" y="8"/>
			<point x="1031" y="29" type="curve" smooth="yes"/>
			<point x="1031" y="52"/>
			<point x="1014" y="63"/>
			<point x="993" y="63" type="curve" smooth="yes"/>
			<point x="961" y="63"/>
			<point x="941" y="82"/>
			<point x="941" y="142" type="curve" smooth="yes"/>
			<point x="941" y="174"/>
			<point x="948" y="211"/>
			<point x="971" y="309" type="curve" smooth="yes"/>
			<point x="1038" y="592"/>
			<point x="1185" y="1094"/>
			<point x="1275" y="1401" type="curve" smooth="yes"/>
			<point x="1318" y="1547"/>
			<point x="1323" y="1567"/>
			<point x="1323" y="1584" type="curve" smooth="yes"/>
			<point x="1323" y="1605"/>
			<point x="1305" y="1614"/>
			<point x="1286" y="1614" type="curve" smooth="yes"/>
			<point x="1263" y="1614"/>
			<point x="1258" y="1603"/>
			<point x="1209" y="1452" type="curve" smooth="yes"/>
			<point x="1122" y="1186"/>
			<point x="1075" y="1081"/>
			<point x="931" y="767" type="curve" smooth="yes"/>
			<point x="698" y="258"/>
			<point x="498" y="63"/>
			<point x="349" y="63" type="curve" smooth="yes"/>
			<point x="273" y="63"/>
			<point x="233" y="122"/>
			<point x="233" y="245" type="curve" smooth="yes"/>
			<point x="233" y="335"/>
			<point x="256" y="454"/>
			<point x="319" y="657" type="curve" smooth="yes"/>
			<point x="347" y="748"/>
			<point x="379" y="850"/>
			<point x="416" y="956" type="curve" smooth="yes"/>
			<point x="476" y="1128"/>
			<point x="535" y="1312"/>
			<point x="581" y="1477" type="curve" smooth="yes"/>
			<point x="603" y="1557"/>
			<point x="603" y="1576"/>
			<point x="603" y="1579" type="curve" smooth="yes"/>
			<point x="603" y="1599"/>
			<point x="585" y="1608"/>
			<point x="562" y="1608" type="curve" smooth="yes"/>
			<point x="545" y="1608"/>
			<point x="536" y="1603"/>
			<point x="517" y="1533" type="curve" smooth="yes"/>
			<point x="464" y="1338"/>
			<point x="397" y="1126"/>
			<point x="333" y="937" type="curve" smooth="yes"/>
			<point x="303" y="847"/>
			<point x="276" y="763"/>
			<point x="252" y="687" type="curve" smooth="yes"/>
			<point x="181" y="462"/>
			<point x="153" y="331"/>
			<point x="153" y="229" type="curve" smooth="yes"/>
			<point x="153" y="76"/>
			<point x="221" y="-12"/>
			<point x="334" y="-12" type="curve" smooth="yes"/>
			<point x="547" y="-12"/>
			<point x="771" y="201"/>
			<point x="1092" y="977" type="curve"/>
			<point x="1032" y="779"/>
			<point x="959" y="528"/>
			<point x="907" y="340" type="curve" smooth="yes"/>
			<point x="879" y="238"/>
			<point x="867" y="179"/>
			<point x="867" y="120" type="curve" smooth="yes"/>
			<point x="867" y="34"/>
			<point x="913" y="-12"/>
		</contour>
	</outline>
</glyph>
<glyph name="V" format="2">
	<unicode hex="0056"/>
	<advance width="1176"/>
	<outline>
		<contour>
			<point x="327" y="1539" type="curve"/>
			<point x="301" y="165" type="line"/>
			<point x="300" y="110"/>
			<point x="300" y="100"/>
			<point x="300" y="63" type="curve" smooth="yes"/>
			<point x="300" y="4"/>
			<point x="317" y="-12"/>
			<point x="355" y="-12" type="curve" smooth="yes"/>
			<point x="379" y="-12"/>
			<point x="396" y="1"/>
			<point x="415" y="41" type="curve" smooth="yes"/>
			<point x="732" y="701"/>
			<point x="988" y="1141"/>
			<point x="1220" y="1423" type="curve" smooth="yes"/>
			<point x="1277" y="1492"/>
			<point x="1320" y="1519"/>
			<point x="1361" y="1544" type="curve" smooth="yes"/>
			<point x="1373" y="1551"/>
			<point x="1376" y="1559"/>
			<point x="1376" y="1568" type="curve" smooth="yes"/>
			<point x="1376" y="1583"/>
			<point x="1363" y="1600"/>
			<point x="1341" y="1600" type="curve" smooth="yes"/>
			<point x="1303" y="1600"/>
			<point x="1257" y="1570"/>
			<point x="1189" y="1495" type="curve" smooth="yes"/>
			<point x="975" y="1261"/>
			<point x="683" y="766"/>
			<point x="370" y="100" type="curve"/>
			<point x="404" y="1559" type="line"/>
			<point x="404" y="1592"/>
			<point x="392" y="1600"/>
			<point x="369" y="1600" type="curve" smooth="yes"/>
			<point x="343" y="1600"/>
			<point x="327" y="1589"/>
		</contour>
	</outline>
	<anchor name="bottom" x="521" y="0"/>
	<anchor name="top" x="938" y="1602"/>
</glyph>
<glyph name="W" format="2">
	<advance width="1834"/>
	<unicode hex="0057"/>
	<anchor x="694" y="0" name="bottom"/>
	<anchor x="1078" y="1600" name="top"/>
	<outline>
		<contour>
			<point x="327" y="1539" type="curve"/>
			<point x="300" y="167" type="line"/>
			<point x="300" y="122"/>
			<point x="300" y="100"/>
			<point x="300" y="63" type="curve" smooth="yes"/>
			<point x="300" y="4"/>
			<point x="317" y="-12"/>
			<point x="355" y="-12" type="curve" smooth="yes"/>
			<point x="379" y="-12"/>
			<point x="398" y="-1"/>
			<point x="424" y="56" type="curve" smooth="yes"/>
			<point x="640" y="519"/>
			<point x="821" y="889"/>
			<point x="994" y="1167" type="curve"/>
			<point x="981" y="1194" type="line"/>
			<point x="959" y="152" type="line" smooth="yes"/>
			<point x="958" y="122"/>
			<point x="958" y="100"/>
			<point x="958" y="63" type="curve" smooth="yes"/>
			<point x="958" y="4"/>
			<point x="975" y="-12"/>
			<point x="1013" y="-12" type="curve" smooth="yes"/>
			<point x="1037" y="-12"/>
			<point x="1054" y="1"/>
			<point x="1073" y="41" type="curve" smooth="yes"/>
			<point x="1390" y="701"/>
			<point x="1646" y="1141"/>
			<point x="1878" y="1423" type="curve" smooth="yes"/>
			<point x="1935" y="1492"/>
			<point x="1978" y="1519"/>
			<point x="2019" y="1544" type="curve" smooth="yes"/>
			<point x="2031" y="1551"/>
			<point x="2034" y="1559"/>
			<point x="2034" y="1568" type="curve" smooth="yes"/>
			<point x="2034" y="1583"/>
			<point x="2021" y="1600"/>
			<point x="1999" y="1600" type="curve" smooth="yes"/>
			<point x="1961" y="1600"/>
			<point x="1915" y="1570"/>
			<point x="1847" y="1495" type="curve" smooth="yes"/>
			<point x="1629" y="1257"/>
			<point x="1330" y="748"/>
			<point x="1011" y="63" type="curve"/>
			<point x="1027" y="55" type="line"/>
			<point x="1053" y="1239" type="line"/>
			<point x="1053" y="1280"/>
			<point x="1037" y="1291"/>
			<point x="1018" y="1291" type="curve" smooth="yes"/>
			<point x="1000" y="1291"/>
			<point x="988" y="1284"/>
			<point x="956" y="1236" type="curve" smooth="yes"/>
			<point x="797" y="996"/>
			<point x="585" y="575"/>
			<point x="358" y="65" type="curve"/>
			<point x="369" y="55" type="line"/>
			<point x="404" y="1539" type="line"/>
			<point x="404" y="1588"/>
			<point x="392" y="1600"/>
			<point x="369" y="1600" type="curve" smooth="yes"/>
			<point x="343" y="1600"/>
			<point x="327" y="1589"/>
		</contour>
	</outline>
</glyph>
<glyph name="X" format="2">
	<advance width="1233"/>
	<unicode hex="0058"/>
	<guideline x="-100" y="79" angle="230.2583"/>
	<anchor x="295" y="0" name="bottom"/>
	<anchor x="804" y="1600" name="top"/>
	<outline>
		<contour>
			<point x="604" y="752" type="line"/>
			<point x="575" y="821" type="line"/>
			<point x="-67" y="75" type="line" smooth="yes"/>
			<point x="-95" y="42"/>
			<point x="-100" y="34"/>
			<point x="-100" y="23" type="curve" smooth="yes"/>
			<point x="-100" y="4"/>
			<point x="-85" y="-12"/>
			<point x="-65" y="-12" type="curve" smooth="yes"/>
			<point x="-52" y="-12"/>
			<point x="-40" y="-5"/>
			<point x="-17" y="22" type="curve" smooth="yes"/>
		</contour>
		<contour>
			<point x="603" y="835" type="line"/>
			<point x="633" y="764" type="line"/>
			<point x="1292" y="1523" type="line" smooth="yes"/>
			<point x="1306" y="1539"/>
			<point x="1313" y="1552"/>
			<point x="1313" y="1563" type="curve" smooth="yes"/>
			<point x="1313" y="1580"/>
			<point x="1298" y="1600"/>
			<point x="1277" y="1600" type="curve" smooth="yes"/>
			<point x="1263" y="1600"/>
			<point x="1251" y="1592"/>
			<point x="1229" y="1566" type="curve" smooth="yes"/>
		</contour>
		<contour>
			<point x="765" y="470"/>
			<point x="488" y="1154"/>
			<point x="363" y="1556" type="curve" smooth="yes"/>
			<point x="351" y="1595"/>
			<point x="341" y="1600"/>
			<point x="330" y="1600" type="curve" smooth="yes"/>
			<point x="305" y="1600"/>
			<point x="284" y="1580"/>
			<point x="284" y="1561" type="curve" smooth="yes"/>
			<point x="284" y="1540"/>
			<point x="309" y="1454"/>
			<point x="350" y="1335" type="curve" smooth="yes"/>
			<point x="458" y="1022"/>
			<point x="671" y="487"/>
			<point x="823" y="169" type="curve" smooth="yes"/>
			<point x="901" y="6"/>
			<point x="941" y="-54"/>
			<point x="970" y="-54" type="curve" smooth="yes"/>
			<point x="985" y="-54"/>
			<point x="1012" y="-39"/>
			<point x="1012" y="-18" type="curve" smooth="yes"/>
			<point x="1012" y="12"/>
			<point x="957" y="85"/>
			<point x="889" y="221" type="curve" smooth="yes"/>
		</contour>
	</outline>
</glyph>
<glyph name="Y" format="2">
	<unicode hex="0059"/>
	<advance width="1064"/>
	<outline>
		<contour>
			<point x="1230" y="1574" type="curve" smooth="yes"/>
			<point x="985" y="1300"/>
			<point x="747" y="1009"/>
			<point x="524" y="707" type="curve"/>
			<point x="344" y="1540" type="line" smooth="yes"/>
			<point x="330" y="1605"/>
			<point x="327" y="1614"/>
			<point x="303" y="1614" type="curve" smooth="yes"/>
			<point x="280" y="1614"/>
			<point x="256" y="1600"/>
			<point x="256" y="1583" type="curve" smooth="yes"/>
			<point x="256" y="1568"/>
			<point x="264" y="1529"/>
			<point x="270" y="1502" type="curve" smooth="yes"/>
			<point x="464" y="624" type="line"/>
			<point x="334" y="445"/>
			<point x="209" y="262"/>
			<point x="93" y="77" type="curve" smooth="yes"/>
			<point x="73" y="45"/>
			<point x="70" y="36"/>
			<point x="70" y="25" type="curve" smooth="yes"/>
			<point x="70" y="2"/>
			<point x="90" y="-12"/>
			<point x="111" y="-12" type="curve" smooth="yes"/>
			<point x="122" y="-12"/>
			<point x="134" y="-10"/>
			<point x="154" y="22" type="curve" smooth="yes"/>
			<point x="480" y="552"/>
			<point x="875" y="1062"/>
			<point x="1287" y="1527" type="curve" smooth="yes"/>
			<point x="1312" y="1555"/>
			<point x="1314" y="1564"/>
			<point x="1314" y="1573" type="curve" smooth="yes"/>
			<point x="1314" y="1594"/>
			<point x="1294" y="1609"/>
			<point x="1274" y="1609" type="curve" smooth="yes"/>
			<point x="1262" y="1609"/>
			<point x="1254" y="1601"/>
		</contour>
	</outline>
	<anchor name="bottom" x="315" y="0"/>
	<anchor name="top" x="750" y="1600"/>
	<anchor name="topleft" x="372" y="1434"/>
</glyph>
<glyph name="Z" format="2">
	<advance width="834"/>
	<unicode hex="005A"/>
	<anchor x="383" y="0" name="bottom"/>
	<anchor x="755" y="820" name="center"/>
	<anchor x="831" y="1600" name="top"/>
	<anchor x="1338" y="1600" name="topright"/>
	<outline>
		<contour>
			<point x="-50" y="63" type="curve" smooth="yes"/>
			<point x="-50" y="12"/>
			<point x="-14" y="-25"/>
			<point x="45" y="-25" type="curve" smooth="yes"/>
			<point x="98" y="-25"/>
			<point x="148" y="-2"/>
			<point x="248" y="107" type="curve"/>
			<point x="295" y="96"/>
			<point x="341" y="81"/>
			<point x="389" y="64" type="curve" smooth="yes"/>
			<point x="494" y="27"/>
			<point x="609" y="-12"/>
			<point x="766" y="-12" type="curve" smooth="yes"/>
			<point x="801" y="-12"/>
			<point x="819" y="4"/>
			<point x="819" y="30" type="curve" smooth="yes"/>
			<point x="819" y="50"/>
			<point x="801" y="63"/>
			<point x="777" y="63" type="curve" smooth="yes"/>
			<point x="621" y="63"/>
			<point x="506" y="100"/>
			<point x="401" y="137" type="curve" smooth="yes"/>
			<point x="368" y="149"/>
			<point x="335" y="160"/>
			<point x="302" y="169" type="curve"/>
			<point x="404" y="288"/>
			<point x="548" y="478"/>
			<point x="770" y="778" type="curve" smooth="yes"/>
			<point x="1133" y="1269"/>
			<point x="1224" y="1422"/>
			<point x="1271" y="1505" type="curve" smooth="yes"/>
			<point x="1291" y="1540"/>
			<point x="1298" y="1557"/>
			<point x="1298" y="1573" type="curve" smooth="yes"/>
			<point x="1298" y="1596"/>
			<point x="1289" y="1611"/>
			<point x="1259" y="1611" type="curve" smooth="yes"/>
			<point x="1255" y="1611"/>
			<point x="1245" y="1610"/>
			<point x="1230" y="1608" type="curve" smooth="yes"/>
			<point x="1168" y="1601"/>
			<point x="1014" y="1584"/>
			<point x="731" y="1584" type="curve" smooth="yes"/>
			<point x="601" y="1584"/>
			<point x="509" y="1593"/>
			<point x="452" y="1599" type="curve" smooth="yes"/>
			<point x="426" y="1602"/>
			<point x="408" y="1604"/>
			<point x="396" y="1604" type="curve" smooth="yes"/>
			<point x="373" y="1604"/>
			<point x="358" y="1594"/>
			<point x="358" y="1572" type="curve" smooth="yes"/>
			<point x="358" y="1552"/>
			<point x="370" y="1541"/>
			<point x="397" y="1534" type="curve" smooth="yes"/>
			<point x="445" y="1522"/>
			<point x="591" y="1509"/>
			<point x="717" y="1509" type="curve" smooth="yes"/>
			<point x="920" y="1509"/>
			<point x="1093" y="1521"/>
			<point x="1211" y="1537" type="curve"/>
			<point x="1151" y="1435"/>
			<point x="1047" y="1273"/>
			<point x="697" y="800" type="curve" smooth="yes"/>
			<point x="468" y="491"/>
			<point x="322" y="299"/>
			<point x="225" y="187" type="curve"/>
			<point x="198" y="191"/>
			<point x="170" y="194"/>
			<point x="142" y="194" type="curve" smooth="yes"/>
			<point x="22" y="194"/>
			<point x="-50" y="132"/>
		</contour>
		<contour>
			<point x="27" y="73" type="curve" smooth="yes"/>
			<point x="27" y="97"/>
			<point x="57" y="122"/>
			<point x="130" y="122" type="curve" smooth="yes"/>
			<point x="141" y="122"/>
			<point x="152" y="122"/>
			<point x="163" y="121" type="curve"/>
			<point x="113" y="70"/>
			<point x="79" y="50"/>
			<point x="52" y="50" type="curve" smooth="yes"/>
			<point x="37" y="50"/>
			<point x="27" y="58"/>
		</contour>
	</outline>
</glyph>
<glyph name="bracketleft" format="2">
	<advance width="942"/>
	<unicode hex="005B"/>
	<outline>
		<contour>
			<point x="286" y="-353" type="curve" smooth="yes"/>
			<point x="504" y="-353" type="line" smooth="yes"/>
			<point x="544" y="-353"/>
			<point x="569" y="-336"/>
			<point x="569" y="-309" type="curve" smooth="yes"/>
			<point x="569" y="-291"/>
			<point x="556" y="-278"/>
			<point x="524" y="-278" type="curve" smooth="yes"/>
			<point x="306" y="-278" type="line" smooth="yes"/>
			<point x="276" y="-278"/>
			<point x="263" y="-274"/>
			<point x="263" y="-253" type="curve" smooth="yes"/>
			<point x="263" y="-245"/>
			<point x="265" y="-234"/>
			<point x="273" y="-203" type="curve" smooth="yes"/>
			<point x="741" y="1554" type="line" smooth="yes"/>
			<point x="752" y="1596"/>
			<point x="758" y="1600"/>
			<point x="801" y="1600" type="curve" smooth="yes"/>
			<point x="1016" y="1600" type="line" smooth="yes"/>
			<point x="1061" y="1600"/>
			<point x="1084" y="1617"/>
			<point x="1084" y="1641" type="curve" smooth="yes"/>
			<point x="1084" y="1662"/>
			<point x="1069" y="1675"/>
			<point x="1026" y="1675" type="curve" smooth="yes"/>
			<point x="780" y="1675" type="line" smooth="yes"/>
			<point x="719" y="1675"/>
			<point x="692" y="1649"/>
			<point x="676" y="1590" type="curve" smooth="yes"/>
			<point x="198" y="-192" type="line" smooth="yes"/>
			<point x="188" y="-229"/>
			<point x="185" y="-246"/>
			<point x="185" y="-262" type="curve" smooth="yes"/>
			<point x="185" y="-326"/>
			<point x="229" y="-353"/>
		</contour>
	</outline>
</glyph>
<glyph name="backslash" format="2">
	<unicode hex="005C"/>
	<advance width="926"/>
	<outline>
		<contour>
			<point x="588" y="-112" type="curve" smooth="yes"/>
			<point x="609" y="-112"/>
			<point x="626" y="-95"/>
			<point x="626" y="-74" type="curve" smooth="yes"/>
			<point x="626" y="-67"/>
			<point x="621" y="-37"/>
			<point x="620" y="-31" type="curve" smooth="yes"/>
			<point x="324" y="1615" type="line" smooth="yes"/>
			<point x="318" y="1648"/>
			<point x="309" y="1657"/>
			<point x="288" y="1657" type="curve" smooth="yes"/>
			<point x="263" y="1657"/>
			<point x="250" y="1643"/>
			<point x="250" y="1623" type="curve" smooth="yes"/>
			<point x="250" y="1609"/>
			<point x="253" y="1588"/>
			<point x="260" y="1549" type="curve" smooth="yes"/>
			<point x="554" y="-84" type="line" smooth="yes"/>
			<point x="558" y="-106"/>
			<point x="573" y="-112"/>
		</contour>
	</outline>
</glyph>
<glyph name="bracketright" format="2">
	<unicode hex="005D"/>
	<advance width="942"/>
	<outline>
		<contour>
			<point x="656" y="1672" type="curve" smooth="yes"/>
			<point x="438" y="1672" type="line" smooth="yes"/>
			<point x="398" y="1672"/>
			<point x="373" y="1655"/>
			<point x="373" y="1628" type="curve" smooth="yes"/>
			<point x="373" y="1610"/>
			<point x="386" y="1597"/>
			<point x="418" y="1597" type="curve" smooth="yes"/>
			<point x="636" y="1597" type="line" smooth="yes"/>
			<point x="666" y="1597"/>
			<point x="679" y="1593"/>
			<point x="679" y="1572" type="curve" smooth="yes"/>
			<point x="679" y="1564"/>
			<point x="677" y="1553"/>
			<point x="669" y="1522" type="curve" smooth="yes"/>
			<point x="201" y="-235" type="line" smooth="yes"/>
			<point x="190" y="-277"/>
			<point x="184" y="-281"/>
			<point x="141" y="-281" type="curve" smooth="yes"/>
			<point x="-74" y="-281" type="line" smooth="yes"/>
			<point x="-119" y="-281"/>
			<point x="-142" y="-298"/>
			<point x="-142" y="-322" type="curve" smooth="yes"/>
			<point x="-142" y="-343"/>
			<point x="-127" y="-356"/>
			<point x="-84" y="-356" type="curve" smooth="yes"/>
			<point x="162" y="-356" type="line" smooth="yes"/>
			<point x="223" y="-356"/>
			<point x="250" y="-330"/>
			<point x="266" y="-271" type="curve" smooth="yes"/>
			<point x="744" y="1511" type="line" smooth="yes"/>
			<point x="754" y="1548"/>
			<point x="757" y="1565"/>
			<point x="757" y="1581" type="curve" smooth="yes"/>
			<point x="757" y="1645"/>
			<point x="713" y="1672"/>
		</contour>
	</outline>
</glyph>
<glyph name="a" format="2">
	<unicode hex="0061"/>
	<advance width="783"/>
	<outline>
		<contour>
			<point x="774" y="891" type="curve" smooth="yes"/>
			<point x="767" y="864" type="line"/>
			<point x="662" y="911"/>
			<point x="573" y="935"/>
			<point x="515" y="935" type="curve" smooth="yes"/>
			<point x="287" y="935"/>
			<point x="65" y="604"/>
			<point x="65" y="248" type="curve" smooth="yes"/>
			<point x="65" y="73"/>
			<point x="127" y="-12"/>
			<point x="213" y="-12" type="curve" smooth="yes"/>
			<point x="364" y="-12"/>
			<point x="523" y="180"/>
			<point x="644" y="398" type="curve"/>
			<point x="626" y="328" type="line" smooth="yes"/>
			<point x="592" y="196"/>
			<point x="585" y="164"/>
			<point x="585" y="113" type="curve" smooth="yes"/>
			<point x="585" y="26"/>
			<point x="626" y="-12"/>
			<point x="706" y="-12" type="curve" smooth="yes"/>
			<point x="739" y="-12"/>
			<point x="763" y="6"/>
			<point x="763" y="34" type="curve" smooth="yes"/>
			<point x="763" y="50"/>
			<point x="754" y="63"/>
			<point x="725" y="63" type="curve" smooth="yes"/>
			<point x="685" y="63"/>
			<point x="665" y="82"/>
			<point x="665" y="133" type="curve" smooth="yes"/>
			<point x="665" y="171"/>
			<point x="677" y="222"/>
			<point x="703" y="317" type="curve" smooth="yes"/>
			<point x="843" y="831" type="line" smooth="yes"/>
			<point x="850" y="857"/>
			<point x="858" y="889"/>
			<point x="858" y="901" type="curve" smooth="yes"/>
			<point x="858" y="929"/>
			<point x="838" y="935"/>
			<point x="817" y="935" type="curve" smooth="yes"/>
			<point x="797" y="935"/>
			<point x="781" y="919"/>
		</contour>
		<contour>
			<point x="145" y="261" type="curve" smooth="yes"/>
			<point x="145" y="561"/>
			<point x="333" y="860"/>
			<point x="520" y="860" type="curve" smooth="yes"/>
			<point x="587" y="860"/>
			<point x="658" y="843"/>
			<point x="750" y="800" type="curve"/>
			<point x="744" y="778" type="line" smooth="yes"/>
			<point x="635" y="380"/>
			<point x="360" y="63"/>
			<point x="230" y="63" type="curve" smooth="yes"/>
			<point x="179" y="63"/>
			<point x="145" y="113"/>
		</contour>
	</outline>
	<anchor name="bottom" x="275" y="0"/>
	<anchor name="ogonek" x="694" y="0"/>
	<anchor name="top" x="540" y="910"/>
</glyph>
<glyph name="b" format="2">
	<advance width="1000"/>
	<unicode hex="0062"/>
	<outline>
		<contour>
			<point x="170" y="203" type="curve" smooth="yes"/>
			<point x="170" y="281"/>
			<point x="186" y="360"/>
			<point x="224" y="503" type="curve" smooth="yes"/>
			<point x="506" y="1554" type="line" smooth="yes"/>
			<point x="510" y="1569"/>
			<point x="514" y="1587"/>
			<point x="514" y="1595" type="curve" smooth="yes"/>
			<point x="514" y="1612"/>
			<point x="492" y="1625"/>
			<point x="467" y="1625" type="curve" smooth="yes"/>
			<point x="447" y="1625"/>
			<point x="438" y="1612"/>
			<point x="429" y="1577" type="curve" smooth="yes"/>
			<point x="150" y="523" type="line" smooth="yes"/>
			<point x="110" y="373"/>
			<point x="90" y="274"/>
			<point x="90" y="189" type="curve" smooth="yes"/>
			<point x="90" y="57"/>
			<point x="166" y="-12"/>
			<point x="268" y="-12" type="curve" smooth="yes"/>
			<point x="538" y="-12"/>
			<point x="810" y="324"/>
			<point x="810" y="666" type="curve" smooth="yes"/>
			<point x="810" y="841"/>
			<point x="719" y="935"/>
			<point x="584" y="935" type="curve" smooth="yes"/>
			<point x="499" y="935"/>
			<point x="427" y="898"/>
			<point x="427" y="868" type="curve" smooth="yes"/>
			<point x="427" y="850"/>
			<point x="439" y="837"/>
			<point x="454" y="837" type="curve" smooth="yes"/>
			<point x="467" y="837"/>
			<point x="483" y="843"/>
			<point x="501" y="852" type="curve" smooth="yes"/>
			<point x="524" y="864"/>
			<point x="549" y="870"/>
			<point x="581" y="870" type="curve" smooth="yes"/>
			<point x="669" y="870"/>
			<point x="730" y="798"/>
			<point x="730" y="645" type="curve" smooth="yes"/>
			<point x="730" y="358"/>
			<point x="502" y="63"/>
			<point x="283" y="63" type="curve" smooth="yes"/>
			<point x="208" y="63"/>
			<point x="170" y="106"/>
		</contour>
	</outline>
</glyph>
<glyph name="c" format="2">
	<unicode hex="0063"/>
	<advance width="444"/>
	<outline>
		<contour>
			<point x="376" y="-12" type="curve" smooth="yes"/>
			<point x="403" y="-12"/>
			<point x="425" y="11"/>
			<point x="425" y="37" type="curve" smooth="yes"/>
			<point x="425" y="53"/>
			<point x="413" y="63"/>
			<point x="396" y="63" type="curve" smooth="yes"/>
			<point x="235" y="63"/>
			<point x="145" y="150"/>
			<point x="145" y="328" type="curve" smooth="yes"/>
			<point x="145" y="588"/>
			<point x="336" y="860"/>
			<point x="524" y="860" type="curve" smooth="yes"/>
			<point x="564" y="860"/>
			<point x="595" y="854"/>
			<point x="627" y="838" type="curve" smooth="yes"/>
			<point x="659" y="822"/>
			<point x="670" y="818"/>
			<point x="681" y="818" type="curve" smooth="yes"/>
			<point x="698" y="818"/>
			<point x="711" y="833"/>
			<point x="711" y="851" type="curve" smooth="yes"/>
			<point x="711" y="881"/>
			<point x="628" y="935"/>
			<point x="534" y="935" type="curve" smooth="yes"/>
			<point x="294" y="935"/>
			<point x="65" y="626"/>
			<point x="65" y="315" type="curve" smooth="yes"/>
			<point x="65" y="98"/>
			<point x="201" y="-12"/>
		</contour>
	</outline>
	<anchor name="bottom" x="390" y="0"/>
	<anchor name="top" x="550" y="910"/>
</glyph>
<glyph name="d" format="2">
	<unicode hex="0064"/>
	<advance width="785"/>
	<outline>
		<contour>
			<point x="954" y="1581" type="curve" smooth="yes"/>
			<point x="766" y="864" type="line"/>
			<point x="662" y="911"/>
			<point x="573" y="935"/>
			<point x="515" y="935" type="curve" smooth="yes"/>
			<point x="287" y="935"/>
			<point x="65" y="604"/>
			<point x="65" y="248" type="curve" smooth="yes"/>
			<point x="65" y="73"/>
			<point x="127" y="-12"/>
			<point x="213" y="-12" type="curve" smooth="yes"/>
			<point x="364" y="-12"/>
			<point x="523" y="180"/>
			<point x="644" y="398" type="curve"/>
			<point x="626" y="328" type="line" smooth="yes"/>
			<point x="590" y="189"/>
			<point x="585" y="158"/>
			<point x="585" y="124" type="curve" smooth="yes"/>
			<point x="585" y="26"/>
			<point x="626" y="-12"/>
			<point x="706" y="-12" type="curve" smooth="yes"/>
			<point x="739" y="-12"/>
			<point x="763" y="6"/>
			<point x="763" y="34" type="curve" smooth="yes"/>
			<point x="763" y="50"/>
			<point x="754" y="63"/>
			<point x="725" y="63" type="curve" smooth="yes"/>
			<point x="685" y="63"/>
			<point x="665" y="82"/>
			<point x="665" y="133" type="curve" smooth="yes"/>
			<point x="665" y="171"/>
			<point x="678" y="223"/>
			<point x="705" y="326" type="curve" smooth="yes"/>
			<point x="1023" y="1521" type="line" smooth="yes"/>
			<point x="1030" y="1547"/>
			<point x="1038" y="1579"/>
			<point x="1038" y="1591" type="curve" smooth="yes"/>
			<point x="1038" y="1619"/>
			<point x="1018" y="1625"/>
			<point x="997" y="1625" type="curve" smooth="yes"/>
			<point x="977" y="1625"/>
			<point x="961" y="1609"/>
		</contour>
		<contour>
			<point x="146" y="261" type="curve" smooth="yes"/>
			<point x="146" y="561"/>
			<point x="333" y="860"/>
			<point x="520" y="860" type="curve" smooth="yes"/>
			<point x="587" y="860"/>
			<point x="657" y="842"/>
			<point x="751" y="798" type="curve"/>
			<point x="616" y="365"/>
			<point x="357" y="63"/>
			<point x="230" y="63" type="curve" smooth="yes"/>
			<point x="180" y="63"/>
			<point x="146" y="113"/>
		</contour>
	</outline>
	<anchor name="bottom" x="275" y="0"/>
	<anchor name="center" x="858" y="1208"/>
	<anchor name="top" x="515" y="910"/>
	<anchor name="topright" x="1038" y="1600"/>
</glyph>
<glyph name="e" format="2">
	<unicode hex="0065"/>
	<advance width="529"/>
	<outline>
		<contour>
			<point x="504" y="925" type="curve" smooth="yes"/>
			<point x="272" y="925"/>
			<point x="70" y="660"/>
			<point x="70" y="379" type="curve" smooth="yes"/>
			<point x="70" y="149"/>
			<point x="200" y="-12"/>
			<point x="450" y="-12" type="curve" smooth="yes"/>
			<point x="499" y="-12"/>
			<point x="510" y="9"/>
			<point x="510" y="28" type="curve" smooth="yes"/>
			<point x="510" y="51"/>
			<point x="493" y="63"/>
			<point x="467" y="63" type="curve" smooth="yes"/>
			<point x="257" y="63"/>
			<point x="150" y="185"/>
			<point x="150" y="370" type="curve" smooth="yes"/>
			<point x="150" y="399"/>
			<point x="151" y="427"/>
			<point x="154" y="455" type="curve"/>
			<point x="186" y="451"/>
			<point x="217" y="449"/>
			<point x="239" y="449" type="curve" smooth="yes"/>
			<point x="552" y="449"/>
			<point x="697" y="594"/>
			<point x="697" y="746" type="curve" smooth="yes"/>
			<point x="697" y="857"/>
			<point x="618" y="925"/>
		</contour>
		<contour>
			<point x="166" y="517" type="curve"/>
			<point x="212" y="707"/>
			<point x="355" y="853"/>
			<point x="499" y="853" type="curve" smooth="yes"/>
			<point x="573" y="853"/>
			<point x="619" y="809"/>
			<point x="619" y="737" type="curve" smooth="yes"/>
			<point x="619" y="624"/>
			<point x="521" y="512"/>
			<point x="252" y="512" type="curve" smooth="yes"/>
			<point x="227" y="512"/>
			<point x="197" y="514"/>
		</contour>
	</outline>
	<anchor name="bottom" x="396" y="0"/>
	<anchor name="ogonek" x="467" y="0"/>
	<anchor name="top" x="489" y="910"/>
</glyph>
<glyph name="f" format="2">
	<advance width="145"/>
	<unicode hex="0066"/>
	<outline>
		<contour>
			<point x="775" y="1550" type="curve" smooth="yes"/>
			<point x="834" y="1550"/>
			<point x="876" y="1528"/>
			<point x="906" y="1511" type="curve" smooth="yes"/>
			<point x="924" y="1501"/>
			<point x="938" y="1494"/>
			<point x="949" y="1494" type="curve" smooth="yes"/>
			<point x="964" y="1494"/>
			<point x="977" y="1510"/>
			<point x="977" y="1527" type="curve" smooth="yes"/>
			<point x="977" y="1558"/>
			<point x="882" y="1625"/>
			<point x="779" y="1625" type="curve" smooth="yes"/>
			<point x="608" y="1625"/>
			<point x="471" y="1445"/>
			<point x="374" y="1045" type="curve" smooth="yes"/>
			<point x="301" y="746"/>
			<point x="258" y="507"/>
			<point x="217" y="271" type="curve"/>
			<point x="194" y="271"/>
			<point x="172" y="268"/>
			<point x="158" y="264" type="curve" smooth="yes"/>
			<point x="143" y="260"/>
			<point x="136" y="251"/>
			<point x="136" y="233" type="curve" smooth="yes"/>
			<point x="136" y="213"/>
			<point x="150" y="199"/>
			<point x="170" y="187" type="curve" smooth="yes"/>
			<point x="181" y="180"/>
			<point x="190" y="173"/>
			<point x="190" y="166" type="curve" smooth="yes"/>
			<point x="190" y="158"/>
			<point x="187" y="143"/>
			<point x="165" y="45" type="curve" smooth="yes"/>
			<point x="110" y="-201"/>
			<point x="50" y="-499"/>
			<point x="50" y="-627" type="curve" smooth="yes"/>
			<point x="50" y="-679"/>
			<point x="66" y="-690"/>
			<point x="92" y="-690" type="curve" smooth="yes"/>
			<point x="119" y="-690"/>
			<point x="132" y="-678"/>
			<point x="145" y="-579" type="curve" smooth="yes"/>
			<point x="168" y="-399"/>
			<point x="243" y="29"/>
			<point x="286" y="239" type="curve"/>
			<point x="328" y="465"/>
			<point x="374" y="692"/>
			<point x="440" y="982" type="curve" smooth="yes"/>
			<point x="538" y="1410"/>
			<point x="642" y="1550"/>
		</contour>
	</outline>
</glyph>
<glyph name="g" format="2">
	<unicode hex="0067"/>
	<advance width="783"/>
	<outline>
		<contour>
			<point x="795" y="935"/>
			<point x="782" y="922"/>
			<point x="768" y="864" type="curve"/>
			<point x="663" y="911"/>
			<point x="574" y="935"/>
			<point x="516" y="935" type="curve" smooth="yes"/>
			<point x="288" y="935"/>
			<point x="66" y="604"/>
			<point x="66" y="248" type="curve" smooth="yes"/>
			<point x="66" y="73"/>
			<point x="128" y="-12"/>
			<point x="214" y="-12" type="curve" smooth="yes"/>
			<point x="367" y="-12"/>
			<point x="529" y="186"/>
			<point x="651" y="408" type="curve"/>
			<point x="602" y="211"/>
			<point x="571" y="83"/>
			<point x="551" y="-6" type="curve"/>
			<point x="198" y="-247"/>
			<point x="48" y="-424"/>
			<point x="48" y="-557" type="curve" smooth="yes"/>
			<point x="48" y="-641"/>
			<point x="104" y="-690"/>
			<point x="178" y="-690" type="curve" smooth="yes"/>
			<point x="332" y="-690"/>
			<point x="504" y="-558"/>
			<point x="604" y="-106" type="curve" smooth="yes"/>
			<point x="644" y="76"/>
			<point x="669" y="185"/>
			<point x="844" y="831" type="curve" smooth="yes"/>
			<point x="851" y="857"/>
			<point x="859" y="889"/>
			<point x="859" y="901" type="curve" smooth="yes"/>
			<point x="859" y="929"/>
			<point x="839" y="935"/>
			<point x="818" y="935" type="curve" smooth="yes"/>
		</contour>
		<contour>
			<point x="123" y="-551" type="curve" smooth="yes"/>
			<point x="123" y="-447"/>
			<point x="256" y="-300"/>
			<point x="530" y="-98" type="curve"/>
			<point x="520" y="-141" type="line" smooth="yes"/>
			<point x="440" y="-486"/>
			<point x="291" y="-615"/>
			<point x="195" y="-615" type="curve" smooth="yes"/>
			<point x="147" y="-615"/>
			<point x="123" y="-591"/>
		</contour>
		<contour>
			<point x="146" y="261" type="curve" smooth="yes"/>
			<point x="146" y="561"/>
			<point x="334" y="860"/>
			<point x="521" y="860" type="curve" smooth="yes"/>
			<point x="588" y="860"/>
			<point x="658" y="843"/>
			<point x="750" y="800" type="curve"/>
			<point x="744" y="778" type="line" smooth="yes"/>
			<point x="635" y="380"/>
			<point x="360" y="63"/>
			<point x="231" y="63" type="curve" smooth="yes"/>
			<point x="180" y="63"/>
			<point x="146" y="113"/>
		</contour>
	</outline>
	<anchor name="bottom" x="231" y="0"/>
	<anchor name="top" x="554" y="910"/>
</glyph>
<glyph name="h" format="2">
	<advance width="804"/>
	<unicode hex="0068"/>
	<anchor x="429" y="1208" name="center"/>
	<outline>
		<contour>
			<point x="526" y="1554" type="line" smooth="yes"/>
			<point x="530" y="1569"/>
			<point x="534" y="1587"/>
			<point x="534" y="1595" type="curve" smooth="yes"/>
			<point x="534" y="1612"/>
			<point x="512" y="1625"/>
			<point x="487" y="1625" type="curve" smooth="yes"/>
			<point x="467" y="1625"/>
			<point x="458" y="1612"/>
			<point x="449" y="1577" type="curve" smooth="yes"/>
			<point x="52" y="83" type="line" smooth="yes"/>
			<point x="42" y="44"/>
			<point x="40" y="34"/>
			<point x="40" y="25" type="curve" smooth="yes"/>
			<point x="40" y="0"/>
			<point x="61" y="-12"/>
			<point x="80" y="-12" type="curve" smooth="yes"/>
			<point x="102" y="-12"/>
			<point x="118" y="1"/>
			<point x="130" y="43" type="curve" smooth="yes"/>
			<point x="164" y="163"/>
			<point x="201" y="264"/>
			<point x="237" y="338" type="curve" smooth="yes"/>
			<point x="391" y="657"/>
			<point x="602" y="860"/>
			<point x="722" y="860" type="curve" smooth="yes"/>
			<point x="771" y="860"/>
			<point x="799" y="829"/>
			<point x="799" y="770" type="curve" smooth="yes"/>
			<point x="799" y="688"/>
			<point x="756" y="573"/>
			<point x="711" y="456" type="curve" smooth="yes"/>
			<point x="649" y="296"/>
			<point x="615" y="176"/>
			<point x="615" y="111" type="curve" smooth="yes"/>
			<point x="615" y="25"/>
			<point x="658" y="-12"/>
			<point x="732" y="-12" type="curve" smooth="yes"/>
			<point x="765" y="-12"/>
			<point x="788" y="6"/>
			<point x="788" y="34" type="curve" smooth="yes"/>
			<point x="788" y="50"/>
			<point x="780" y="63"/>
			<point x="751" y="63" type="curve" smooth="yes"/>
			<point x="714" y="63"/>
			<point x="696" y="78"/>
			<point x="696" y="122" type="curve" smooth="yes"/>
			<point x="696" y="177"/>
			<point x="722" y="272"/>
			<point x="784" y="433" type="curve" smooth="yes"/>
			<point x="832" y="558"/>
			<point x="879" y="687"/>
			<point x="879" y="794" type="curve" smooth="yes"/>
			<point x="879" y="897"/>
			<point x="821" y="935"/>
			<point x="748" y="935" type="curve" smooth="yes"/>
			<point x="591" y="935"/>
			<point x="401" y="771"/>
			<point x="227" y="455" type="curve"/>
		</contour>
	</outline>
</glyph>
<glyph name="k" format="2">
	<unicode hex="006B"/>
	<advance width="794"/>
	<outline>
		<contour>
			<point x="443" y="1577" type="curve" smooth="yes"/>
			<point x="52" y="83" type="line" smooth="yes"/>
			<point x="42" y="44"/>
			<point x="40" y="34"/>
			<point x="40" y="25" type="curve" smooth="yes"/>
			<point x="40" y="0"/>
			<point x="61" y="-12"/>
			<point x="80" y="-12" type="curve" smooth="yes"/>
			<point x="102" y="-12"/>
			<point x="118" y="1"/>
			<point x="130" y="43" type="curve" smooth="yes"/>
			<point x="168" y="178"/>
			<point x="208" y="288"/>
			<point x="270" y="414" type="curve" smooth="yes"/>
			<point x="399" y="676"/>
			<point x="581" y="860"/>
			<point x="692" y="860" type="curve" smooth="yes"/>
			<point x="748" y="860"/>
			<point x="781" y="829"/>
			<point x="781" y="770" type="curve" smooth="yes"/>
			<point x="781" y="663"/>
			<point x="669" y="532"/>
			<point x="415" y="474" type="curve" smooth="yes"/>
			<point x="383" y="467"/>
			<point x="369" y="455"/>
			<point x="369" y="430" type="curve" smooth="yes"/>
			<point x="369" y="420"/>
			<point x="379" y="394"/>
			<point x="393" y="360" type="curve" smooth="yes"/>
			<point x="508" y="85"/>
			<point x="609" y="-12"/>
			<point x="715" y="-12" type="curve" smooth="yes"/>
			<point x="748" y="-12"/>
			<point x="768" y="6"/>
			<point x="768" y="34" type="curve" smooth="yes"/>
			<point x="768" y="50"/>
			<point x="760" y="63"/>
			<point x="731" y="63" type="curve" smooth="yes"/>
			<point x="648" y="63"/>
			<point x="562" y="138"/>
			<point x="445" y="421" type="curve"/>
			<point x="740" y="486"/>
			<point x="859" y="649"/>
			<point x="859" y="789" type="curve" smooth="yes"/>
			<point x="859" y="890"/>
			<point x="799" y="935"/>
			<point x="718" y="935" type="curve" smooth="yes"/>
			<point x="559" y="935"/>
			<point x="365" y="742"/>
			<point x="203" y="410" type="curve"/>
			<point x="203" y="386" type="line"/>
			<point x="520" y="1554" type="line" smooth="yes"/>
			<point x="524" y="1569"/>
			<point x="528" y="1587"/>
			<point x="528" y="1595" type="curve" smooth="yes"/>
			<point x="528" y="1612"/>
			<point x="506" y="1625"/>
			<point x="481" y="1625" type="curve" smooth="yes"/>
			<point x="461" y="1625"/>
			<point x="452" y="1612"/>
		</contour>
	</outline>
	<anchor name="bottom" x="366" y="0"/>
	<anchor name="top" x="711" y="910"/>
</glyph>
<glyph name="l" format="2">
	<advance width="313"/>
	<unicode hex="006C"/>
	<anchor x="144" y="0" name="bottom"/>
	<anchor x="144" y="455" name="center"/>
	<anchor x="528" y="1545" name="top"/>
	<anchor x="542" y="1600" name="topright"/>
	<outline>
		<contour>
			<point x="265" y="578" type="curve" smooth="yes"/>
			<point x="528" y="1545" type="line" smooth="yes"/>
			<point x="534" y="1566"/>
			<point x="538" y="1587"/>
			<point x="538" y="1595" type="curve" smooth="yes"/>
			<point x="538" y="1612"/>
			<point x="516" y="1625"/>
			<point x="491" y="1625" type="curve" smooth="yes"/>
			<point x="471" y="1625"/>
			<point x="462" y="1612"/>
			<point x="453" y="1577" type="curve" smooth="yes"/>
			<point x="192" y="596" type="line" smooth="yes"/>
			<point x="121" y="329"/>
			<point x="90" y="212"/>
			<point x="90" y="130" type="curve" smooth="yes"/>
			<point x="90" y="37"/>
			<point x="138" y="-12"/>
			<point x="235" y="-12" type="curve" smooth="yes"/>
			<point x="268" y="-12"/>
			<point x="291" y="6"/>
			<point x="291" y="34" type="curve" smooth="yes"/>
			<point x="291" y="50"/>
			<point x="283" y="63"/>
			<point x="254" y="63" type="curve" smooth="yes"/>
			<point x="187" y="63"/>
			<point x="170" y="82"/>
			<point x="170" y="144" type="curve" smooth="yes"/>
			<point x="170" y="214"/>
			<point x="196" y="326"/>
		</contour>
	</outline>
</glyph>
<glyph name="m" format="2">
	<advance width="1301"/>
	<unicode hex="006D"/>
	<outline>
		<contour>
			<point x="557" y="33" type="curve" smooth="yes"/>
			<point x="557" y="11"/>
			<point x="564" y="-12"/>
			<point x="597" y="-12" type="curve" smooth="yes"/>
			<point x="619" y="-12"/>
			<point x="635" y="1"/>
			<point x="647" y="43" type="curve" smooth="yes"/>
			<point x="681" y="163"/>
			<point x="718" y="264"/>
			<point x="777" y="386" type="curve" smooth="yes"/>
			<point x="911" y="666"/>
			<point x="1095" y="860"/>
			<point x="1219" y="860" type="curve" smooth="yes"/>
			<point x="1267" y="860"/>
			<point x="1294" y="829"/>
			<point x="1294" y="770" type="curve" smooth="yes"/>
			<point x="1294" y="682"/>
			<point x="1246" y="556"/>
			<point x="1198" y="431" type="curve" smooth="yes"/>
			<point x="1141" y="282"/>
			<point x="1112" y="185"/>
			<point x="1112" y="111" type="curve" smooth="yes"/>
			<point x="1112" y="25"/>
			<point x="1155" y="-12"/>
			<point x="1229" y="-12" type="curve" smooth="yes"/>
			<point x="1262" y="-12"/>
			<point x="1285" y="6"/>
			<point x="1285" y="34" type="curve" smooth="yes"/>
			<point x="1285" y="50"/>
			<point x="1277" y="63"/>
			<point x="1248" y="63" type="curve" smooth="yes"/>
			<point x="1211" y="63"/>
			<point x="1193" y="78"/>
			<point x="1193" y="122" type="curve" smooth="yes"/>
			<point x="1193" y="184"/>
			<point x="1216" y="270"/>
			<point x="1271" y="409" type="curve" smooth="yes"/>
			<point x="1323" y="541"/>
			<point x="1376" y="680"/>
			<point x="1376" y="794" type="curve" smooth="yes"/>
			<point x="1376" y="897"/>
			<point x="1318" y="935"/>
			<point x="1245" y="935" type="curve" smooth="yes"/>
			<point x="1100" y="935"/>
			<point x="940" y="796"/>
			<point x="783" y="518" type="curve"/>
			<point x="795" y="524" type="line"/>
			<point x="832" y="626"/>
			<point x="859" y="716"/>
			<point x="859" y="794" type="curve" smooth="yes"/>
			<point x="859" y="897"/>
			<point x="801" y="935"/>
			<point x="728" y="935" type="curve" smooth="yes"/>
			<point x="564" y="935"/>
			<point x="380" y="766"/>
			<point x="202" y="420" type="curve"/>
			<point x="210" y="417" type="line"/>
			<point x="339" y="837" type="line" smooth="yes"/>
			<point x="346" y="861"/>
			<point x="352" y="885"/>
			<point x="352" y="900" type="curve" smooth="yes"/>
			<point x="352" y="924"/>
			<point x="339" y="935"/>
			<point x="317" y="935" type="curve" smooth="yes"/>
			<point x="296" y="935"/>
			<point x="279" y="926"/>
			<point x="266" y="878" type="curve" smooth="yes"/>
			<point x="56" y="95" type="line" smooth="yes"/>
			<point x="43" y="46"/>
			<point x="40" y="33"/>
			<point x="40" y="25" type="curve" smooth="yes"/>
			<point x="40" y="0"/>
			<point x="61" y="-12"/>
			<point x="80" y="-12" type="curve" smooth="yes"/>
			<point x="101" y="-12"/>
			<point x="121" y="1"/>
			<point x="138" y="73" type="curve" smooth="yes"/>
			<point x="165" y="186"/>
			<point x="192" y="264"/>
			<point x="253" y="390" type="curve" smooth="yes"/>
			<point x="382" y="657"/>
			<point x="582" y="860"/>
			<point x="702" y="860" type="curve" smooth="yes"/>
			<point x="750" y="860"/>
			<point x="777" y="829"/>
			<point x="777" y="770" type="curve" smooth="yes"/>
			<point x="777" y="646"/>
			<point x="705" y="444"/>
			<point x="633" y="269" type="curve" smooth="yes"/>
			<point x="587" y="158"/>
			<point x="557" y="73"/>
		</contour>
	</outline>
</glyph>
<glyph name="n" format="2">
	<unicode hex="006E"/>
	<advance width="804"/>
	<outline>
		<contour>
			<point x="732" y="-12" type="curve" smooth="yes"/>
			<point x="765" y="-12"/>
			<point x="788" y="6"/>
			<point x="788" y="34" type="curve" smooth="yes"/>
			<point x="788" y="50"/>
			<point x="780" y="63"/>
			<point x="751" y="63" type="curve" smooth="yes"/>
			<point x="714" y="63"/>
			<point x="696" y="78"/>
			<point x="696" y="122" type="curve" smooth="yes"/>
			<point x="696" y="184"/>
			<point x="720" y="270"/>
			<point x="774" y="409" type="curve" smooth="yes"/>
			<point x="825" y="540"/>
			<point x="879" y="680"/>
			<point x="879" y="794" type="curve" smooth="yes"/>
			<point x="879" y="897"/>
			<point x="821" y="935"/>
			<point x="748" y="935" type="curve" smooth="yes"/>
			<point x="584" y="935"/>
			<point x="380" y="766"/>
			<point x="202" y="420" type="curve"/>
			<point x="210" y="417" type="line"/>
			<point x="336" y="837" type="line" smooth="yes"/>
			<point x="343" y="861"/>
			<point x="349" y="885"/>
			<point x="349" y="900" type="curve" smooth="yes"/>
			<point x="349" y="923"/>
			<point x="337" y="935"/>
			<point x="315" y="935" type="curve" smooth="yes"/>
			<point x="295" y="935"/>
			<point x="279" y="926"/>
			<point x="266" y="878" type="curve" smooth="yes"/>
			<point x="50" y="74" type="line" smooth="yes"/>
			<point x="42" y="46"/>
			<point x="40" y="35"/>
			<point x="40" y="25" type="curve" smooth="yes"/>
			<point x="40" y="0"/>
			<point x="61" y="-12"/>
			<point x="80" y="-12" type="curve" smooth="yes"/>
			<point x="105" y="-12"/>
			<point x="121" y="1"/>
			<point x="138" y="73" type="curve" smooth="yes"/>
			<point x="165" y="186"/>
			<point x="192" y="264"/>
			<point x="253" y="390" type="curve" smooth="yes"/>
			<point x="382" y="657"/>
			<point x="602" y="860"/>
			<point x="722" y="860" type="curve" smooth="yes"/>
			<point x="770" y="860"/>
			<point x="797" y="829"/>
			<point x="797" y="770" type="curve" smooth="yes"/>
			<point x="797" y="682"/>
			<point x="749" y="556"/>
			<point x="701" y="431" type="curve" smooth="yes"/>
			<point x="644" y="282"/>
			<point x="615" y="185"/>
			<point x="615" y="111" type="curve" smooth="yes"/>
			<point x="615" y="25"/>
			<point x="658" y="-12"/>
		</contour>
	</outline>
	<anchor name="bottom" x="387" y="0"/>
	<anchor name="top" x="635" y="910"/>
</glyph>
<glyph name="o" format="2">
	<advance width="968"/>
	<unicode hex="006F"/>
	<anchor x="260" y="0" name="bottom"/>
	<anchor x="408" y="472" name="center"/>
	<anchor x="270" y="0" name="ogonek"/>
	<anchor x="543" y="910" name="top"/>
	<anchor x="796" y="910" name="topright"/>
	<outline>
		<contour>
			<point x="390" y="866" type="curve" smooth="yes"/>
			<point x="390" y="849"/>
			<point x="401" y="837"/>
			<point x="421" y="837" type="curve" smooth="yes"/>
			<point x="429" y="837"/>
			<point x="439" y="840"/>
			<point x="452" y="844" type="curve" smooth="yes"/>
			<point x="473" y="851"/>
			<point x="501" y="860"/>
			<point x="535" y="860" type="curve" smooth="yes"/>
			<point x="631" y="860"/>
			<point x="698" y="779"/>
			<point x="698" y="635" type="curve" smooth="yes"/>
			<point x="698" y="353"/>
			<point x="480" y="63"/>
			<point x="281" y="63" type="curve" smooth="yes"/>
			<point x="177" y="63"/>
			<point x="118" y="134"/>
			<point x="118" y="273" type="curve" smooth="yes"/>
			<point x="118" y="463"/>
			<point x="183" y="593"/>
			<point x="321" y="763" type="curve" smooth="yes"/>
			<point x="334" y="779"/>
			<point x="341" y="797"/>
			<point x="341" y="808" type="curve" smooth="yes"/>
			<point x="341" y="821"/>
			<point x="329" y="833"/>
			<point x="316" y="833" type="curve" smooth="yes"/>
			<point x="289" y="833"/>
			<point x="252" y="792"/>
			<point x="227" y="763" type="curve" smooth="yes"/>
			<point x="109" y="627"/>
			<point x="38" y="429"/>
			<point x="38" y="259" type="curve" smooth="yes"/>
			<point x="38" y="76"/>
			<point x="131" y="-12"/>
			<point x="266" y="-12" type="curve" smooth="yes"/>
			<point x="521" y="-12"/>
			<point x="778" y="319"/>
			<point x="778" y="656" type="curve" smooth="yes"/>
			<point x="778" y="832"/>
			<point x="682" y="935"/>
			<point x="552" y="935" type="curve" smooth="yes"/>
			<point x="459" y="935"/>
			<point x="390" y="894"/>
		</contour>
	</outline>
</glyph>
<glyph name="p" format="2">
	<advance width="1090"/>
	<unicode hex="0070"/>
	<outline>
		<contour>
			<point x="334" y="61" type="curve" smooth="yes"/>
			<point x="309" y="61"/>
			<point x="291" y="47"/>
			<point x="291" y="20" type="curve" smooth="yes"/>
			<point x="291" y="-1"/>
			<point x="311" y="-12"/>
			<point x="330" y="-12" type="curve" smooth="yes"/>
			<point x="621" y="-12"/>
			<point x="900" y="346"/>
			<point x="900" y="676" type="curve" smooth="yes"/>
			<point x="900" y="857"/>
			<point x="823" y="935"/>
			<point x="711" y="935" type="curve" smooth="yes"/>
			<point x="553" y="935"/>
			<point x="410" y="817"/>
			<point x="236" y="496" type="curve"/>
			<point x="246" y="500" type="line"/>
			<point x="276" y="618"/>
			<point x="309" y="736"/>
			<point x="346" y="863" type="curve" smooth="yes"/>
			<point x="350" y="878"/>
			<point x="352" y="892"/>
			<point x="352" y="900" type="curve" smooth="yes"/>
			<point x="352" y="919"/>
			<point x="342" y="935"/>
			<point x="317" y="935" type="curve" smooth="yes"/>
			<point x="296" y="935"/>
			<point x="279" y="926"/>
			<point x="266" y="878" type="curve" smooth="yes"/>
			<point x="195" y="615"/>
			<point x="133" y="349"/>
			<point x="73" y="85" type="curve"/>
			<point x="8" y="-223"/>
			<point x="-55" y="-523"/>
			<point x="-55" y="-637" type="curve" smooth="yes"/>
			<point x="-55" y="-675"/>
			<point x="-36" y="-690"/>
			<point x="-11" y="-690" type="curve" smooth="yes"/>
			<point x="9" y="-690"/>
			<point x="27" y="-676"/>
			<point x="33" y="-642" type="curve" smooth="yes"/>
			<point x="49" y="-557"/>
			<point x="61" y="-470"/>
			<point x="74" y="-374" type="curve" smooth="yes"/>
			<point x="96" y="-214"/>
			<point x="120" y="-42"/>
			<point x="164" y="141" type="curve" smooth="yes"/>
			<point x="243" y="470"/>
			<point x="488" y="860"/>
			<point x="687" y="860" type="curve" smooth="yes"/>
			<point x="767" y="860"/>
			<point x="820" y="795"/>
			<point x="820" y="663" type="curve" smooth="yes"/>
			<point x="820" y="370"/>
			<point x="584" y="63"/>
		</contour>
	</outline>
</glyph>
<glyph name="q" format="2">
	<unicode hex="0071"/>
	<advance width="908"/>
	<outline>
		<contour>
			<point x="774" y="891" type="curve" smooth="yes"/>
			<point x="467" y="-277" type="line" smooth="yes"/>
			<point x="425" y="-438"/>
			<point x="390" y="-592"/>
			<point x="390" y="-655" type="curve" smooth="yes"/>
			<point x="390" y="-679"/>
			<point x="400" y="-690"/>
			<point x="430" y="-690" type="curve" smooth="yes"/>
			<point x="449" y="-690"/>
			<point x="462" y="-682"/>
			<point x="468" y="-654" type="curve" smooth="yes"/>
			<point x="502" y="-489"/>
			<point x="567" y="-199"/>
			<point x="705" y="316" type="curve" smooth="yes"/>
			<point x="843" y="831" type="line" smooth="yes"/>
			<point x="850" y="857"/>
			<point x="858" y="889"/>
			<point x="858" y="901" type="curve" smooth="yes"/>
			<point x="858" y="929"/>
			<point x="838" y="935"/>
			<point x="817" y="935" type="curve" smooth="yes"/>
			<point x="797" y="935"/>
			<point x="781" y="919"/>
		</contour>
		<contour>
			<point x="799" y="748" type="curve"/>
			<point x="744" y="778" type="line"/>
			<point x="629" y="382"/>
			<point x="360" y="63"/>
			<point x="230" y="63" type="curve" smooth="yes"/>
			<point x="179" y="63"/>
			<point x="145" y="113"/>
			<point x="145" y="261" type="curve" smooth="yes"/>
			<point x="145" y="561"/>
			<point x="333" y="860"/>
			<point x="520" y="860" type="curve" smooth="yes"/>
			<point x="590" y="860"/>
			<point x="664" y="841"/>
			<point x="763" y="794" type="curve"/>
			<point x="779" y="858" type="line"/>
			<point x="669" y="909"/>
			<point x="575" y="935"/>
			<point x="515" y="935" type="curve" smooth="yes"/>
			<point x="287" y="935"/>
			<point x="65" y="604"/>
			<point x="65" y="248" type="curve" smooth="yes"/>
			<point x="65" y="73"/>
			<point x="127" y="-12"/>
			<point x="213" y="-12" type="curve" smooth="yes"/>
			<point x="445" y="-12"/>
			<point x="698" y="442"/>
		</contour>
	</outline>
</glyph>
<glyph name="r" format="2">
	<unicode hex="0072"/>
	<advance width="745"/>
	<outline>
		<contour>
			<point x="626" y="901" type="curve" smooth="yes"/>
			<point x="626" y="922"/>
			<point x="615" y="933"/>
			<point x="593" y="933" type="curve" smooth="yes"/>
			<point x="463" y="933"/>
			<point x="344" y="741"/>
			<point x="202" y="420" type="curve"/>
			<point x="210" y="417" type="line"/>
			<point x="336" y="837" type="line" smooth="yes"/>
			<point x="343" y="861"/>
			<point x="349" y="885"/>
			<point x="349" y="900" type="curve" smooth="yes"/>
			<point x="349" y="923"/>
			<point x="336" y="935"/>
			<point x="315" y="935" type="curve" smooth="yes"/>
			<point x="295" y="935"/>
			<point x="278" y="924"/>
			<point x="266" y="878" type="curve" smooth="yes"/>
			<point x="50" y="74" type="line" smooth="yes"/>
			<point x="42" y="46"/>
			<point x="40" y="35"/>
			<point x="40" y="25" type="curve" smooth="yes"/>
			<point x="40" y="0"/>
			<point x="61" y="-12"/>
			<point x="80" y="-12" type="curve" smooth="yes"/>
			<point x="105" y="-12"/>
			<point x="121" y="1"/>
			<point x="138" y="73" type="curve" smooth="yes"/>
			<point x="165" y="186"/>
			<point x="198" y="286"/>
			<point x="268" y="439" type="curve" smooth="yes"/>
			<point x="372" y="666"/>
			<point x="430" y="757"/>
			<point x="498" y="815" type="curve" smooth="yes"/>
			<point x="540" y="851"/>
			<point x="568" y="860"/>
			<point x="590" y="860" type="curve" smooth="yes"/>
			<point x="610" y="860"/>
			<point x="626" y="876"/>
		</contour>
	</outline>
	<anchor name="bottom" x="70" y="0"/>
	<anchor name="top" x="498" y="910"/>
</glyph>
<glyph name="s" format="2">
	<unicode hex="0073"/>
	<advance width="696"/>
	<outline>
		<contour>
			<point x="52" y="46" type="curve" smooth="yes"/>
			<point x="116" y="10"/>
			<point x="211" y="-12"/>
			<point x="285" y="-12" type="curve" smooth="yes"/>
			<point x="450" y="-12"/>
			<point x="569" y="86"/>
			<point x="569" y="235" type="curve" smooth="yes"/>
			<point x="569" y="371"/>
			<point x="481" y="450"/>
			<point x="398" y="521" type="curve" smooth="yes"/>
			<point x="327" y="581"/>
			<point x="265" y="637"/>
			<point x="265" y="720" type="curve" smooth="yes"/>
			<point x="265" y="810"/>
			<point x="334" y="872"/>
			<point x="447" y="872" type="curve" smooth="yes"/>
			<point x="511" y="872"/>
			<point x="553" y="856"/>
			<point x="581" y="844" type="curve" smooth="yes"/>
			<point x="596" y="838"/>
			<point x="607" y="834"/>
			<point x="615" y="834" type="curve" smooth="yes"/>
			<point x="632" y="834"/>
			<point x="643" y="851"/>
			<point x="643" y="864" type="curve" smooth="yes"/>
			<point x="643" y="894"/>
			<point x="555" y="945"/>
			<point x="455" y="945" type="curve" smooth="yes"/>
			<point x="304" y="945"/>
			<point x="190" y="854"/>
			<point x="190" y="710" type="curve" smooth="yes"/>
			<point x="190" y="593"/>
			<point x="267" y="525"/>
			<point x="346" y="458" type="curve" smooth="yes"/>
			<point x="422" y="394"/>
			<point x="494" y="330"/>
			<point x="494" y="225" type="curve" smooth="yes"/>
			<point x="494" y="135"/>
			<point x="417" y="63"/>
			<point x="298" y="63" type="curve" smooth="yes"/>
			<point x="214" y="63"/>
			<point x="159" y="82"/>
			<point x="112" y="99" type="curve" smooth="yes"/>
			<point x="85" y="109"/>
			<point x="73" y="112"/>
			<point x="64" y="112" type="curve" smooth="yes"/>
			<point x="42" y="112"/>
			<point x="30" y="93"/>
			<point x="30" y="78" type="curve" smooth="yes"/>
			<point x="30" y="63"/>
			<point x="38" y="54"/>
		</contour>
	</outline>
	<anchor name="bottom" x="254" y="0"/>
	<anchor name="top" x="447" y="910"/>
</glyph>
<glyph name="t" format="2">
	<advance width="300"/>
	<unicode hex="0074"/>
	<anchor x="183" y="0" name="bottom"/>
	<anchor x="135" y="455" name="center"/>
	<anchor x="135" y="910" name="top"/>
	<anchor x="470" y="1374" name="topright"/>
	<outline>
		<contour>
			<point x="226" y="-12" type="curve" smooth="yes"/>
			<point x="259" y="-12"/>
			<point x="282" y="6"/>
			<point x="282" y="34" type="curve" smooth="yes"/>
			<point x="282" y="50"/>
			<point x="274" y="63"/>
			<point x="245" y="63" type="curve" smooth="yes"/>
			<point x="168" y="63"/>
			<point x="150" y="83"/>
			<point x="150" y="149" type="curve" smooth="yes"/>
			<point x="150" y="198"/>
			<point x="167" y="289"/>
			<point x="207" y="429" type="curve" smooth="yes"/>
			<point x="325" y="843" type="line"/>
			<point x="419" y="845"/>
			<point x="518" y="848"/>
			<point x="557" y="850" type="curve" smooth="yes"/>
			<point x="600" y="852"/>
			<point x="620" y="863"/>
			<point x="620" y="887" type="curve" smooth="yes"/>
			<point x="620" y="905"/>
			<point x="607" y="910"/>
			<point x="576" y="910" type="curve" smooth="yes"/>
			<point x="343" y="910" type="line"/>
			<point x="431" y="1221" type="line" smooth="yes"/>
			<point x="433" y="1229"/>
			<point x="434" y="1237"/>
			<point x="434" y="1243" type="curve" smooth="yes"/>
			<point x="434" y="1264"/>
			<point x="420" y="1274"/>
			<point x="398" y="1274" type="curve" smooth="yes"/>
			<point x="375" y="1274"/>
			<point x="363" y="1262"/>
			<point x="353" y="1228" type="curve" smooth="yes"/>
			<point x="325" y="1129"/>
			<point x="294" y="1021"/>
			<point x="262" y="910" type="curve"/>
			<point x="145" y="910" type="line" smooth="yes"/>
			<point x="115" y="910"/>
			<point x="86" y="902"/>
			<point x="86" y="870" type="curve" smooth="yes"/>
			<point x="86" y="851"/>
			<point x="100" y="840"/>
			<point x="123" y="840" type="curve" smooth="yes"/>
			<point x="242" y="842" type="line"/>
			<point x="204" y="708"/>
			<point x="166" y="572"/>
			<point x="131" y="445" type="curve" smooth="yes"/>
			<point x="92" y="303"/>
			<point x="70" y="205"/>
			<point x="70" y="133" type="curve" smooth="yes"/>
			<point x="70" y="38"/>
			<point x="120" y="-12"/>
		</contour>
	</outline>
</glyph>
<glyph name="u" format="2">
	<advance width="780"/>
	<unicode hex="0075"/>
	<anchor x="2" y="448" name="#entry"/>
	<anchor x="1241" y="448" name="#exit"/>
	<anchor x="364" y="0" name="bottom"/>
	<anchor x="751" y="0" name="ogonek"/>
	<anchor x="580" y="910" name="top"/>
	<anchor x="1342" y="895" name="topright"/>
	<outline>
		<contour>
			<point x="269" y="878" type="curve" smooth="yes"/>
			<point x="261" y="841"/>
			<point x="243" y="760"/>
			<point x="181" y="563" type="curve" smooth="yes"/>
			<point x="107" y="328"/>
			<point x="87" y="242"/>
			<point x="87" y="162" type="curve" smooth="yes"/>
			<point x="87" y="47"/>
			<point x="146" y="-12"/>
			<point x="229" y="-12" type="curve" smooth="yes"/>
			<point x="431" y="-12"/>
			<point x="606" y="229"/>
			<point x="769" y="557" type="curve"/>
			<point x="761" y="583" type="line"/>
			<point x="686" y="428"/>
			<point x="602" y="183"/>
			<point x="602" y="89" type="curve" smooth="yes"/>
			<point x="602" y="24"/>
			<point x="643" y="-12"/>
			<point x="699" y="-12" type="curve" smooth="yes"/>
			<point x="759" y="-12"/>
			<point x="771" y="10"/>
			<point x="771" y="30" type="curve" smooth="yes"/>
			<point x="771" y="47"/>
			<point x="744" y="63"/>
			<point x="718" y="63" type="curve" smooth="yes"/>
			<point x="693" y="63"/>
			<point x="680" y="74"/>
			<point x="680" y="106" type="curve" smooth="yes"/>
			<point x="680" y="145"/>
			<point x="686" y="200"/>
			<point x="749" y="421" type="curve" smooth="yes"/>
			<point x="864" y="826" type="line" smooth="yes"/>
			<point x="875" y="866"/>
			<point x="880" y="892"/>
			<point x="880" y="905" type="curve" smooth="yes"/>
			<point x="880" y="925"/>
			<point x="865" y="935"/>
			<point x="842" y="935" type="curve" smooth="yes"/>
			<point x="819" y="935"/>
			<point x="807" y="927"/>
			<point x="795" y="872" type="curve" smooth="yes"/>
			<point x="788" y="841"/>
			<point x="774" y="793"/>
			<point x="740" y="679" type="curve" smooth="yes"/>
			<point x="646" y="363"/>
			<point x="417" y="63"/>
			<point x="247" y="63" type="curve" smooth="yes"/>
			<point x="198" y="63"/>
			<point x="167" y="95"/>
			<point x="167" y="181" type="curve" smooth="yes"/>
			<point x="167" y="257"/>
			<point x="179" y="329"/>
			<point x="245" y="534" type="curve" smooth="yes"/>
			<point x="321" y="769"/>
			<point x="352" y="872"/>
			<point x="352" y="902" type="curve" smooth="yes"/>
			<point x="352" y="925"/>
			<point x="337" y="935"/>
			<point x="317" y="935" type="curve" smooth="yes"/>
			<point x="296" y="935"/>
			<point x="279" y="925"/>
		</contour>
	</outline>
</glyph>
<glyph name="v" format="2">
	<advance width="927"/>
	<unicode hex="0076"/>
	<outline>
		<contour>
			<point x="145" y="879"/>
			<point x="145" y="858"/>
			<point x="147" y="830" type="curve" smooth="yes"/>
			<point x="152" y="749"/>
			<point x="153" y="512"/>
			<point x="153" y="431" type="curve" smooth="yes"/>
			<point x="153" y="306"/>
			<point x="153" y="180"/>
			<point x="156" y="125" type="curve" smooth="yes"/>
			<point x="162" y="14"/>
			<point x="187" y="-12"/>
			<point x="237" y="-12" type="curve" smooth="yes"/>
			<point x="327" y="-12"/>
			<point x="527" y="262"/>
			<point x="757" y="778" type="curve" smooth="yes"/>
			<point x="769" y="804"/>
			<point x="804" y="882"/>
			<point x="804" y="899" type="curve" smooth="yes"/>
			<point x="804" y="921"/>
			<point x="778" y="935"/>
			<point x="762" y="935" type="curve" smooth="yes"/>
			<point x="741" y="935"/>
			<point x="737" y="930"/>
			<point x="690" y="820" type="curve" smooth="yes"/>
			<point x="472" y="310"/>
			<point x="283" y="68"/>
			<point x="250" y="68" type="curve" smooth="yes"/>
			<point x="238" y="68"/>
			<point x="230" y="99"/>
			<point x="230" y="257" type="curve" smooth="yes"/>
			<point x="230" y="326"/>
			<point x="230" y="405"/>
			<point x="231" y="479" type="curve" smooth="yes"/>
			<point x="233" y="586"/>
			<point x="234" y="684"/>
			<point x="234" y="729" type="curve" smooth="yes"/>
			<point x="234" y="791"/>
			<point x="231" y="849"/>
			<point x="229" y="880" type="curve" smooth="yes"/>
			<point x="226" y="923"/>
			<point x="212" y="935"/>
			<point x="182" y="935" type="curve" smooth="yes"/>
			<point x="167" y="935"/>
			<point x="145" y="923"/>
			<point x="145" y="894" type="curve" smooth="yes"/>
		</contour>
	</outline>
</glyph>
<glyph name="w" format="2">
	<unicode hex="0077"/>
	<advance width="1463"/>
	<outline>
		<contour>
			<point x="145" y="894" type="curve" smooth="yes"/>
			<point x="145" y="859"/>
			<point x="147" y="783"/>
			<point x="151" y="679" type="curve" smooth="yes"/>
			<point x="154" y="604"/>
			<point x="154" y="482"/>
			<point x="154" y="370" type="curve" smooth="yes"/>
			<point x="154" y="267"/>
			<point x="154" y="171"/>
			<point x="156" y="125" type="curve" smooth="yes"/>
			<point x="162" y="14"/>
			<point x="187" y="-12"/>
			<point x="237" y="-12" type="curve" smooth="yes"/>
			<point x="322" y="-12"/>
			<point x="507" y="238"/>
			<point x="718" y="715" type="curve"/>
			<point x="714" y="581"/>
			<point x="711" y="421"/>
			<point x="711" y="296" type="curve" smooth="yes"/>
			<point x="711" y="221"/>
			<point x="712" y="159"/>
			<point x="714" y="125" type="curve" smooth="yes"/>
			<point x="720" y="14"/>
			<point x="745" y="-12"/>
			<point x="795" y="-12" type="curve" smooth="yes"/>
			<point x="885" y="-12"/>
			<point x="1083" y="267"/>
			<point x="1301" y="780" type="curve" smooth="yes"/>
			<point x="1320" y="824"/>
			<point x="1340" y="883"/>
			<point x="1340" y="901" type="curve" smooth="yes"/>
			<point x="1340" y="923"/>
			<point x="1318" y="935"/>
			<point x="1302" y="935" type="curve" smooth="yes"/>
			<point x="1285" y="935"/>
			<point x="1279" y="931"/>
			<point x="1257" y="876" type="curve" smooth="yes"/>
			<point x="1028" y="314"/>
			<point x="840" y="68"/>
			<point x="808" y="68" type="curve" smooth="yes"/>
			<point x="795" y="68"/>
			<point x="788" y="84"/>
			<point x="788" y="277" type="curve" smooth="yes"/>
			<point x="788" y="378"/>
			<point x="789" y="558"/>
			<point x="790" y="646" type="curve" smooth="yes"/>
			<point x="791" y="707"/>
			<point x="792" y="810"/>
			<point x="790" y="869" type="curve" smooth="yes"/>
			<point x="788" y="919"/>
			<point x="779" y="935"/>
			<point x="748" y="935" type="curve" smooth="yes"/>
			<point x="728" y="935"/>
			<point x="718" y="923"/>
			<point x="708" y="894" type="curve" smooth="yes"/>
			<point x="693" y="850"/>
			<point x="676" y="804"/>
			<point x="624" y="679" type="curve" smooth="yes"/>
			<point x="460" y="287"/>
			<point x="282" y="68"/>
			<point x="250" y="68" type="curve" smooth="yes"/>
			<point x="238" y="68"/>
			<point x="230" y="99"/>
			<point x="230" y="257" type="curve" smooth="yes"/>
			<point x="230" y="326"/>
			<point x="230" y="405"/>
			<point x="231" y="479" type="curve" smooth="yes"/>
			<point x="233" y="586"/>
			<point x="234" y="684"/>
			<point x="234" y="729" type="curve" smooth="yes"/>
			<point x="234" y="791"/>
			<point x="232" y="843"/>
			<point x="229" y="880" type="curve" smooth="yes"/>
			<point x="226" y="923"/>
			<point x="212" y="935"/>
			<point x="182" y="935" type="curve" smooth="yes"/>
			<point x="167" y="935"/>
			<point x="145" y="923"/>
		</contour>
	</outline>
	<anchor name="bottom" x="732" y="0"/>
	<anchor name="top" x="732" y="910"/>
</glyph>
<glyph name="x" format="2">
	<advance width="1084"/>
	<unicode hex="0078"/>
	<guideline x="357" y="428" angle="225.1329"/>
	<outline>
		<contour>
			<point x="494" y="416" type="line"/>
			<point x="468" y="480" type="line"/>
			<point x="91" y="73" type="line" smooth="yes"/>
			<point x="61" y="41"/>
			<point x="58" y="33"/>
			<point x="58" y="24" type="curve" smooth="yes"/>
			<point x="58" y="4"/>
			<point x="73" y="-12"/>
			<point x="94" y="-12" type="curve" smooth="yes"/>
			<point x="105" y="-12"/>
			<point x="116" y="-6"/>
			<point x="141" y="22" type="curve" smooth="yes"/>
		</contour>
		<contour>
			<point x="495" y="497" type="line"/>
			<point x="521" y="432" type="line"/>
			<point x="911" y="850" type="line" smooth="yes"/>
			<point x="941" y="882"/>
			<point x="944" y="889"/>
			<point x="944" y="899" type="curve" smooth="yes"/>
			<point x="944" y="920"/>
			<point x="928" y="935"/>
			<point x="909" y="935" type="curve" smooth="yes"/>
			<point x="896" y="935"/>
			<point x="886" y="928"/>
			<point x="861" y="901" type="curve" smooth="yes"/>
		</contour>
		<contour>
			<point x="632" y="313"/>
			<point x="433" y="685"/>
			<point x="378" y="837" type="curve" smooth="yes"/>
			<point x="346" y="926"/>
			<point x="337" y="935"/>
			<point x="316" y="935" type="curve" smooth="yes"/>
			<point x="299" y="935"/>
			<point x="280" y="915"/>
			<point x="280" y="897" type="curve" smooth="yes"/>
			<point x="280" y="875"/>
			<point x="293" y="840"/>
			<point x="313" y="788" type="curve" smooth="yes"/>
			<point x="373" y="629"/>
			<point x="559" y="276"/>
			<point x="644" y="141" type="curve" smooth="yes"/>
			<point x="725" y="13"/>
			<point x="755" y="-24"/>
			<point x="779" y="-24" type="curve" smooth="yes"/>
			<point x="798" y="-24"/>
			<point x="824" y="-4"/>
			<point x="824" y="17" type="curve" smooth="yes"/>
			<point x="824" y="40"/>
			<point x="789" y="69"/>
			<point x="706" y="198" type="curve" smooth="yes"/>
		</contour>
	</outline>
</glyph>
<glyph name="y" format="2">
	<unicode hex="0079"/>
	<advance width="804"/>
	<outline>
		<contour>
			<point x="269" y="878" type="curve" smooth="yes"/>
			<point x="262" y="842"/>
			<point x="243" y="760"/>
			<point x="181" y="563" type="curve" smooth="yes"/>
			<point x="107" y="329"/>
			<point x="89" y="244"/>
			<point x="89" y="164" type="curve" smooth="yes"/>
			<point x="89" y="61"/>
			<point x="139" y="8"/>
			<point x="209" y="8" type="curve" smooth="yes"/>
			<point x="336" y="8"/>
			<point x="541" y="207"/>
			<point x="698" y="492" type="curve"/>
			<point x="607" y="160"/>
			<point x="594" y="99"/>
			<point x="572" y="-11" type="curve"/>
			<point x="187" y="-256"/>
			<point x="83" y="-391"/>
			<point x="83" y="-536" type="curve" smooth="yes"/>
			<point x="83" y="-627"/>
			<point x="146" y="-690"/>
			<point x="231" y="-690" type="curve" smooth="yes"/>
			<point x="375" y="-690"/>
			<point x="498" y="-576"/>
			<point x="595" y="-239" type="curve" smooth="yes"/>
			<point x="619" y="-156"/>
			<point x="634" y="-76"/>
			<point x="654" y="32" type="curve" smooth="yes"/>
			<point x="677" y="158"/>
			<point x="690" y="210"/>
			<point x="780" y="529" type="curve" smooth="yes"/>
			<point x="872" y="857"/>
			<point x="880" y="890"/>
			<point x="880" y="902" type="curve" smooth="yes"/>
			<point x="880" y="930"/>
			<point x="860" y="936"/>
			<point x="839" y="936" type="curve" smooth="yes"/>
			<point x="819" y="936"/>
			<point x="803" y="920"/>
			<point x="796" y="892" type="curve" smooth="yes"/>
			<point x="789" y="862"/>
			<point x="782" y="833"/>
			<point x="773" y="803" type="curve" smooth="yes"/>
			<point x="662" y="426"/>
			<point x="351" y="83"/>
			<point x="227" y="83" type="curve" smooth="yes"/>
			<point x="191" y="83"/>
			<point x="169" y="110"/>
			<point x="169" y="183" type="curve" smooth="yes"/>
			<point x="169" y="259"/>
			<point x="179" y="331"/>
			<point x="245" y="534" type="curve" smooth="yes"/>
			<point x="321" y="769"/>
			<point x="348" y="872"/>
			<point x="348" y="902" type="curve" smooth="yes"/>
			<point x="348" y="925"/>
			<point x="337" y="935"/>
			<point x="317" y="935" type="curve" smooth="yes"/>
			<point x="296" y="935"/>
			<point x="278" y="925"/>
		</contour>
		<contour>
			<point x="158" y="-520" type="curve" smooth="yes"/>
			<point x="158" y="-398"/>
			<point x="249" y="-298"/>
			<point x="558" y="-87" type="curve"/>
			<point x="549" y="-133"/>
			<point x="541" y="-168"/>
			<point x="528" y="-212" type="curve" smooth="yes"/>
			<point x="437" y="-520"/>
			<point x="343" y="-615"/>
			<point x="244" y="-615" type="curve" smooth="yes"/>
			<point x="193" y="-615"/>
			<point x="158" y="-585"/>
		</contour>
	</outline>
	<anchor name="top" x="570" y="910"/>
	<anchor name="topright" x="880" y="910"/>
</glyph>
<glyph name="z" format="2">
	<advance width="565"/>
	<unicode hex="007A"/>
	<anchor x="267" y="0" name="bottom"/>
	<anchor x="500" y="910" name="top"/>
	<outline>
		<contour>
			<point x="476" y="-12" type="curve" smooth="yes"/>
			<point x="516" y="-12"/>
			<point x="534" y="10"/>
			<point x="534" y="31" type="curve" smooth="yes"/>
			<point x="534" y="47"/>
			<point x="521" y="63"/>
			<point x="496" y="63" type="curve" smooth="yes"/>
			<point x="411" y="63"/>
			<point x="335" y="79"/>
			<point x="262" y="95" type="curve" smooth="yes"/>
			<point x="209" y="107"/>
			<point x="157" y="118"/>
			<point x="105" y="122" type="curve"/>
			<point x="269" y="311"/>
			<point x="579" y="641"/>
			<point x="772" y="830" type="curve"/>
			<point x="814" y="847"/>
			<point x="837" y="875"/>
			<point x="837" y="891" type="curve" smooth="yes"/>
			<point x="837" y="911"/>
			<point x="818" y="935"/>
			<point x="793" y="935" type="curve" smooth="yes"/>
			<point x="780" y="935"/>
			<point x="763" y="926"/>
			<point x="733" y="892" type="curve"/>
			<point x="467" y="899"/>
			<point x="323" y="918"/>
			<point x="249" y="929" type="curve" smooth="yes"/>
			<point x="223" y="933"/>
			<point x="205" y="935"/>
			<point x="195" y="935" type="curve" smooth="yes"/>
			<point x="169" y="935"/>
			<point x="155" y="922"/>
			<point x="155" y="898" type="curve" smooth="yes"/>
			<point x="155" y="880"/>
			<point x="164" y="871"/>
			<point x="185" y="866" type="curve" smooth="yes"/>
			<point x="244" y="852"/>
			<point x="489" y="827"/>
			<point x="668" y="827" type="curve" smooth="yes"/>
			<point x="728" y="827" type="line"/>
			<point x="701" y="843" type="line"/>
			<point x="512" y="665"/>
			<point x="204" y="334"/>
			<point x="23" y="128" type="curve"/>
			<point x="-43" y="115"/>
			<point x="-80" y="75"/>
			<point x="-80" y="47" type="curve" smooth="yes"/>
			<point x="-80" y="9"/>
			<point x="-55" y="-12"/>
			<point x="-24" y="-12" type="curve" smooth="yes"/>
			<point x="0" y="-12"/>
			<point x="31" y="6"/>
			<point x="69" y="53" type="curve"/>
			<point x="129" y="51"/>
			<point x="194" y="37"/>
			<point x="260" y="21" type="curve" smooth="yes"/>
			<point x="333" y="3"/>
			<point x="407" y="-12"/>
		</contour>
	</outline>
</glyph>
<glyph name="braceleft" format="2">
	<advance width="654"/>
	<unicode hex="007B"/>
	<outline>
		<contour>
			<point x="353" y="-293" type="curve" smooth="yes"/>
			<point x="353" y="-281"/>
			<point x="343" y="-273"/>
			<point x="322" y="-263" type="curve" smooth="yes"/>
			<point x="294" y="-250"/>
			<point x="275" y="-238"/>
			<point x="253" y="-220" type="curve" smooth="yes"/>
			<point x="200" y="-178"/>
			<point x="173" y="-107"/>
			<point x="173" y="-12" type="curve" smooth="yes"/>
			<point x="173" y="74"/>
			<point x="208" y="161"/>
			<point x="244" y="248" type="curve" smooth="yes"/>
			<point x="281" y="337"/>
			<point x="316" y="427"/>
			<point x="316" y="517" type="curve" smooth="yes"/>
			<point x="316" y="594"/>
			<point x="293" y="650"/>
			<point x="258" y="684" type="curve"/>
			<point x="378" y="747"/>
			<point x="418" y="835"/>
			<point x="418" y="1024" type="curve" smooth="yes"/>
			<point x="418" y="1361"/>
			<point x="568" y="1513"/>
			<point x="808" y="1578" type="curve" smooth="yes"/>
			<point x="843" y="1587"/>
			<point x="854" y="1590"/>
			<point x="854" y="1603" type="curve" smooth="yes"/>
			<point x="854" y="1616"/>
			<point x="841" y="1625"/>
			<point x="812" y="1625" type="curve" smooth="yes"/>
			<point x="573" y="1625"/>
			<point x="348" y="1413"/>
			<point x="348" y="1058" type="curve" smooth="yes"/>
			<point x="348" y="836"/>
			<point x="322" y="782"/>
			<point x="215" y="721" type="curve"/>
			<point x="183" y="736"/>
			<point x="139" y="749"/>
			<point x="110" y="749" type="curve" smooth="yes"/>
			<point x="68" y="749"/>
			<point x="50" y="720"/>
			<point x="50" y="694" type="curve" smooth="yes"/>
			<point x="50" y="671"/>
			<point x="60" y="656"/>
			<point x="119" y="656" type="curve" smooth="yes"/>
			<point x="141" y="656"/>
			<point x="170" y="658"/>
			<point x="206" y="663" type="curve"/>
			<point x="229" y="631"/>
			<point x="246" y="584"/>
			<point x="246" y="513" type="curve" smooth="yes"/>
			<point x="246" y="417"/>
			<point x="209" y="333"/>
			<point x="171" y="249" type="curve" smooth="yes"/>
			<point x="134" y="167"/>
			<point x="99" y="87"/>
			<point x="99" y="-3" type="curve" smooth="yes"/>
			<point x="99" y="-166"/>
			<point x="164" y="-245"/>
			<point x="246" y="-289" type="curve" smooth="yes"/>
			<point x="276" y="-305"/>
			<point x="305" y="-312"/>
			<point x="324" y="-312" type="curve" smooth="yes"/>
			<point x="345" y="-312"/>
			<point x="353" y="-303"/>
		</contour>
	</outline>
</glyph>
<glyph name="braceright" format="2">
	<unicode hex="007D"/>
	<advance width="654"/>
	<outline>
		<contour>
			<point x="301" y="1606" type="curve" smooth="yes"/>
			<point x="301" y="1594"/>
			<point x="311" y="1586"/>
			<point x="332" y="1576" type="curve" smooth="yes"/>
			<point x="360" y="1563"/>
			<point x="379" y="1551"/>
			<point x="401" y="1533" type="curve" smooth="yes"/>
			<point x="454" y="1491"/>
			<point x="481" y="1420"/>
			<point x="481" y="1325" type="curve" smooth="yes"/>
			<point x="481" y="1239"/>
			<point x="446" y="1152"/>
			<point x="410" y="1065" type="curve" smooth="yes"/>
			<point x="373" y="976"/>
			<point x="338" y="886"/>
			<point x="338" y="796" type="curve" smooth="yes"/>
			<point x="338" y="719"/>
			<point x="361" y="663"/>
			<point x="396" y="629" type="curve"/>
			<point x="276" y="566"/>
			<point x="236" y="478"/>
			<point x="236" y="289" type="curve" smooth="yes"/>
			<point x="236" y="-48"/>
			<point x="86" y="-200"/>
			<point x="-154" y="-265" type="curve" smooth="yes"/>
			<point x="-189" y="-274"/>
			<point x="-200" y="-277"/>
			<point x="-200" y="-290" type="curve" smooth="yes"/>
			<point x="-200" y="-303"/>
			<point x="-187" y="-312"/>
			<point x="-158" y="-312" type="curve" smooth="yes"/>
			<point x="81" y="-312"/>
			<point x="306" y="-100"/>
			<point x="306" y="255" type="curve" smooth="yes"/>
			<point x="306" y="477"/>
			<point x="332" y="531"/>
			<point x="439" y="592" type="curve"/>
			<point x="471" y="577"/>
			<point x="515" y="564"/>
			<point x="544" y="564" type="curve" smooth="yes"/>
			<point x="586" y="564"/>
			<point x="604" y="593"/>
			<point x="604" y="619" type="curve" smooth="yes"/>
			<point x="604" y="642"/>
			<point x="594" y="657"/>
			<point x="535" y="657" type="curve" smooth="yes"/>
			<point x="513" y="657"/>
			<point x="484" y="655"/>
			<point x="448" y="650" type="curve"/>
			<point x="425" y="682"/>
			<point x="408" y="729"/>
			<point x="408" y="800" type="curve" smooth="yes"/>
			<point x="408" y="896"/>
			<point x="445" y="980"/>
			<point x="483" y="1064" type="curve" smooth="yes"/>
			<point x="520" y="1146"/>
			<point x="555" y="1226"/>
			<point x="555" y="1316" type="curve" smooth="yes"/>
			<point x="555" y="1479"/>
			<point x="490" y="1558"/>
			<point x="408" y="1602" type="curve" smooth="yes"/>
			<point x="378" y="1618"/>
			<point x="349" y="1625"/>
			<point x="330" y="1625" type="curve" smooth="yes"/>
			<point x="309" y="1625"/>
			<point x="301" y="1616"/>
		</contour>
	</outline>
</glyph>
<glyph name="exclamdown" format="2">
	<advance width="803"/>
	<unicode hex="00A1"/>
	<outline>
		<contour>
			<point x="451" y="528" type="curve" smooth="yes"/>
			<point x="433" y="528"/>
			<point x="421" y="521"/>
			<point x="411" y="484" type="curve" smooth="yes"/>
			<point x="336" y="202"/>
			<point x="189" y="-305"/>
			<point x="98" y="-578" type="curve" smooth="yes"/>
			<point x="88" y="-609"/>
			<point x="80" y="-635"/>
			<point x="80" y="-644" type="curve" smooth="yes"/>
			<point x="80" y="-662"/>
			<point x="99" y="-676"/>
			<point x="120" y="-676" type="curve" smooth="yes"/>
			<point x="138" y="-676"/>
			<point x="149" y="-663"/>
			<point x="154" y="-647" type="curve" smooth="yes"/>
			<point x="266" y="-312"/>
			<point x="403" y="179"/>
			<point x="460" y="398" type="curve" smooth="yes"/>
			<point x="481" y="479"/>
			<point x="481" y="488"/>
			<point x="481" y="498" type="curve" smooth="yes"/>
			<point x="481" y="516"/>
			<point x="469" y="528"/>
		</contour>
		<contour>
			<point x="503" y="764" type="curve" smooth="yes"/>
			<point x="554" y="764"/>
			<point x="603" y="812"/>
			<point x="603" y="868" type="curve" smooth="yes"/>
			<point x="603" y="907"/>
			<point x="574" y="936"/>
			<point x="534" y="936" type="curve" smooth="yes"/>
			<point x="484" y="936"/>
			<point x="440" y="892"/>
			<point x="440" y="836" type="curve" smooth="yes"/>
			<point x="440" y="791"/>
			<point x="469" y="764"/>
		</contour>
	</outline>
</glyph>
<glyph name="cent" format="2">
	<advance width="1200"/>
	<unicode hex="00A2"/>
	<outline>
		<contour>
			<point x="560" y="314" type="curve" smooth="yes"/>
			<point x="689" y="314"/>
			<point x="822" y="373"/>
			<point x="887" y="446" type="curve" smooth="yes"/>
			<point x="910" y="472"/>
			<point x="920" y="493"/>
			<point x="920" y="504" type="curve" smooth="yes"/>
			<point x="920" y="515"/>
			<point x="909" y="526"/>
			<point x="895" y="526" type="curve" smooth="yes"/>
			<point x="881" y="526"/>
			<point x="871" y="518"/>
			<point x="849" y="496" type="curve" smooth="yes"/>
			<point x="773" y="423"/>
			<point x="680" y="389"/>
			<point x="577" y="389" type="curve" smooth="yes"/>
			<point x="570" y="389"/>
			<point x="563" y="389"/>
			<point x="556" y="390" type="curve"/>
			<point x="772" y="1223" type="line"/>
			<point x="834" y="1213"/>
			<point x="882" y="1182"/>
			<point x="918" y="1144" type="curve" smooth="yes"/>
			<point x="935" y="1126"/>
			<point x="946" y="1118"/>
			<point x="956" y="1118" type="curve" smooth="yes"/>
			<point x="972" y="1118"/>
			<point x="982" y="1128"/>
			<point x="982" y="1146" type="curve" smooth="yes"/>
			<point x="982" y="1191"/>
			<point x="904" y="1271"/>
			<point x="790" y="1294" type="curve"/>
			<point x="830" y="1450" type="line" smooth="yes"/>
			<point x="834" y="1465"/>
			<point x="835" y="1469"/>
			<point x="835" y="1477" type="curve" smooth="yes"/>
			<point x="835" y="1497"/>
			<point x="818" y="1510"/>
			<point x="797" y="1510" type="curve" smooth="yes"/>
			<point x="780" y="1510"/>
			<point x="766" y="1498"/>
			<point x="762" y="1483" type="curve" smooth="yes"/>
			<point x="715" y="1301" type="line"/>
			<point x="450" y="1293"/>
			<point x="223" y="988"/>
			<point x="223" y="682" type="curve" smooth="yes"/>
			<point x="223" y="478"/>
			<point x="326" y="363"/>
			<point x="462" y="327" type="curve"/>
			<point x="423" y="179" type="line" smooth="yes"/>
			<point x="420" y="166"/>
			<point x="419" y="161"/>
			<point x="419" y="157" type="curve" smooth="yes"/>
			<point x="419" y="131"/>
			<point x="436" y="120"/>
			<point x="457" y="120" type="curve" smooth="yes"/>
			<point x="477" y="120"/>
			<point x="490" y="134"/>
			<point x="493" y="147" type="curve" smooth="yes"/>
			<point x="536" y="315" type="line"/>
			<point x="544" y="314"/>
			<point x="552" y="314"/>
		</contour>
		<contour>
			<point x="301" y="686" type="curve" smooth="yes"/>
			<point x="301" y="939"/>
			<point x="473" y="1200"/>
			<point x="695" y="1224" type="curve"/>
			<point x="481" y="401" type="line"/>
			<point x="370" y="433"/>
			<point x="301" y="527"/>
		</contour>
	</outline>
</glyph>
<glyph name="sterling" format="2">
	<advance width="1200"/>
	<unicode hex="00A3"/>
	<outline>
		<contour>
			<point x="1062" y="234" type="curve" smooth="yes"/>
			<point x="992" y="125"/>
			<point x="903" y="63"/>
			<point x="759" y="63" type="curve" smooth="yes"/>
			<point x="633" y="63"/>
			<point x="532" y="111"/>
			<point x="438" y="159" type="curve" smooth="yes"/>
			<point x="407" y="175"/>
			<point x="377" y="189"/>
			<point x="347" y="202" type="curve"/>
			<point x="395" y="322"/>
			<point x="438" y="503"/>
			<point x="484" y="769" type="curve"/>
			<point x="619" y="774"/>
			<point x="776" y="779"/>
			<point x="890" y="782" type="curve" smooth="yes"/>
			<point x="945" y="783"/>
			<point x="959" y="790"/>
			<point x="959" y="804" type="curve" smooth="yes"/>
			<point x="959" y="830"/>
			<point x="920" y="843"/>
			<point x="835" y="843" type="curve" smooth="yes"/>
			<point x="735" y="843"/>
			<point x="610" y="842"/>
			<point x="496" y="840" type="curve"/>
			<point x="589" y="1374"/>
			<point x="722" y="1525"/>
			<point x="896" y="1525" type="curve" smooth="yes"/>
			<point x="974" y="1525"/>
			<point x="1026" y="1490"/>
			<point x="1058" y="1409" type="curve" smooth="yes"/>
			<point x="1069" y="1381"/>
			<point x="1077" y="1373"/>
			<point x="1091" y="1373" type="curve" smooth="yes"/>
			<point x="1106" y="1373"/>
			<point x="1113" y="1385"/>
			<point x="1113" y="1400" type="curve" smooth="yes"/>
			<point x="1113" y="1479"/>
			<point x="1039" y="1600"/>
			<point x="899" y="1600" type="curve" smooth="yes"/>
			<point x="673" y="1600"/>
			<point x="515" y="1426"/>
			<point x="417" y="839" type="curve"/>
			<point x="316" y="836"/>
			<point x="234" y="833"/>
			<point x="204" y="828" type="curve" smooth="yes"/>
			<point x="178" y="824"/>
			<point x="166" y="813"/>
			<point x="166" y="793" type="curve" smooth="yes"/>
			<point x="166" y="774"/>
			<point x="176" y="760"/>
			<point x="203" y="760" type="curve" smooth="yes"/>
			<point x="222" y="760"/>
			<point x="301" y="762"/>
			<point x="404" y="766" type="curve"/>
			<point x="359" y="511"/>
			<point x="319" y="337"/>
			<point x="277" y="227" type="curve"/>
			<point x="249" y="234"/>
			<point x="219" y="239"/>
			<point x="189" y="239" type="curve" smooth="yes"/>
			<point x="76" y="239"/>
			<point x="5" y="170"/>
			<point x="5" y="92" type="curve" smooth="yes"/>
			<point x="5" y="32"/>
			<point x="50" y="-12"/>
			<point x="120" y="-12" type="curve" smooth="yes"/>
			<point x="198" y="-12"/>
			<point x="261" y="25"/>
			<point x="317" y="134" type="curve"/>
			<point x="347" y="122"/>
			<point x="377" y="107"/>
			<point x="409" y="90" type="curve" smooth="yes"/>
			<point x="506" y="39"/>
			<point x="612" y="-12"/>
			<point x="746" y="-12" type="curve" smooth="yes"/>
			<point x="929" y="-12"/>
			<point x="1055" y="95"/>
			<point x="1108" y="192" type="curve" smooth="yes"/>
			<point x="1124" y="222"/>
			<point x="1129" y="241"/>
			<point x="1129" y="254" type="curve" smooth="yes"/>
			<point x="1129" y="271"/>
			<point x="1118" y="281"/>
			<point x="1106" y="281" type="curve" smooth="yes"/>
			<point x="1100" y="281"/>
			<point x="1094" y="278"/>
			<point x="1091" y="275" type="curve" smooth="yes"/>
			<point x="1085" y="269"/>
			<point x="1078" y="259"/>
		</contour>
		<contour>
			<point x="82" y="102" type="curve" smooth="yes"/>
			<point x="82" y="137"/>
			<point x="119" y="167"/>
			<point x="179" y="167" type="curve" smooth="yes"/>
			<point x="202" y="167"/>
			<point x="225" y="164"/>
			<point x="247" y="158" type="curve"/>
			<point x="212" y="91"/>
			<point x="175" y="63"/>
			<point x="131" y="63" type="curve" smooth="yes"/>
			<point x="99" y="63"/>
			<point x="82" y="78"/>
		</contour>
	</outline>
</glyph>
<glyph name="section" format="2">
	<unicode hex="00A7"/>
	<advance width="1063"/>
	<outline>
		<contour>
			<point x="481" y="143" type="curve"/>
			<point x="509" y="76" type="line"/>
			<point x="722" y="141"/>
			<point x="868" y="309"/>
			<point x="868" y="531" type="curve" smooth="yes"/>
			<point x="868" y="717"/>
			<point x="769" y="829"/>
			<point x="675" y="932" type="curve" smooth="yes"/>
			<point x="590" y="1025"/>
			<point x="512" y="1115"/>
			<point x="512" y="1248" type="curve" smooth="yes"/>
			<point x="512" y="1403"/>
			<point x="626" y="1539"/>
			<point x="798" y="1539" type="curve" smooth="yes"/>
			<point x="896" y="1539"/>
			<point x="956" y="1504"/>
			<point x="997" y="1439" type="curve" smooth="yes"/>
			<point x="1015" y="1410"/>
			<point x="1024" y="1404"/>
			<point x="1037" y="1404" type="curve" smooth="yes"/>
			<point x="1052" y="1404"/>
			<point x="1063" y="1413"/>
			<point x="1063" y="1430" type="curve" smooth="yes"/>
			<point x="1063" y="1442"/>
			<point x="1059" y="1455"/>
			<point x="1052" y="1471" type="curve" smooth="yes"/>
			<point x="1020" y="1542"/>
			<point x="940" y="1614"/>
			<point x="802" y="1614" type="curve" smooth="yes"/>
			<point x="593" y="1614"/>
			<point x="432" y="1451"/>
			<point x="432" y="1233" type="curve" smooth="yes"/>
			<point x="432" y="1076"/>
			<point x="519" y="980"/>
			<point x="607" y="883" type="curve" smooth="yes"/>
			<point x="696" y="785"/>
			<point x="787" y="684"/>
			<point x="787" y="516" type="curve" smooth="yes"/>
			<point x="787" y="340"/>
			<point x="679" y="206"/>
		</contour>
		<contour>
			<point x="542" y="961" type="curve"/>
			<point x="514" y="1028" type="line"/>
			<point x="301" y="963"/>
			<point x="155" y="795"/>
			<point x="155" y="573" type="curve" smooth="yes"/>
			<point x="155" y="387"/>
			<point x="254" y="275"/>
			<point x="348" y="172" type="curve" smooth="yes"/>
			<point x="433" y="79"/>
			<point x="511" y="-11"/>
			<point x="511" y="-144" type="curve" smooth="yes"/>
			<point x="511" y="-299"/>
			<point x="397" y="-435"/>
			<point x="225" y="-435" type="curve" smooth="yes"/>
			<point x="127" y="-435"/>
			<point x="67" y="-400"/>
			<point x="26" y="-335" type="curve" smooth="yes"/>
			<point x="8" y="-306"/>
			<point x="-1" y="-300"/>
			<point x="-14" y="-300" type="curve" smooth="yes"/>
			<point x="-29" y="-300"/>
			<point x="-40" y="-309"/>
			<point x="-40" y="-326" type="curve" smooth="yes"/>
			<point x="-40" y="-338"/>
			<point x="-36" y="-351"/>
			<point x="-29" y="-367" type="curve" smooth="yes"/>
			<point x="3" y="-438"/>
			<point x="83" y="-510"/>
			<point x="221" y="-510" type="curve" smooth="yes"/>
			<point x="430" y="-510"/>
			<point x="591" y="-347"/>
			<point x="591" y="-129" type="curve" smooth="yes"/>
			<point x="591" y="28"/>
			<point x="504" y="124"/>
			<point x="416" y="221" type="curve" smooth="yes"/>
			<point x="327" y="319"/>
			<point x="236" y="420"/>
			<point x="236" y="588" type="curve" smooth="yes"/>
			<point x="236" y="764"/>
			<point x="344" y="898"/>
		</contour>
	</outline>
	<anchor name="bottom" x="442" y="0"/>
</glyph>
<glyph name="copyright" format="2">
	<advance width="2168"/>
	<unicode hex="00A9"/>
	<outline>
		<contour>
			<point x="569" y="644" type="curve" smooth="yes"/>
			<point x="569" y="295"/>
			<point x="741" y="123"/>
			<point x="1012" y="123" type="curve" smooth="yes"/>
			<point x="1183" y="123"/>
			<point x="1331" y="189"/>
			<point x="1438" y="285" type="curve" smooth="yes"/>
			<point x="1473" y="317"/>
			<point x="1482" y="332"/>
			<point x="1482" y="345" type="curve" smooth="yes"/>
			<point x="1482" y="363"/>
			<point x="1463" y="374"/>
			<point x="1449" y="374" type="curve" smooth="yes"/>
			<point x="1437" y="374"/>
			<point x="1424" y="364"/>
			<point x="1404" y="347" type="curve" smooth="yes"/>
			<point x="1304" y="262"/>
			<point x="1186" y="198"/>
			<point x="1026" y="198" type="curve" smooth="yes"/>
			<point x="787" y="198"/>
			<point x="649" y="343"/>
			<point x="649" y="647" type="curve" smooth="yes"/>
			<point x="649" y="1053"/>
			<point x="907" y="1358"/>
			<point x="1191" y="1358" type="curve" smooth="yes"/>
			<point x="1297" y="1358"/>
			<point x="1370" y="1321"/>
			<point x="1439" y="1266" type="curve" smooth="yes"/>
			<point x="1464" y="1246"/>
			<point x="1473" y="1243"/>
			<point x="1483" y="1243" type="curve" smooth="yes"/>
			<point x="1498" y="1243"/>
			<point x="1513" y="1259"/>
			<point x="1513" y="1275" type="curve" smooth="yes"/>
			<point x="1513" y="1290"/>
			<point x="1504" y="1310"/>
			<point x="1464" y="1342" type="curve" smooth="yes"/>
			<point x="1386" y="1405"/>
			<point x="1301" y="1433"/>
			<point x="1186" y="1433" type="curve" smooth="yes"/>
			<point x="864" y="1433"/>
			<point x="569" y="1102"/>
		</contour>
		<contour>
			<point x="145" y="625" type="curve" smooth="yes"/>
			<point x="145" y="65"/>
			<point x="467" y="-222"/>
			<point x="962" y="-222" type="curve" smooth="yes"/>
			<point x="1592" y="-222"/>
			<point x="2073" y="252"/>
			<point x="2073" y="932" type="curve" smooth="yes"/>
			<point x="2073" y="1492"/>
			<point x="1750" y="1778"/>
			<point x="1255" y="1778" type="curve" smooth="yes"/>
			<point x="625" y="1778"/>
			<point x="145" y="1305"/>
		</contour>
		<contour>
			<point x="225" y="635" type="curve" smooth="yes"/>
			<point x="225" y="1285"/>
			<point x="685" y="1703"/>
			<point x="1260" y="1703" type="curve" smooth="yes"/>
			<point x="1705" y="1703"/>
			<point x="1993" y="1453"/>
			<point x="1993" y="923" type="curve" smooth="yes"/>
			<point x="1993" y="283"/>
			<point x="1544" y="-147"/>
			<point x="969" y="-147" type="curve" smooth="yes"/>
			<point x="524" y="-147"/>
			<point x="225" y="105"/>
		</contour>
	</outline>
</glyph>
<glyph name="degree" format="2">
	<unicode hex="00B0"/>
	<advance width="863"/>
	<outline>
		<contour>
			<point x="492" y="1053" type="curve" smooth="yes"/>
			<point x="684" y="1053"/>
			<point x="853" y="1207"/>
			<point x="853" y="1395" type="curve" smooth="yes"/>
			<point x="853" y="1528"/>
			<point x="769" y="1627"/>
			<point x="612" y="1627" type="curve" smooth="yes"/>
			<point x="416" y="1627"/>
			<point x="250" y="1473"/>
			<point x="250" y="1285" type="curve" smooth="yes"/>
			<point x="250" y="1144"/>
			<point x="344" y="1053"/>
		</contour>
		<contour>
			<point x="500" y="1123" type="curve" smooth="yes"/>
			<point x="386" y="1123"/>
			<point x="325" y="1191"/>
			<point x="325" y="1291" type="curve" smooth="yes"/>
			<point x="325" y="1431"/>
			<point x="445" y="1557"/>
			<point x="599" y="1557" type="curve" smooth="yes"/>
			<point x="713" y="1557"/>
			<point x="778" y="1488"/>
			<point x="778" y="1382" type="curve" smooth="yes"/>
			<point x="778" y="1230"/>
			<point x="643" y="1123"/>
		</contour>
	</outline>
</glyph>
<glyph name="paragraph" format="2">
	<advance width="1251"/>
	<unicode hex="00B6"/>
	<outline>
		<contour>
			<point x="677" y="472" type="curve"/>
			<point x="733" y="472"/>
			<point x="768" y="475"/>
			<point x="802" y="481" type="curve"/>
			<point x="781" y="349"/>
			<point x="758" y="199"/>
			<point x="735" y="27" type="curve" smooth="yes"/>
			<point x="700" y="-238"/>
			<point x="644" y="-440"/>
			<point x="475" y="-440" type="curve" smooth="yes"/>
			<point x="468" y="-440"/>
			<point x="461" y="-440"/>
			<point x="454" y="-439" type="curve"/>
			<point x="510" y="-386"/>
			<point x="547" y="-307"/>
			<point x="575" y="-175" type="curve" smooth="yes"/>
			<point x="600" y="-55"/>
			<point x="630" y="150"/>
			<point x="659" y="350" type="curve" smooth="yes"/>
			<point x="665" y="391"/>
			<point x="671" y="432"/>
		</contour>
		<contour>
			<point x="0" y="-354" type="curve" smooth="yes"/>
			<point x="0" y="-410"/>
			<point x="137" y="-510"/>
			<point x="263" y="-510" type="curve" smooth="yes"/>
			<point x="304" y="-510"/>
			<point x="341" y="-503"/>
			<point x="373" y="-490" type="curve"/>
			<point x="400" y="-501"/>
			<point x="433" y="-510"/>
			<point x="472" y="-510" type="curve" smooth="yes"/>
			<point x="633" y="-510"/>
			<point x="729" y="-393"/>
			<point x="768" y="-209" type="curve" smooth="yes"/>
			<point x="799" y="-62"/>
			<point x="827" y="127"/>
			<point x="854" y="316" type="curve" smooth="yes"/>
			<point x="863" y="378"/>
			<point x="872" y="440"/>
			<point x="881" y="500" type="curve"/>
			<point x="948" y="520"/>
			<point x="1012" y="551"/>
			<point x="1070" y="588" type="curve" smooth="yes"/>
			<point x="1113" y="615"/>
			<point x="1128" y="633"/>
			<point x="1128" y="642" type="curve" smooth="yes"/>
			<point x="1128" y="653"/>
			<point x="1114" y="670"/>
			<point x="1102" y="670" type="curve" smooth="yes"/>
			<point x="1091" y="670"/>
			<point x="1084" y="666"/>
			<point x="1041" y="640" type="curve" smooth="yes"/>
			<point x="996" y="613"/>
			<point x="944" y="591"/>
			<point x="892" y="575" type="curve"/>
			<point x="962" y="992"/>
			<point x="1029" y="1219"/>
			<point x="1153" y="1476" type="curve" smooth="yes"/>
			<point x="1176" y="1524"/>
			<point x="1194" y="1558"/>
			<point x="1207" y="1582" type="curve" smooth="yes"/>
			<point x="1223" y="1612"/>
			<point x="1231" y="1628"/>
			<point x="1231" y="1637" type="curve" smooth="yes"/>
			<point x="1231" y="1647"/>
			<point x="1216" y="1665"/>
			<point x="1186" y="1665" type="curve" smooth="yes"/>
			<point x="1175" y="1665"/>
			<point x="1162" y="1654"/>
			<point x="1147" y="1627" type="curve" smooth="yes"/>
			<point x="1132" y="1601"/>
			<point x="1116" y="1572"/>
			<point x="1099" y="1537" type="curve"/>
			<point x="1032" y="1571"/>
			<point x="947" y="1594"/>
			<point x="842" y="1594" type="curve" smooth="yes"/>
			<point x="503" y="1594"/>
			<point x="200" y="1293"/>
			<point x="200" y="930" type="curve" smooth="yes"/>
			<point x="200" y="667"/>
			<point x="367" y="510"/>
			<point x="603" y="478" type="curve"/>
			<point x="580" y="341"/>
			<point x="556" y="188"/>
			<point x="533" y="16" type="curve" smooth="yes"/>
			<point x="498" y="-243"/>
			<point x="439" y="-440"/>
			<point x="270" y="-440" type="curve" smooth="yes"/>
			<point x="182" y="-440"/>
			<point x="99" y="-416"/>
			<point x="40" y="-344" type="curve" smooth="yes"/>
			<point x="34" y="-337"/>
			<point x="28" y="-332"/>
			<point x="24" y="-331" type="curve"/>
			<point x="13" y="-331"/>
			<point x="0" y="-339"/>
		</contour>
		<contour>
			<point x="278" y="934" type="curve" smooth="yes"/>
			<point x="278" y="1251"/>
			<point x="534" y="1519"/>
			<point x="845" y="1519" type="curve" smooth="yes"/>
			<point x="860" y="1519"/>
			<point x="875" y="1519"/>
			<point x="888" y="1518" type="curve"/>
			<point x="757" y="1213"/>
			<point x="704" y="1054"/>
			<point x="616" y="553" type="curve"/>
			<point x="404" y="581"/>
			<point x="278" y="707"/>
		</contour>
		<contour>
			<point x="688" y="547" type="curve"/>
			<point x="761" y="1002"/>
			<point x="833" y="1217"/>
			<point x="963" y="1511" type="curve"/>
			<point x="1008" y="1503"/>
			<point x="1042" y="1492"/>
			<point x="1073" y="1477" type="curve"/>
			<point x="958" y="1231"/>
			<point x="895" y="1026"/>
			<point x="815" y="556" type="curve"/>
			<point x="780" y="550"/>
			<point x="746" y="547"/>
		</contour>
	</outline>
</glyph>
<glyph name="questiondown" format="2">
	<unicode hex="00BF"/>
	<advance width="1001"/>
	<outline>
		<contour>
			<point x="539" y="527" type="curve" smooth="yes"/>
			<point x="452" y="527"/>
			<point x="373" y="490"/>
			<point x="306" y="431" type="curve" smooth="yes"/>
			<point x="286" y="414"/>
			<point x="279" y="399"/>
			<point x="279" y="390" type="curve" smooth="yes"/>
			<point x="279" y="375"/>
			<point x="289" y="364"/>
			<point x="302" y="364" type="curve" smooth="yes"/>
			<point x="311" y="364"/>
			<point x="323" y="371"/>
			<point x="339" y="382" type="curve" smooth="yes"/>
			<point x="404" y="429"/>
			<point x="461" y="452"/>
			<point x="523" y="452" type="curve" smooth="yes"/>
			<point x="617" y="452"/>
			<point x="663" y="410"/>
			<point x="663" y="336" type="curve" smooth="yes"/>
			<point x="663" y="237"/>
			<point x="608" y="154"/>
			<point x="369" y="-8" type="curve" smooth="yes"/>
			<point x="91" y="-196"/>
			<point x="20" y="-308"/>
			<point x="20" y="-453" type="curve" smooth="yes"/>
			<point x="20" y="-589"/>
			<point x="137" y="-698"/>
			<point x="304" y="-698" type="curve" smooth="yes"/>
			<point x="431" y="-698"/>
			<point x="540" y="-651"/>
			<point x="624" y="-589" type="curve" smooth="yes"/>
			<point x="640" y="-577"/>
			<point x="663" y="-559"/>
			<point x="663" y="-539" type="curve" smooth="yes"/>
			<point x="663" y="-520"/>
			<point x="644" y="-510"/>
			<point x="634" y="-510" type="curve" smooth="yes"/>
			<point x="620" y="-510"/>
			<point x="605" y="-520"/>
			<point x="583" y="-535" type="curve" smooth="yes"/>
			<point x="500" y="-591"/>
			<point x="403" y="-623"/>
			<point x="319" y="-623" type="curve" smooth="yes"/>
			<point x="191" y="-623"/>
			<point x="100" y="-551"/>
			<point x="100" y="-438" type="curve" smooth="yes"/>
			<point x="100" y="-330"/>
			<point x="154" y="-247"/>
			<point x="404" y="-75" type="curve" smooth="yes"/>
			<point x="678" y="113"/>
			<point x="741" y="217"/>
			<point x="741" y="347" type="curve" smooth="yes"/>
			<point x="741" y="451"/>
			<point x="653" y="527"/>
		</contour>
		<contour>
			<point x="635" y="763" type="curve" smooth="yes"/>
			<point x="686" y="763"/>
			<point x="735" y="811"/>
			<point x="735" y="867" type="curve" smooth="yes"/>
			<point x="735" y="906"/>
			<point x="706" y="935"/>
			<point x="666" y="935" type="curve" smooth="yes"/>
			<point x="616" y="935"/>
			<point x="572" y="891"/>
			<point x="572" y="835" type="curve" smooth="yes"/>
			<point x="572" y="790"/>
			<point x="601" y="763"/>
		</contour>
	</outline>
</glyph>
<glyph name="AE" format="2">
	<unicode hex="00C6"/>
	<advance width="1878"/>
	<outline>
		<contour>
			<point x="614" y="805" type="curve" smooth="yes"/>
			<point x="614" y="790"/>
			<point x="627" y="777"/>
			<point x="648" y="771" type="curve"/>
			<point x="408" y="495"/>
			<point x="170" y="255"/>
			<point x="-62" y="74" type="curve" smooth="yes"/>
			<point x="-85" y="56"/>
			<point x="-100" y="42"/>
			<point x="-100" y="22" type="curve" smooth="yes"/>
			<point x="-100" y="-1"/>
			<point x="-84" y="-12"/>
			<point x="-67" y="-12" type="curve" smooth="yes"/>
			<point x="-48" y="-12"/>
			<point x="-29" y="-4"/>
			<point x="3" y="22" type="curve" smooth="yes"/>
			<point x="240" y="214"/>
			<point x="485" y="464"/>
			<point x="741" y="765" type="curve"/>
			<point x="1107" y="765" type="line"/>
			<point x="964" y="81" type="line" smooth="yes"/>
			<point x="959" y="58"/>
			<point x="959" y="52"/>
			<point x="959" y="44" type="curve" smooth="yes"/>
			<point x="959" y="23"/>
			<point x="971" y="0"/>
			<point x="1015" y="0" type="curve" smooth="yes"/>
			<point x="1580" y="0" type="line" smooth="yes"/>
			<point x="1731" y="0"/>
			<point x="1751" y="33"/>
			<point x="1751" y="56" type="curve" smooth="yes"/>
			<point x="1751" y="66"/>
			<point x="1745" y="78"/>
			<point x="1728" y="78" type="curve" smooth="yes"/>
			<point x="1723" y="78"/>
			<point x="1710" y="78"/>
			<point x="1693" y="76" type="curve" smooth="yes"/>
			<point x="1665" y="73"/>
			<point x="1632" y="72"/>
			<point x="1581" y="72" type="curve" smooth="yes"/>
			<point x="1041" y="70" type="line"/>
			<point x="1182" y="765" type="line"/>
			<point x="1368" y="765"/>
			<point x="1523" y="767"/>
			<point x="1625" y="772" type="curve" smooth="yes"/>
			<point x="1681" y="775"/>
			<point x="1694" y="795"/>
			<point x="1694" y="821" type="curve" smooth="yes"/>
			<point x="1694" y="831"/>
			<point x="1689" y="842"/>
			<point x="1669" y="842" type="curve"/>
			<point x="1197" y="836" type="line"/>
			<point x="1338" y="1530" type="line"/>
			<point x="1523" y="1530" type="line" smooth="yes"/>
			<point x="1692" y="1530"/>
			<point x="1823" y="1535"/>
			<point x="1885" y="1539" type="curve" smooth="yes"/>
			<point x="1957" y="1544"/>
			<point x="1978" y="1568"/>
			<point x="1978" y="1589" type="curve" smooth="yes"/>
			<point x="1978" y="1599"/>
			<point x="1972" y="1609"/>
			<point x="1956" y="1609" type="curve" smooth="yes"/>
			<point x="1943" y="1609"/>
			<point x="1923" y="1608"/>
			<point x="1885" y="1606" type="curve" smooth="yes"/>
			<point x="1814" y="1602"/>
			<point x="1552" y="1600"/>
			<point x="1470" y="1600" type="curve" smooth="yes"/>
			<point x="1309" y="1600" type="line" smooth="yes"/>
			<point x="1279" y="1600"/>
			<point x="1259" y="1589"/>
			<point x="1234" y="1551" type="curve" smooth="yes"/>
			<point x="1025" y="1238"/>
			<point x="891" y="1056"/>
			<point x="704" y="836" type="curve"/>
			<point x="663" y="836" type="line" smooth="yes"/>
			<point x="628" y="836"/>
			<point x="614" y="822"/>
		</contour>
		<contour>
			<point x="801" y="836" type="line"/>
			<point x="982" y="1056"/>
			<point x="1103" y="1233"/>
			<point x="1260" y="1473" type="curve"/>
			<point x="1230" y="1351" type="line"/>
			<point x="1122" y="836" type="line"/>
		</contour>
	</outline>
	<anchor name="bottom" x="196" y="0"/>
	<anchor name="ogonek" x="922" y="0"/>
	<anchor name="top" x="1299" y="1600"/>
</glyph>
